G04 #@! TF.GenerationSoftware,KiCad,Pcbnew,5.1.4+dfsg1-1*
G04 #@! TF.CreationDate,2020-04-05T14:55:26+02:00*
G04 #@! TF.ProjectId,led-multiott,6c65642d-6d75-46c7-9469-6f74742e6b69,rev?*
G04 #@! TF.SameCoordinates,Original*
G04 #@! TF.FileFunction,Soldermask,Top*
G04 #@! TF.FilePolarity,Negative*
%FSLAX46Y46*%
G04 Gerber Fmt 4.6, Leading zero omitted, Abs format (unit mm)*
G04 Created by KiCad (PCBNEW 5.1.4+dfsg1-1) date 2020-04-05 14:55:26*
%MOMM*%
%LPD*%
G04 APERTURE LIST*
%ADD10C,0.100000*%
G04 APERTURE END LIST*
D10*
G36*
X125498228Y-97581703D02*
G01*
X125653100Y-97645853D01*
X125792481Y-97738985D01*
X125911015Y-97857519D01*
X126004147Y-97996900D01*
X126068297Y-98151772D01*
X126101000Y-98316184D01*
X126101000Y-98483816D01*
X126068297Y-98648228D01*
X126004147Y-98803100D01*
X125911015Y-98942481D01*
X125792481Y-99061015D01*
X125653100Y-99154147D01*
X125498228Y-99218297D01*
X125333816Y-99251000D01*
X125166184Y-99251000D01*
X125001772Y-99218297D01*
X124846900Y-99154147D01*
X124707519Y-99061015D01*
X124588985Y-98942481D01*
X124495853Y-98803100D01*
X124431703Y-98648228D01*
X124399000Y-98483816D01*
X124399000Y-98316184D01*
X124431703Y-98151772D01*
X124495853Y-97996900D01*
X124588985Y-97857519D01*
X124707519Y-97738985D01*
X124846900Y-97645853D01*
X125001772Y-97581703D01*
X125166184Y-97549000D01*
X125333816Y-97549000D01*
X125498228Y-97581703D01*
X125498228Y-97581703D01*
G37*
G36*
X246035787Y-91585462D02*
G01*
X246147427Y-91631705D01*
X246682029Y-91853144D01*
X247263631Y-92241758D01*
X247758242Y-92736369D01*
X248146856Y-93317971D01*
X248271943Y-93619959D01*
X248414538Y-93964213D01*
X248551000Y-94650256D01*
X248551000Y-95349744D01*
X248414538Y-96035787D01*
X248393188Y-96087330D01*
X248146856Y-96682029D01*
X247758242Y-97263631D01*
X247263631Y-97758242D01*
X246682029Y-98146856D01*
X246273234Y-98316184D01*
X246035787Y-98414538D01*
X245349744Y-98551000D01*
X244650256Y-98551000D01*
X243964213Y-98414538D01*
X243726766Y-98316184D01*
X243317971Y-98146856D01*
X242736369Y-97758242D01*
X242241758Y-97263631D01*
X241853144Y-96682029D01*
X241606812Y-96087330D01*
X241585462Y-96035787D01*
X241449000Y-95349744D01*
X241449000Y-94650256D01*
X241585462Y-93964213D01*
X241728057Y-93619959D01*
X241853144Y-93317971D01*
X242241758Y-92736369D01*
X242736369Y-92241758D01*
X243317971Y-91853144D01*
X243852573Y-91631705D01*
X243964213Y-91585462D01*
X244650256Y-91449000D01*
X245349744Y-91449000D01*
X246035787Y-91585462D01*
X246035787Y-91585462D01*
G37*
G36*
X106035787Y-91585462D02*
G01*
X106147427Y-91631705D01*
X106682029Y-91853144D01*
X107263631Y-92241758D01*
X107758242Y-92736369D01*
X108146856Y-93317971D01*
X108271943Y-93619959D01*
X108414538Y-93964213D01*
X108551000Y-94650256D01*
X108551000Y-95349744D01*
X108414538Y-96035787D01*
X108393188Y-96087330D01*
X108146856Y-96682029D01*
X107758242Y-97263631D01*
X107263631Y-97758242D01*
X106682029Y-98146856D01*
X106273234Y-98316184D01*
X106035787Y-98414538D01*
X105349744Y-98551000D01*
X104650256Y-98551000D01*
X103964213Y-98414538D01*
X103726766Y-98316184D01*
X103317971Y-98146856D01*
X102736369Y-97758242D01*
X102241758Y-97263631D01*
X101853144Y-96682029D01*
X101606812Y-96087330D01*
X101585462Y-96035787D01*
X101449000Y-95349744D01*
X101449000Y-94650256D01*
X101585462Y-93964213D01*
X101728057Y-93619959D01*
X101853144Y-93317971D01*
X102241758Y-92736369D01*
X102736369Y-92241758D01*
X103317971Y-91853144D01*
X103852573Y-91631705D01*
X103964213Y-91585462D01*
X104650256Y-91449000D01*
X105349744Y-91449000D01*
X106035787Y-91585462D01*
X106035787Y-91585462D01*
G37*
G36*
X238174609Y-97117136D02*
G01*
X238238622Y-97143651D01*
X238273567Y-97158126D01*
X238362627Y-97217634D01*
X238438366Y-97293373D01*
X238467853Y-97337504D01*
X238497875Y-97382435D01*
X238538864Y-97481391D01*
X238558818Y-97581705D01*
X238559760Y-97586444D01*
X238559760Y-97693556D01*
X238538864Y-97798609D01*
X238497874Y-97897567D01*
X238438366Y-97986627D01*
X238362627Y-98062366D01*
X238273567Y-98121874D01*
X238273566Y-98121875D01*
X238273565Y-98121875D01*
X238174609Y-98162864D01*
X238069557Y-98183760D01*
X237962443Y-98183760D01*
X237857391Y-98162864D01*
X237758435Y-98121875D01*
X237758434Y-98121875D01*
X237758433Y-98121874D01*
X237669373Y-98062366D01*
X237593634Y-97986627D01*
X237534126Y-97897567D01*
X237493136Y-97798609D01*
X237472240Y-97693556D01*
X237472240Y-97586444D01*
X237473183Y-97581705D01*
X237493136Y-97481391D01*
X237534125Y-97382435D01*
X237564147Y-97337504D01*
X237593634Y-97293373D01*
X237669373Y-97217634D01*
X237758433Y-97158126D01*
X237793379Y-97143651D01*
X237857391Y-97117136D01*
X237962443Y-97096240D01*
X238069557Y-97096240D01*
X238174609Y-97117136D01*
X238174609Y-97117136D01*
G37*
G36*
X236142609Y-97117136D02*
G01*
X236206622Y-97143651D01*
X236241567Y-97158126D01*
X236330627Y-97217634D01*
X236406366Y-97293373D01*
X236435853Y-97337504D01*
X236465875Y-97382435D01*
X236506864Y-97481391D01*
X236526818Y-97581705D01*
X236527760Y-97586444D01*
X236527760Y-97693556D01*
X236506864Y-97798609D01*
X236465874Y-97897567D01*
X236406366Y-97986627D01*
X236330627Y-98062366D01*
X236241567Y-98121874D01*
X236241566Y-98121875D01*
X236241565Y-98121875D01*
X236142609Y-98162864D01*
X236037557Y-98183760D01*
X235930443Y-98183760D01*
X235825391Y-98162864D01*
X235726435Y-98121875D01*
X235726434Y-98121875D01*
X235726433Y-98121874D01*
X235637373Y-98062366D01*
X235561634Y-97986627D01*
X235502126Y-97897567D01*
X235461136Y-97798609D01*
X235440240Y-97693556D01*
X235440240Y-97586444D01*
X235441183Y-97581705D01*
X235461136Y-97481391D01*
X235502125Y-97382435D01*
X235532147Y-97337504D01*
X235561634Y-97293373D01*
X235637373Y-97217634D01*
X235726433Y-97158126D01*
X235761379Y-97143651D01*
X235825391Y-97117136D01*
X235930443Y-97096240D01*
X236037557Y-97096240D01*
X236142609Y-97117136D01*
X236142609Y-97117136D01*
G37*
G36*
X115998228Y-95681703D02*
G01*
X116153100Y-95745853D01*
X116292481Y-95838985D01*
X116411015Y-95957519D01*
X116504147Y-96096900D01*
X116568297Y-96251772D01*
X116601000Y-96416184D01*
X116601000Y-96583816D01*
X116568297Y-96748228D01*
X116504147Y-96903100D01*
X116411015Y-97042481D01*
X116292481Y-97161015D01*
X116153100Y-97254147D01*
X115998228Y-97318297D01*
X115833816Y-97351000D01*
X115666184Y-97351000D01*
X115501772Y-97318297D01*
X115346900Y-97254147D01*
X115207519Y-97161015D01*
X115088985Y-97042481D01*
X114995853Y-96903100D01*
X114931703Y-96748228D01*
X114899000Y-96583816D01*
X114899000Y-96416184D01*
X114931703Y-96251772D01*
X114995853Y-96096900D01*
X115088985Y-95957519D01*
X115207519Y-95838985D01*
X115346900Y-95745853D01*
X115501772Y-95681703D01*
X115666184Y-95649000D01*
X115833816Y-95649000D01*
X115998228Y-95681703D01*
X115998228Y-95681703D01*
G37*
G36*
X164972585Y-94068802D02*
G01*
X165122410Y-94098604D01*
X165404674Y-94215521D01*
X165658705Y-94385259D01*
X165874741Y-94601295D01*
X166044479Y-94855326D01*
X166158895Y-95131552D01*
X166161396Y-95137591D01*
X166220290Y-95433668D01*
X166221000Y-95437240D01*
X166221000Y-95742760D01*
X166161396Y-96042410D01*
X166044479Y-96324674D01*
X165874741Y-96578705D01*
X165658705Y-96794741D01*
X165404674Y-96964479D01*
X165122410Y-97081396D01*
X165047784Y-97096240D01*
X164822761Y-97141000D01*
X164517239Y-97141000D01*
X164292216Y-97096240D01*
X164217590Y-97081396D01*
X163935326Y-96964479D01*
X163681295Y-96794741D01*
X163465259Y-96578705D01*
X163295521Y-96324674D01*
X163178604Y-96042410D01*
X163119000Y-95742760D01*
X163119000Y-95437240D01*
X163119711Y-95433668D01*
X163178604Y-95137591D01*
X163181105Y-95131552D01*
X163295521Y-94855326D01*
X163465259Y-94601295D01*
X163681295Y-94385259D01*
X163935326Y-94215521D01*
X164217590Y-94098604D01*
X164367415Y-94068802D01*
X164517239Y-94039000D01*
X164822761Y-94039000D01*
X164972585Y-94068802D01*
X164972585Y-94068802D01*
G37*
G36*
X154812585Y-94068802D02*
G01*
X154962410Y-94098604D01*
X155244674Y-94215521D01*
X155498705Y-94385259D01*
X155714741Y-94601295D01*
X155884479Y-94855326D01*
X155998895Y-95131552D01*
X156001396Y-95137591D01*
X156060290Y-95433668D01*
X156061000Y-95437240D01*
X156061000Y-95742760D01*
X156001396Y-96042410D01*
X155884479Y-96324674D01*
X155714741Y-96578705D01*
X155498705Y-96794741D01*
X155244674Y-96964479D01*
X154962410Y-97081396D01*
X154887784Y-97096240D01*
X154662761Y-97141000D01*
X154357239Y-97141000D01*
X154132216Y-97096240D01*
X154057590Y-97081396D01*
X153775326Y-96964479D01*
X153521295Y-96794741D01*
X153305259Y-96578705D01*
X153135521Y-96324674D01*
X153018604Y-96042410D01*
X152959000Y-95742760D01*
X152959000Y-95437240D01*
X152959711Y-95433668D01*
X153018604Y-95137591D01*
X153021105Y-95131552D01*
X153135521Y-94855326D01*
X153305259Y-94601295D01*
X153521295Y-94385259D01*
X153775326Y-94215521D01*
X154057590Y-94098604D01*
X154207415Y-94068802D01*
X154357239Y-94039000D01*
X154662761Y-94039000D01*
X154812585Y-94068802D01*
X154812585Y-94068802D01*
G37*
G36*
X159892585Y-94068802D02*
G01*
X160042410Y-94098604D01*
X160324674Y-94215521D01*
X160578705Y-94385259D01*
X160794741Y-94601295D01*
X160964479Y-94855326D01*
X161078895Y-95131552D01*
X161081396Y-95137591D01*
X161140290Y-95433668D01*
X161141000Y-95437240D01*
X161141000Y-95742760D01*
X161081396Y-96042410D01*
X160964479Y-96324674D01*
X160794741Y-96578705D01*
X160578705Y-96794741D01*
X160324674Y-96964479D01*
X160042410Y-97081396D01*
X159967784Y-97096240D01*
X159742761Y-97141000D01*
X159437239Y-97141000D01*
X159212216Y-97096240D01*
X159137590Y-97081396D01*
X158855326Y-96964479D01*
X158601295Y-96794741D01*
X158385259Y-96578705D01*
X158215521Y-96324674D01*
X158098604Y-96042410D01*
X158039000Y-95742760D01*
X158039000Y-95437240D01*
X158039711Y-95433668D01*
X158098604Y-95137591D01*
X158101105Y-95131552D01*
X158215521Y-94855326D01*
X158385259Y-94601295D01*
X158601295Y-94385259D01*
X158855326Y-94215521D01*
X159137590Y-94098604D01*
X159287415Y-94068802D01*
X159437239Y-94039000D01*
X159742761Y-94039000D01*
X159892585Y-94068802D01*
X159892585Y-94068802D01*
G37*
G36*
X149732585Y-94068802D02*
G01*
X149882410Y-94098604D01*
X150164674Y-94215521D01*
X150418705Y-94385259D01*
X150634741Y-94601295D01*
X150804479Y-94855326D01*
X150918895Y-95131552D01*
X150921396Y-95137591D01*
X150980290Y-95433668D01*
X150981000Y-95437240D01*
X150981000Y-95742760D01*
X150921396Y-96042410D01*
X150804479Y-96324674D01*
X150634741Y-96578705D01*
X150418705Y-96794741D01*
X150164674Y-96964479D01*
X149882410Y-97081396D01*
X149807784Y-97096240D01*
X149582761Y-97141000D01*
X149277239Y-97141000D01*
X149052216Y-97096240D01*
X148977590Y-97081396D01*
X148695326Y-96964479D01*
X148441295Y-96794741D01*
X148225259Y-96578705D01*
X148055521Y-96324674D01*
X147938604Y-96042410D01*
X147879000Y-95742760D01*
X147879000Y-95437240D01*
X147879711Y-95433668D01*
X147938604Y-95137591D01*
X147941105Y-95131552D01*
X148055521Y-94855326D01*
X148225259Y-94601295D01*
X148441295Y-94385259D01*
X148695326Y-94215521D01*
X148977590Y-94098604D01*
X149127415Y-94068802D01*
X149277239Y-94039000D01*
X149582761Y-94039000D01*
X149732585Y-94068802D01*
X149732585Y-94068802D01*
G37*
G36*
X144652585Y-94068802D02*
G01*
X144802410Y-94098604D01*
X145084674Y-94215521D01*
X145338705Y-94385259D01*
X145554741Y-94601295D01*
X145724479Y-94855326D01*
X145838895Y-95131552D01*
X145841396Y-95137591D01*
X145900290Y-95433668D01*
X145901000Y-95437240D01*
X145901000Y-95742760D01*
X145841396Y-96042410D01*
X145724479Y-96324674D01*
X145554741Y-96578705D01*
X145338705Y-96794741D01*
X145084674Y-96964479D01*
X144802410Y-97081396D01*
X144727784Y-97096240D01*
X144502761Y-97141000D01*
X144197239Y-97141000D01*
X143972216Y-97096240D01*
X143897590Y-97081396D01*
X143615326Y-96964479D01*
X143361295Y-96794741D01*
X143145259Y-96578705D01*
X142975521Y-96324674D01*
X142858604Y-96042410D01*
X142799000Y-95742760D01*
X142799000Y-95437240D01*
X142799711Y-95433668D01*
X142858604Y-95137591D01*
X142861105Y-95131552D01*
X142975521Y-94855326D01*
X143145259Y-94601295D01*
X143361295Y-94385259D01*
X143615326Y-94215521D01*
X143897590Y-94098604D01*
X144047415Y-94068802D01*
X144197239Y-94039000D01*
X144502761Y-94039000D01*
X144652585Y-94068802D01*
X144652585Y-94068802D01*
G37*
G36*
X236494344Y-95943610D02*
G01*
X236575043Y-95977037D01*
X236647670Y-96025565D01*
X236709435Y-96087330D01*
X236757963Y-96159957D01*
X236791390Y-96240656D01*
X236808430Y-96326326D01*
X236808430Y-96413674D01*
X236791390Y-96499344D01*
X236757963Y-96580043D01*
X236709435Y-96652670D01*
X236647670Y-96714435D01*
X236575043Y-96762963D01*
X236494344Y-96796390D01*
X236408674Y-96813430D01*
X236321326Y-96813430D01*
X236235656Y-96796390D01*
X236154957Y-96762963D01*
X236082330Y-96714435D01*
X236020565Y-96652670D01*
X235972037Y-96580043D01*
X235938610Y-96499344D01*
X235921570Y-96413674D01*
X235921570Y-96326326D01*
X235938610Y-96240656D01*
X235972037Y-96159957D01*
X236020565Y-96087330D01*
X236082330Y-96025565D01*
X236154957Y-95977037D01*
X236235656Y-95943610D01*
X236321326Y-95926570D01*
X236408674Y-95926570D01*
X236494344Y-95943610D01*
X236494344Y-95943610D01*
G37*
G36*
X237764344Y-95943610D02*
G01*
X237845043Y-95977037D01*
X237917670Y-96025565D01*
X237979435Y-96087330D01*
X238027963Y-96159957D01*
X238061390Y-96240656D01*
X238078430Y-96326326D01*
X238078430Y-96413674D01*
X238061390Y-96499344D01*
X238027963Y-96580043D01*
X237979435Y-96652670D01*
X237917670Y-96714435D01*
X237845043Y-96762963D01*
X237764344Y-96796390D01*
X237678674Y-96813430D01*
X237591326Y-96813430D01*
X237505656Y-96796390D01*
X237424957Y-96762963D01*
X237352330Y-96714435D01*
X237290565Y-96652670D01*
X237242037Y-96580043D01*
X237208610Y-96499344D01*
X237191570Y-96413674D01*
X237191570Y-96326326D01*
X237208610Y-96240656D01*
X237242037Y-96159957D01*
X237290565Y-96087330D01*
X237352330Y-96025565D01*
X237424957Y-95977037D01*
X237505656Y-95943610D01*
X237591326Y-95926570D01*
X237678674Y-95926570D01*
X237764344Y-95943610D01*
X237764344Y-95943610D01*
G37*
G36*
X232054591Y-95478085D02*
G01*
X232088569Y-95488393D01*
X232119890Y-95505134D01*
X232147339Y-95527661D01*
X232169866Y-95555110D01*
X232186607Y-95586431D01*
X232196915Y-95620409D01*
X232201000Y-95661890D01*
X232201000Y-96338110D01*
X232196915Y-96379591D01*
X232186607Y-96413569D01*
X232169866Y-96444890D01*
X232147339Y-96472339D01*
X232119890Y-96494866D01*
X232088569Y-96511607D01*
X232054591Y-96521915D01*
X232013110Y-96526000D01*
X231411890Y-96526000D01*
X231370409Y-96521915D01*
X231336431Y-96511607D01*
X231305110Y-96494866D01*
X231277661Y-96472339D01*
X231255134Y-96444890D01*
X231238393Y-96413569D01*
X231228085Y-96379591D01*
X231224000Y-96338110D01*
X231224000Y-95661890D01*
X231228085Y-95620409D01*
X231238393Y-95586431D01*
X231255134Y-95555110D01*
X231277661Y-95527661D01*
X231305110Y-95505134D01*
X231336431Y-95488393D01*
X231370409Y-95478085D01*
X231411890Y-95474000D01*
X232013110Y-95474000D01*
X232054591Y-95478085D01*
X232054591Y-95478085D01*
G37*
G36*
X233629591Y-95478085D02*
G01*
X233663569Y-95488393D01*
X233694890Y-95505134D01*
X233722339Y-95527661D01*
X233744866Y-95555110D01*
X233761607Y-95586431D01*
X233771915Y-95620409D01*
X233776000Y-95661890D01*
X233776000Y-96338110D01*
X233771915Y-96379591D01*
X233761607Y-96413569D01*
X233744866Y-96444890D01*
X233722339Y-96472339D01*
X233694890Y-96494866D01*
X233663569Y-96511607D01*
X233629591Y-96521915D01*
X233588110Y-96526000D01*
X232986890Y-96526000D01*
X232945409Y-96521915D01*
X232911431Y-96511607D01*
X232880110Y-96494866D01*
X232852661Y-96472339D01*
X232830134Y-96444890D01*
X232813393Y-96413569D01*
X232803085Y-96379591D01*
X232799000Y-96338110D01*
X232799000Y-95661890D01*
X232803085Y-95620409D01*
X232813393Y-95586431D01*
X232830134Y-95555110D01*
X232852661Y-95527661D01*
X232880110Y-95505134D01*
X232911431Y-95488393D01*
X232945409Y-95478085D01*
X232986890Y-95474000D01*
X233588110Y-95474000D01*
X233629591Y-95478085D01*
X233629591Y-95478085D01*
G37*
G36*
X211001000Y-96501000D02*
G01*
X208499000Y-96501000D01*
X208499000Y-93999000D01*
X211001000Y-93999000D01*
X211001000Y-96501000D01*
X211001000Y-96501000D01*
G37*
G36*
X194001000Y-96501000D02*
G01*
X191499000Y-96501000D01*
X191499000Y-93999000D01*
X194001000Y-93999000D01*
X194001000Y-96501000D01*
X194001000Y-96501000D01*
G37*
G36*
X237764344Y-94673610D02*
G01*
X237845043Y-94707037D01*
X237917670Y-94755565D01*
X237979435Y-94817330D01*
X238027963Y-94889957D01*
X238061390Y-94970656D01*
X238078430Y-95056326D01*
X238078430Y-95143674D01*
X238061390Y-95229344D01*
X238027963Y-95310043D01*
X237979435Y-95382670D01*
X237917670Y-95444435D01*
X237845043Y-95492963D01*
X237764344Y-95526390D01*
X237678674Y-95543430D01*
X237591326Y-95543430D01*
X237505656Y-95526390D01*
X237424957Y-95492963D01*
X237352330Y-95444435D01*
X237290565Y-95382670D01*
X237242037Y-95310043D01*
X237208610Y-95229344D01*
X237191570Y-95143674D01*
X237191570Y-95056326D01*
X237208610Y-94970656D01*
X237242037Y-94889957D01*
X237290565Y-94817330D01*
X237352330Y-94755565D01*
X237424957Y-94707037D01*
X237505656Y-94673610D01*
X237591326Y-94656570D01*
X237678674Y-94656570D01*
X237764344Y-94673610D01*
X237764344Y-94673610D01*
G37*
G36*
X236494344Y-94673610D02*
G01*
X236575043Y-94707037D01*
X236647670Y-94755565D01*
X236709435Y-94817330D01*
X236757963Y-94889957D01*
X236791390Y-94970656D01*
X236808430Y-95056326D01*
X236808430Y-95143674D01*
X236791390Y-95229344D01*
X236757963Y-95310043D01*
X236709435Y-95382670D01*
X236647670Y-95444435D01*
X236575043Y-95492963D01*
X236494344Y-95526390D01*
X236408674Y-95543430D01*
X236321326Y-95543430D01*
X236235656Y-95526390D01*
X236154957Y-95492963D01*
X236082330Y-95444435D01*
X236020565Y-95382670D01*
X235972037Y-95310043D01*
X235938610Y-95229344D01*
X235921570Y-95143674D01*
X235921570Y-95056326D01*
X235938610Y-94970656D01*
X235972037Y-94889957D01*
X236020565Y-94817330D01*
X236082330Y-94755565D01*
X236154957Y-94707037D01*
X236235656Y-94673610D01*
X236321326Y-94656570D01*
X236408674Y-94656570D01*
X236494344Y-94673610D01*
X236494344Y-94673610D01*
G37*
G36*
X130163080Y-92040715D02*
G01*
X130374407Y-92128249D01*
X130390748Y-92135018D01*
X130595643Y-92271925D01*
X130769892Y-92446174D01*
X130906799Y-92651069D01*
X130906800Y-92651071D01*
X131001102Y-92878737D01*
X131049177Y-93120426D01*
X131049177Y-93366854D01*
X131036350Y-93431341D01*
X131001102Y-93608543D01*
X130906799Y-93836211D01*
X130769892Y-94041106D01*
X130595643Y-94215355D01*
X130390748Y-94352262D01*
X130390747Y-94352263D01*
X130390746Y-94352263D01*
X130163080Y-94446565D01*
X129921391Y-94494640D01*
X129674963Y-94494640D01*
X129433274Y-94446565D01*
X129205608Y-94352263D01*
X129205607Y-94352263D01*
X129205606Y-94352262D01*
X129000711Y-94215355D01*
X128826462Y-94041106D01*
X128689555Y-93836211D01*
X128595252Y-93608543D01*
X128560004Y-93431341D01*
X128547177Y-93366854D01*
X128547177Y-93120426D01*
X128595252Y-92878737D01*
X128689554Y-92651071D01*
X128689555Y-92651069D01*
X128826462Y-92446174D01*
X129000711Y-92271925D01*
X129205606Y-92135018D01*
X129221948Y-92128249D01*
X129433274Y-92040715D01*
X129674963Y-91992640D01*
X129921391Y-91992640D01*
X130163080Y-92040715D01*
X130163080Y-92040715D01*
G37*
G36*
X237764344Y-93403610D02*
G01*
X237845043Y-93437037D01*
X237917670Y-93485565D01*
X237979435Y-93547330D01*
X238027963Y-93619957D01*
X238061390Y-93700656D01*
X238078430Y-93786326D01*
X238078430Y-93873674D01*
X238061390Y-93959344D01*
X238027963Y-94040043D01*
X237979435Y-94112670D01*
X237917670Y-94174435D01*
X237845043Y-94222963D01*
X237764344Y-94256390D01*
X237678674Y-94273430D01*
X237591326Y-94273430D01*
X237505656Y-94256390D01*
X237424957Y-94222963D01*
X237352330Y-94174435D01*
X237290565Y-94112670D01*
X237242037Y-94040043D01*
X237208610Y-93959344D01*
X237191570Y-93873674D01*
X237191570Y-93786326D01*
X237208610Y-93700656D01*
X237242037Y-93619957D01*
X237290565Y-93547330D01*
X237352330Y-93485565D01*
X237424957Y-93437037D01*
X237505656Y-93403610D01*
X237591326Y-93386570D01*
X237678674Y-93386570D01*
X237764344Y-93403610D01*
X237764344Y-93403610D01*
G37*
G36*
X236494344Y-93403610D02*
G01*
X236575043Y-93437037D01*
X236647670Y-93485565D01*
X236709435Y-93547330D01*
X236757963Y-93619957D01*
X236791390Y-93700656D01*
X236808430Y-93786326D01*
X236808430Y-93873674D01*
X236791390Y-93959344D01*
X236757963Y-94040043D01*
X236709435Y-94112670D01*
X236647670Y-94174435D01*
X236575043Y-94222963D01*
X236494344Y-94256390D01*
X236408674Y-94273430D01*
X236321326Y-94273430D01*
X236235656Y-94256390D01*
X236154957Y-94222963D01*
X236082330Y-94174435D01*
X236020565Y-94112670D01*
X235972037Y-94040043D01*
X235938610Y-93959344D01*
X235921570Y-93873674D01*
X235921570Y-93786326D01*
X235938610Y-93700656D01*
X235972037Y-93619957D01*
X236020565Y-93547330D01*
X236082330Y-93485565D01*
X236154957Y-93437037D01*
X236235656Y-93403610D01*
X236321326Y-93386570D01*
X236408674Y-93386570D01*
X236494344Y-93403610D01*
X236494344Y-93403610D01*
G37*
G36*
X115548228Y-91631703D02*
G01*
X115703100Y-91695853D01*
X115842481Y-91788985D01*
X115961015Y-91907519D01*
X116054147Y-92046900D01*
X116118297Y-92201772D01*
X116151000Y-92366184D01*
X116151000Y-92533816D01*
X116118297Y-92698228D01*
X116054147Y-92853100D01*
X115961015Y-92992481D01*
X115842481Y-93111015D01*
X115703100Y-93204147D01*
X115548228Y-93268297D01*
X115383816Y-93301000D01*
X115216184Y-93301000D01*
X115051772Y-93268297D01*
X114896900Y-93204147D01*
X114757519Y-93111015D01*
X114638985Y-92992481D01*
X114545853Y-92853100D01*
X114481703Y-92698228D01*
X114449000Y-92533816D01*
X114449000Y-92366184D01*
X114481703Y-92201772D01*
X114545853Y-92046900D01*
X114638985Y-91907519D01*
X114757519Y-91788985D01*
X114896900Y-91695853D01*
X115051772Y-91631703D01*
X115216184Y-91599000D01*
X115383816Y-91599000D01*
X115548228Y-91631703D01*
X115548228Y-91631703D01*
G37*
G36*
X120648228Y-91631703D02*
G01*
X120803100Y-91695853D01*
X120942481Y-91788985D01*
X121061015Y-91907519D01*
X121154147Y-92046900D01*
X121218297Y-92201772D01*
X121251000Y-92366184D01*
X121251000Y-92533816D01*
X121218297Y-92698228D01*
X121154147Y-92853100D01*
X121061015Y-92992481D01*
X120942481Y-93111015D01*
X120803100Y-93204147D01*
X120648228Y-93268297D01*
X120483816Y-93301000D01*
X120316184Y-93301000D01*
X120151772Y-93268297D01*
X119996900Y-93204147D01*
X119857519Y-93111015D01*
X119738985Y-92992481D01*
X119645853Y-92853100D01*
X119581703Y-92698228D01*
X119549000Y-92533816D01*
X119549000Y-92366184D01*
X119581703Y-92201772D01*
X119645853Y-92046900D01*
X119738985Y-91907519D01*
X119857519Y-91788985D01*
X119996900Y-91695853D01*
X120151772Y-91631703D01*
X120316184Y-91599000D01*
X120483816Y-91599000D01*
X120648228Y-91631703D01*
X120648228Y-91631703D01*
G37*
G36*
X237102527Y-92024686D02*
G01*
X237158979Y-92035915D01*
X237185499Y-92046900D01*
X237258170Y-92077001D01*
X237347434Y-92136645D01*
X237423355Y-92212566D01*
X237482999Y-92301830D01*
X237494907Y-92330580D01*
X237524085Y-92401021D01*
X237545030Y-92506319D01*
X237545030Y-92613681D01*
X237528213Y-92698228D01*
X237524085Y-92718978D01*
X237482999Y-92818170D01*
X237423355Y-92907434D01*
X237347434Y-92983355D01*
X237258170Y-93042999D01*
X237192042Y-93070390D01*
X237158979Y-93084085D01*
X237106330Y-93094557D01*
X237053682Y-93105030D01*
X236946318Y-93105030D01*
X236893670Y-93094558D01*
X236841021Y-93084085D01*
X236807958Y-93070390D01*
X236741830Y-93042999D01*
X236652566Y-92983355D01*
X236576645Y-92907434D01*
X236517001Y-92818170D01*
X236475915Y-92718978D01*
X236471788Y-92698228D01*
X236454970Y-92613681D01*
X236454970Y-92506319D01*
X236475915Y-92401021D01*
X236505093Y-92330580D01*
X236517001Y-92301830D01*
X236576645Y-92212566D01*
X236652566Y-92136645D01*
X236741830Y-92077001D01*
X236814501Y-92046900D01*
X236841021Y-92035915D01*
X236897473Y-92024686D01*
X236946318Y-92014970D01*
X237053682Y-92014970D01*
X237102527Y-92024686D01*
X237102527Y-92024686D01*
G37*
G36*
X232054591Y-91888084D02*
G01*
X232088569Y-91898392D01*
X232119890Y-91915133D01*
X232147339Y-91937660D01*
X232169866Y-91965109D01*
X232186607Y-91996430D01*
X232196915Y-92030408D01*
X232201000Y-92071889D01*
X232201000Y-92748109D01*
X232196915Y-92789590D01*
X232186607Y-92823568D01*
X232169866Y-92854889D01*
X232147339Y-92882338D01*
X232119890Y-92904865D01*
X232088569Y-92921606D01*
X232054591Y-92931914D01*
X232013110Y-92935999D01*
X231411890Y-92935999D01*
X231370409Y-92931914D01*
X231336431Y-92921606D01*
X231305110Y-92904865D01*
X231277661Y-92882338D01*
X231255134Y-92854889D01*
X231238393Y-92823568D01*
X231228085Y-92789590D01*
X231224000Y-92748109D01*
X231224000Y-92071889D01*
X231228085Y-92030408D01*
X231238393Y-91996430D01*
X231255134Y-91965109D01*
X231277661Y-91937660D01*
X231305110Y-91915133D01*
X231336431Y-91898392D01*
X231370409Y-91888084D01*
X231411890Y-91883999D01*
X232013110Y-91883999D01*
X232054591Y-91888084D01*
X232054591Y-91888084D01*
G37*
G36*
X233629591Y-91888084D02*
G01*
X233663569Y-91898392D01*
X233694890Y-91915133D01*
X233722339Y-91937660D01*
X233744866Y-91965109D01*
X233761607Y-91996430D01*
X233771915Y-92030408D01*
X233776000Y-92071889D01*
X233776000Y-92748109D01*
X233771915Y-92789590D01*
X233761607Y-92823568D01*
X233744866Y-92854889D01*
X233722339Y-92882338D01*
X233694890Y-92904865D01*
X233663569Y-92921606D01*
X233629591Y-92931914D01*
X233588110Y-92935999D01*
X232986890Y-92935999D01*
X232945409Y-92931914D01*
X232911431Y-92921606D01*
X232880110Y-92904865D01*
X232852661Y-92882338D01*
X232830134Y-92854889D01*
X232813393Y-92823568D01*
X232803085Y-92789590D01*
X232799000Y-92748109D01*
X232799000Y-92071889D01*
X232803085Y-92030408D01*
X232813393Y-91996430D01*
X232830134Y-91965109D01*
X232852661Y-91937660D01*
X232880110Y-91915133D01*
X232911431Y-91898392D01*
X232945409Y-91888084D01*
X232986890Y-91883999D01*
X233588110Y-91883999D01*
X233629591Y-91888084D01*
X233629591Y-91888084D01*
G37*
G36*
X112253097Y-87174069D02*
G01*
X112356032Y-87184207D01*
X112554146Y-87244305D01*
X112554149Y-87244306D01*
X112649628Y-87295341D01*
X112736729Y-87341897D01*
X112896765Y-87473235D01*
X113028103Y-87633271D01*
X113073939Y-87719025D01*
X113125694Y-87815851D01*
X113125695Y-87815854D01*
X113185793Y-88013968D01*
X113206085Y-88220000D01*
X113185793Y-88426032D01*
X113148956Y-88547466D01*
X113125694Y-88624149D01*
X113090483Y-88690024D01*
X113028103Y-88806729D01*
X112896765Y-88966765D01*
X112736729Y-89098103D01*
X112650975Y-89143939D01*
X112554149Y-89195694D01*
X112554146Y-89195695D01*
X112356032Y-89255793D01*
X112253097Y-89265931D01*
X112201631Y-89271000D01*
X111098369Y-89271000D01*
X111046903Y-89265931D01*
X110943968Y-89255793D01*
X110745854Y-89195695D01*
X110745851Y-89195694D01*
X110649025Y-89143939D01*
X110563271Y-89098103D01*
X110403235Y-88966765D01*
X110271897Y-88806729D01*
X110209517Y-88690024D01*
X110174306Y-88624149D01*
X110151044Y-88547466D01*
X110114207Y-88426032D01*
X110093915Y-88220000D01*
X110114207Y-88013968D01*
X110174305Y-87815854D01*
X110174306Y-87815851D01*
X110226061Y-87719025D01*
X110271897Y-87633271D01*
X110403235Y-87473235D01*
X110563271Y-87341897D01*
X110650372Y-87295341D01*
X110745851Y-87244306D01*
X110745854Y-87244305D01*
X110943968Y-87184207D01*
X111046903Y-87174069D01*
X111098369Y-87169000D01*
X112201631Y-87169000D01*
X112253097Y-87174069D01*
X112253097Y-87174069D01*
G37*
G36*
X193099283Y-86543968D02*
G01*
X193114903Y-86547075D01*
X193342571Y-86641378D01*
X193547466Y-86778285D01*
X193721715Y-86952534D01*
X193856428Y-87154146D01*
X193858623Y-87157431D01*
X193952925Y-87385097D01*
X194001000Y-87626786D01*
X194001000Y-87873214D01*
X193952925Y-88114903D01*
X193868678Y-88318295D01*
X193858622Y-88342571D01*
X193721715Y-88547466D01*
X193547466Y-88721715D01*
X193342571Y-88858622D01*
X193342570Y-88858623D01*
X193342569Y-88858623D01*
X193114903Y-88952925D01*
X192873214Y-89001000D01*
X192626786Y-89001000D01*
X192385097Y-88952925D01*
X192157431Y-88858623D01*
X192157430Y-88858623D01*
X192157429Y-88858622D01*
X191952534Y-88721715D01*
X191778285Y-88547466D01*
X191641378Y-88342571D01*
X191631323Y-88318295D01*
X191547075Y-88114903D01*
X191499000Y-87873214D01*
X191499000Y-87626786D01*
X191547075Y-87385097D01*
X191641377Y-87157431D01*
X191643572Y-87154146D01*
X191778285Y-86952534D01*
X191952534Y-86778285D01*
X192157429Y-86641378D01*
X192385097Y-86547075D01*
X192400717Y-86543968D01*
X192626786Y-86499000D01*
X192873214Y-86499000D01*
X193099283Y-86543968D01*
X193099283Y-86543968D01*
G37*
G36*
X210099283Y-86543968D02*
G01*
X210114903Y-86547075D01*
X210342571Y-86641378D01*
X210547466Y-86778285D01*
X210721715Y-86952534D01*
X210856428Y-87154146D01*
X210858623Y-87157431D01*
X210952925Y-87385097D01*
X211001000Y-87626786D01*
X211001000Y-87873214D01*
X210952925Y-88114903D01*
X210868678Y-88318295D01*
X210858622Y-88342571D01*
X210721715Y-88547466D01*
X210547466Y-88721715D01*
X210342571Y-88858622D01*
X210342570Y-88858623D01*
X210342569Y-88858623D01*
X210114903Y-88952925D01*
X209873214Y-89001000D01*
X209626786Y-89001000D01*
X209385097Y-88952925D01*
X209157431Y-88858623D01*
X209157430Y-88858623D01*
X209157429Y-88858622D01*
X208952534Y-88721715D01*
X208778285Y-88547466D01*
X208641378Y-88342571D01*
X208631323Y-88318295D01*
X208547075Y-88114903D01*
X208499000Y-87873214D01*
X208499000Y-87626786D01*
X208547075Y-87385097D01*
X208641377Y-87157431D01*
X208643572Y-87154146D01*
X208778285Y-86952534D01*
X208952534Y-86778285D01*
X209157429Y-86641378D01*
X209385097Y-86547075D01*
X209400717Y-86543968D01*
X209626786Y-86499000D01*
X209873214Y-86499000D01*
X210099283Y-86543968D01*
X210099283Y-86543968D01*
G37*
G36*
X135842304Y-86792785D02*
G01*
X134407215Y-88842304D01*
X132357696Y-87407215D01*
X133792785Y-85357696D01*
X135842304Y-86792785D01*
X135842304Y-86792785D01*
G37*
G36*
X176146823Y-87061313D02*
G01*
X176307242Y-87109976D01*
X176396020Y-87157429D01*
X176455078Y-87188996D01*
X176584659Y-87295341D01*
X176691004Y-87424922D01*
X176691005Y-87424924D01*
X176770024Y-87572758D01*
X176818687Y-87733177D01*
X176835117Y-87900000D01*
X176818687Y-88066823D01*
X176770024Y-88227242D01*
X176755642Y-88254148D01*
X176691004Y-88375078D01*
X176584659Y-88504659D01*
X176455078Y-88611004D01*
X176455076Y-88611005D01*
X176307242Y-88690024D01*
X176146823Y-88738687D01*
X176021804Y-88751000D01*
X175938196Y-88751000D01*
X175813177Y-88738687D01*
X175652758Y-88690024D01*
X175504924Y-88611005D01*
X175504922Y-88611004D01*
X175375341Y-88504659D01*
X175268996Y-88375078D01*
X175204358Y-88254148D01*
X175189976Y-88227242D01*
X175141313Y-88066823D01*
X175124883Y-87900000D01*
X175141313Y-87733177D01*
X175189976Y-87572758D01*
X175268995Y-87424924D01*
X175268996Y-87424922D01*
X175375341Y-87295341D01*
X175504922Y-87188996D01*
X175563980Y-87157429D01*
X175652758Y-87109976D01*
X175813177Y-87061313D01*
X175938196Y-87049000D01*
X176021804Y-87049000D01*
X176146823Y-87061313D01*
X176146823Y-87061313D01*
G37*
G36*
X184451000Y-88751000D02*
G01*
X182749000Y-88751000D01*
X182749000Y-87049000D01*
X184451000Y-87049000D01*
X184451000Y-88751000D01*
X184451000Y-88751000D01*
G37*
G36*
X229748228Y-86681703D02*
G01*
X229903100Y-86745853D01*
X230042481Y-86838985D01*
X230161015Y-86957519D01*
X230254147Y-87096900D01*
X230318297Y-87251772D01*
X230351000Y-87416184D01*
X230351000Y-87583816D01*
X230318297Y-87748228D01*
X230254147Y-87903100D01*
X230161015Y-88042481D01*
X230042481Y-88161015D01*
X229903100Y-88254147D01*
X229748228Y-88318297D01*
X229583816Y-88351000D01*
X229416184Y-88351000D01*
X229251772Y-88318297D01*
X229096900Y-88254147D01*
X228957519Y-88161015D01*
X228838985Y-88042481D01*
X228745853Y-87903100D01*
X228681703Y-87748228D01*
X228649000Y-87583816D01*
X228649000Y-87416184D01*
X228681703Y-87251772D01*
X228745853Y-87096900D01*
X228838985Y-86957519D01*
X228957519Y-86838985D01*
X229096900Y-86745853D01*
X229251772Y-86681703D01*
X229416184Y-86649000D01*
X229583816Y-86649000D01*
X229748228Y-86681703D01*
X229748228Y-86681703D01*
G37*
G36*
X236478097Y-85704069D02*
G01*
X236581032Y-85714207D01*
X236768251Y-85771000D01*
X236779149Y-85774306D01*
X236875975Y-85826061D01*
X236961729Y-85871897D01*
X237121765Y-86003235D01*
X237253103Y-86163271D01*
X237298939Y-86249025D01*
X237350694Y-86345851D01*
X237350695Y-86345854D01*
X237410793Y-86543968D01*
X237431085Y-86750000D01*
X237410793Y-86956032D01*
X237364094Y-87109975D01*
X237350694Y-87154149D01*
X237302504Y-87244305D01*
X237253103Y-87336729D01*
X237121765Y-87496765D01*
X236961729Y-87628103D01*
X236952058Y-87633272D01*
X236779149Y-87725694D01*
X236779146Y-87725695D01*
X236581032Y-87785793D01*
X236478097Y-87795931D01*
X236426631Y-87801000D01*
X235323369Y-87801000D01*
X235271903Y-87795931D01*
X235168968Y-87785793D01*
X234970854Y-87725695D01*
X234970851Y-87725694D01*
X234797942Y-87633272D01*
X234788271Y-87628103D01*
X234628235Y-87496765D01*
X234496897Y-87336729D01*
X234447496Y-87244305D01*
X234399306Y-87154149D01*
X234385906Y-87109975D01*
X234339207Y-86956032D01*
X234318915Y-86750000D01*
X234339207Y-86543968D01*
X234399305Y-86345854D01*
X234399306Y-86345851D01*
X234451061Y-86249025D01*
X234496897Y-86163271D01*
X234628235Y-86003235D01*
X234788271Y-85871897D01*
X234874025Y-85826061D01*
X234970851Y-85774306D01*
X234981749Y-85771000D01*
X235168968Y-85714207D01*
X235271903Y-85704069D01*
X235323369Y-85699000D01*
X236426631Y-85699000D01*
X236478097Y-85704069D01*
X236478097Y-85704069D01*
G37*
G36*
X183766823Y-84521313D02*
G01*
X183927242Y-84569976D01*
X184059906Y-84640886D01*
X184075078Y-84648996D01*
X184204659Y-84755341D01*
X184311004Y-84884922D01*
X184311005Y-84884924D01*
X184390024Y-85032758D01*
X184438687Y-85193177D01*
X184455117Y-85360000D01*
X184438687Y-85526823D01*
X184390024Y-85687242D01*
X184345254Y-85771000D01*
X184311004Y-85835078D01*
X184204659Y-85964659D01*
X184075078Y-86071004D01*
X184075076Y-86071005D01*
X183927242Y-86150024D01*
X183766823Y-86198687D01*
X183641804Y-86211000D01*
X183558196Y-86211000D01*
X183433177Y-86198687D01*
X183272758Y-86150024D01*
X183124924Y-86071005D01*
X183124922Y-86071004D01*
X182995341Y-85964659D01*
X182888996Y-85835078D01*
X182854746Y-85771000D01*
X182809976Y-85687242D01*
X182761313Y-85526823D01*
X182744883Y-85360000D01*
X182761313Y-85193177D01*
X182809976Y-85032758D01*
X182888995Y-84884924D01*
X182888996Y-84884922D01*
X182995341Y-84755341D01*
X183124922Y-84648996D01*
X183140094Y-84640886D01*
X183272758Y-84569976D01*
X183433177Y-84521313D01*
X183558196Y-84509000D01*
X183641804Y-84509000D01*
X183766823Y-84521313D01*
X183766823Y-84521313D01*
G37*
G36*
X176146823Y-84521313D02*
G01*
X176307242Y-84569976D01*
X176439906Y-84640886D01*
X176455078Y-84648996D01*
X176584659Y-84755341D01*
X176691004Y-84884922D01*
X176691005Y-84884924D01*
X176770024Y-85032758D01*
X176818687Y-85193177D01*
X176835117Y-85360000D01*
X176818687Y-85526823D01*
X176770024Y-85687242D01*
X176725254Y-85771000D01*
X176691004Y-85835078D01*
X176584659Y-85964659D01*
X176455078Y-86071004D01*
X176455076Y-86071005D01*
X176307242Y-86150024D01*
X176146823Y-86198687D01*
X176021804Y-86211000D01*
X175938196Y-86211000D01*
X175813177Y-86198687D01*
X175652758Y-86150024D01*
X175504924Y-86071005D01*
X175504922Y-86071004D01*
X175375341Y-85964659D01*
X175268996Y-85835078D01*
X175234746Y-85771000D01*
X175189976Y-85687242D01*
X175141313Y-85526823D01*
X175124883Y-85360000D01*
X175141313Y-85193177D01*
X175189976Y-85032758D01*
X175268995Y-84884924D01*
X175268996Y-84884922D01*
X175375341Y-84755341D01*
X175504922Y-84648996D01*
X175520094Y-84640886D01*
X175652758Y-84569976D01*
X175813177Y-84521313D01*
X175938196Y-84509000D01*
X176021804Y-84509000D01*
X176146823Y-84521313D01*
X176146823Y-84521313D01*
G37*
G36*
X107253097Y-83674069D02*
G01*
X107356032Y-83684207D01*
X107554146Y-83744305D01*
X107554149Y-83744306D01*
X107650975Y-83796061D01*
X107736729Y-83841897D01*
X107896765Y-83973235D01*
X108028103Y-84133271D01*
X108073939Y-84219025D01*
X108125694Y-84315851D01*
X108125695Y-84315854D01*
X108185793Y-84513968D01*
X108206085Y-84720000D01*
X108185793Y-84926032D01*
X108125695Y-85124146D01*
X108125694Y-85124149D01*
X108073939Y-85220975D01*
X108028103Y-85306729D01*
X107896765Y-85466765D01*
X107736729Y-85598103D01*
X107650975Y-85643939D01*
X107554149Y-85695694D01*
X107554146Y-85695695D01*
X107356032Y-85755793D01*
X107253097Y-85765931D01*
X107201631Y-85771000D01*
X106098369Y-85771000D01*
X106046903Y-85765931D01*
X105943968Y-85755793D01*
X105745854Y-85695695D01*
X105745851Y-85695694D01*
X105649025Y-85643939D01*
X105563271Y-85598103D01*
X105403235Y-85466765D01*
X105271897Y-85306729D01*
X105226061Y-85220975D01*
X105174306Y-85124149D01*
X105174305Y-85124146D01*
X105114207Y-84926032D01*
X105093915Y-84720000D01*
X105114207Y-84513968D01*
X105174305Y-84315854D01*
X105174306Y-84315851D01*
X105226061Y-84219025D01*
X105271897Y-84133271D01*
X105403235Y-83973235D01*
X105563271Y-83841897D01*
X105649025Y-83796061D01*
X105745851Y-83744306D01*
X105745854Y-83744305D01*
X105943968Y-83684207D01*
X106046903Y-83674069D01*
X106098369Y-83669000D01*
X107201631Y-83669000D01*
X107253097Y-83674069D01*
X107253097Y-83674069D01*
G37*
G36*
X149732585Y-81368802D02*
G01*
X149882410Y-81398604D01*
X150164674Y-81515521D01*
X150418705Y-81685259D01*
X150634741Y-81901295D01*
X150804479Y-82155326D01*
X150921396Y-82437590D01*
X150940409Y-82533175D01*
X150981000Y-82737239D01*
X150981000Y-83042761D01*
X150957478Y-83161015D01*
X150921396Y-83342410D01*
X150804479Y-83624674D01*
X150634741Y-83878705D01*
X150418705Y-84094741D01*
X150164674Y-84264479D01*
X149882410Y-84381396D01*
X149732585Y-84411198D01*
X149582761Y-84441000D01*
X149277239Y-84441000D01*
X149127415Y-84411198D01*
X148977590Y-84381396D01*
X148695326Y-84264479D01*
X148441295Y-84094741D01*
X148225259Y-83878705D01*
X148055521Y-83624674D01*
X147938604Y-83342410D01*
X147902522Y-83161015D01*
X147879000Y-83042761D01*
X147879000Y-82737239D01*
X147919591Y-82533175D01*
X147938604Y-82437590D01*
X148055521Y-82155326D01*
X148225259Y-81901295D01*
X148441295Y-81685259D01*
X148695326Y-81515521D01*
X148977590Y-81398604D01*
X149127415Y-81368802D01*
X149277239Y-81339000D01*
X149582761Y-81339000D01*
X149732585Y-81368802D01*
X149732585Y-81368802D01*
G37*
G36*
X154812585Y-81368802D02*
G01*
X154962410Y-81398604D01*
X155244674Y-81515521D01*
X155498705Y-81685259D01*
X155714741Y-81901295D01*
X155884479Y-82155326D01*
X156001396Y-82437590D01*
X156020409Y-82533175D01*
X156061000Y-82737239D01*
X156061000Y-83042761D01*
X156037478Y-83161015D01*
X156001396Y-83342410D01*
X155884479Y-83624674D01*
X155714741Y-83878705D01*
X155498705Y-84094741D01*
X155244674Y-84264479D01*
X154962410Y-84381396D01*
X154812585Y-84411198D01*
X154662761Y-84441000D01*
X154357239Y-84441000D01*
X154207415Y-84411198D01*
X154057590Y-84381396D01*
X153775326Y-84264479D01*
X153521295Y-84094741D01*
X153305259Y-83878705D01*
X153135521Y-83624674D01*
X153018604Y-83342410D01*
X152982522Y-83161015D01*
X152959000Y-83042761D01*
X152959000Y-82737239D01*
X152999591Y-82533175D01*
X153018604Y-82437590D01*
X153135521Y-82155326D01*
X153305259Y-81901295D01*
X153521295Y-81685259D01*
X153775326Y-81515521D01*
X154057590Y-81398604D01*
X154207415Y-81368802D01*
X154357239Y-81339000D01*
X154662761Y-81339000D01*
X154812585Y-81368802D01*
X154812585Y-81368802D01*
G37*
G36*
X164972585Y-81368802D02*
G01*
X165122410Y-81398604D01*
X165404674Y-81515521D01*
X165658705Y-81685259D01*
X165874741Y-81901295D01*
X166044479Y-82155326D01*
X166161396Y-82437590D01*
X166180409Y-82533175D01*
X166221000Y-82737239D01*
X166221000Y-83042761D01*
X166197478Y-83161015D01*
X166161396Y-83342410D01*
X166044479Y-83624674D01*
X165874741Y-83878705D01*
X165658705Y-84094741D01*
X165404674Y-84264479D01*
X165122410Y-84381396D01*
X164972585Y-84411198D01*
X164822761Y-84441000D01*
X164517239Y-84441000D01*
X164367415Y-84411198D01*
X164217590Y-84381396D01*
X163935326Y-84264479D01*
X163681295Y-84094741D01*
X163465259Y-83878705D01*
X163295521Y-83624674D01*
X163178604Y-83342410D01*
X163142522Y-83161015D01*
X163119000Y-83042761D01*
X163119000Y-82737239D01*
X163159591Y-82533175D01*
X163178604Y-82437590D01*
X163295521Y-82155326D01*
X163465259Y-81901295D01*
X163681295Y-81685259D01*
X163935326Y-81515521D01*
X164217590Y-81398604D01*
X164367415Y-81368802D01*
X164517239Y-81339000D01*
X164822761Y-81339000D01*
X164972585Y-81368802D01*
X164972585Y-81368802D01*
G37*
G36*
X159892585Y-81368802D02*
G01*
X160042410Y-81398604D01*
X160324674Y-81515521D01*
X160578705Y-81685259D01*
X160794741Y-81901295D01*
X160964479Y-82155326D01*
X161081396Y-82437590D01*
X161100409Y-82533175D01*
X161141000Y-82737239D01*
X161141000Y-83042761D01*
X161117478Y-83161015D01*
X161081396Y-83342410D01*
X160964479Y-83624674D01*
X160794741Y-83878705D01*
X160578705Y-84094741D01*
X160324674Y-84264479D01*
X160042410Y-84381396D01*
X159892585Y-84411198D01*
X159742761Y-84441000D01*
X159437239Y-84441000D01*
X159287415Y-84411198D01*
X159137590Y-84381396D01*
X158855326Y-84264479D01*
X158601295Y-84094741D01*
X158385259Y-83878705D01*
X158215521Y-83624674D01*
X158098604Y-83342410D01*
X158062522Y-83161015D01*
X158039000Y-83042761D01*
X158039000Y-82737239D01*
X158079591Y-82533175D01*
X158098604Y-82437590D01*
X158215521Y-82155326D01*
X158385259Y-81901295D01*
X158601295Y-81685259D01*
X158855326Y-81515521D01*
X159137590Y-81398604D01*
X159287415Y-81368802D01*
X159437239Y-81339000D01*
X159742761Y-81339000D01*
X159892585Y-81368802D01*
X159892585Y-81368802D01*
G37*
G36*
X144652585Y-81368802D02*
G01*
X144802410Y-81398604D01*
X145084674Y-81515521D01*
X145338705Y-81685259D01*
X145554741Y-81901295D01*
X145724479Y-82155326D01*
X145841396Y-82437590D01*
X145860409Y-82533175D01*
X145901000Y-82737239D01*
X145901000Y-83042761D01*
X145877478Y-83161015D01*
X145841396Y-83342410D01*
X145724479Y-83624674D01*
X145554741Y-83878705D01*
X145338705Y-84094741D01*
X145084674Y-84264479D01*
X144802410Y-84381396D01*
X144652585Y-84411198D01*
X144502761Y-84441000D01*
X144197239Y-84441000D01*
X144047415Y-84411198D01*
X143897590Y-84381396D01*
X143615326Y-84264479D01*
X143361295Y-84094741D01*
X143145259Y-83878705D01*
X142975521Y-83624674D01*
X142858604Y-83342410D01*
X142822522Y-83161015D01*
X142799000Y-83042761D01*
X142799000Y-82737239D01*
X142839591Y-82533175D01*
X142858604Y-82437590D01*
X142975521Y-82155326D01*
X143145259Y-81901295D01*
X143361295Y-81685259D01*
X143615326Y-81515521D01*
X143897590Y-81398604D01*
X144047415Y-81368802D01*
X144197239Y-81339000D01*
X144502761Y-81339000D01*
X144652585Y-81368802D01*
X144652585Y-81368802D01*
G37*
G36*
X241478097Y-82204069D02*
G01*
X241581032Y-82214207D01*
X241768251Y-82271000D01*
X241779149Y-82274306D01*
X241806611Y-82288985D01*
X241961729Y-82371897D01*
X242121765Y-82503235D01*
X242253103Y-82663271D01*
X242273682Y-82701772D01*
X242350694Y-82845851D01*
X242350695Y-82845854D01*
X242410793Y-83043968D01*
X242431085Y-83250000D01*
X242410793Y-83456032D01*
X242381984Y-83551000D01*
X242350694Y-83654149D01*
X242323969Y-83704147D01*
X242253103Y-83836729D01*
X242121765Y-83996765D01*
X241961729Y-84128103D01*
X241952058Y-84133272D01*
X241779149Y-84225694D01*
X241779146Y-84225695D01*
X241581032Y-84285793D01*
X241478097Y-84295931D01*
X241426631Y-84301000D01*
X240323369Y-84301000D01*
X240271903Y-84295931D01*
X240168968Y-84285793D01*
X239970854Y-84225695D01*
X239970851Y-84225694D01*
X239797942Y-84133272D01*
X239788271Y-84128103D01*
X239628235Y-83996765D01*
X239496897Y-83836729D01*
X239426031Y-83704147D01*
X239399306Y-83654149D01*
X239368016Y-83551000D01*
X239339207Y-83456032D01*
X239318915Y-83250000D01*
X239339207Y-83043968D01*
X239399305Y-82845854D01*
X239399306Y-82845851D01*
X239476318Y-82701772D01*
X239496897Y-82663271D01*
X239628235Y-82503235D01*
X239788271Y-82371897D01*
X239943389Y-82288985D01*
X239970851Y-82274306D01*
X239981749Y-82271000D01*
X240168968Y-82214207D01*
X240271903Y-82204069D01*
X240323369Y-82199000D01*
X241426631Y-82199000D01*
X241478097Y-82204069D01*
X241478097Y-82204069D01*
G37*
G36*
X122548228Y-82131703D02*
G01*
X122703100Y-82195853D01*
X122842481Y-82288985D01*
X122961015Y-82407519D01*
X123054147Y-82546900D01*
X123118297Y-82701772D01*
X123151000Y-82866184D01*
X123151000Y-83033816D01*
X123118297Y-83198228D01*
X123054147Y-83353100D01*
X122961015Y-83492481D01*
X122842481Y-83611015D01*
X122703100Y-83704147D01*
X122548228Y-83768297D01*
X122383816Y-83801000D01*
X122216184Y-83801000D01*
X122051772Y-83768297D01*
X121896900Y-83704147D01*
X121757519Y-83611015D01*
X121638985Y-83492481D01*
X121545853Y-83353100D01*
X121481703Y-83198228D01*
X121449000Y-83033816D01*
X121449000Y-82866184D01*
X121481703Y-82701772D01*
X121545853Y-82546900D01*
X121638985Y-82407519D01*
X121757519Y-82288985D01*
X121896900Y-82195853D01*
X122051772Y-82131703D01*
X122216184Y-82099000D01*
X122383816Y-82099000D01*
X122548228Y-82131703D01*
X122548228Y-82131703D01*
G37*
G36*
X117448228Y-82131703D02*
G01*
X117603100Y-82195853D01*
X117742481Y-82288985D01*
X117861015Y-82407519D01*
X117954147Y-82546900D01*
X118018297Y-82701772D01*
X118051000Y-82866184D01*
X118051000Y-83033816D01*
X118018297Y-83198228D01*
X117954147Y-83353100D01*
X117861015Y-83492481D01*
X117742481Y-83611015D01*
X117603100Y-83704147D01*
X117448228Y-83768297D01*
X117283816Y-83801000D01*
X117116184Y-83801000D01*
X116951772Y-83768297D01*
X116796900Y-83704147D01*
X116657519Y-83611015D01*
X116538985Y-83492481D01*
X116445853Y-83353100D01*
X116381703Y-83198228D01*
X116349000Y-83033816D01*
X116349000Y-82866184D01*
X116381703Y-82701772D01*
X116445853Y-82546900D01*
X116538985Y-82407519D01*
X116657519Y-82288985D01*
X116796900Y-82195853D01*
X116951772Y-82131703D01*
X117116184Y-82099000D01*
X117283816Y-82099000D01*
X117448228Y-82131703D01*
X117448228Y-82131703D01*
G37*
G36*
X176146823Y-81861313D02*
G01*
X176307242Y-81909976D01*
X176439906Y-81980886D01*
X176455078Y-81988996D01*
X176584659Y-82095341D01*
X176691004Y-82224922D01*
X176691005Y-82224924D01*
X176770024Y-82372758D01*
X176818687Y-82533177D01*
X176835117Y-82700000D01*
X176818687Y-82866823D01*
X176770024Y-83027242D01*
X176699114Y-83159906D01*
X176691004Y-83175078D01*
X176584659Y-83304659D01*
X176455078Y-83411004D01*
X176455076Y-83411005D01*
X176307242Y-83490024D01*
X176307239Y-83490025D01*
X176277380Y-83499083D01*
X176146823Y-83538687D01*
X176021804Y-83551000D01*
X175938196Y-83551000D01*
X175813177Y-83538687D01*
X175682620Y-83499083D01*
X175652761Y-83490025D01*
X175652758Y-83490024D01*
X175504924Y-83411005D01*
X175504922Y-83411004D01*
X175375341Y-83304659D01*
X175268996Y-83175078D01*
X175260886Y-83159906D01*
X175189976Y-83027242D01*
X175141313Y-82866823D01*
X175124883Y-82700000D01*
X175141313Y-82533177D01*
X175189976Y-82372758D01*
X175268995Y-82224924D01*
X175268996Y-82224922D01*
X175375341Y-82095341D01*
X175504922Y-81988996D01*
X175520094Y-81980886D01*
X175652758Y-81909976D01*
X175813177Y-81861313D01*
X175938196Y-81849000D01*
X176021804Y-81849000D01*
X176146823Y-81861313D01*
X176146823Y-81861313D01*
G37*
G36*
X184451000Y-83551000D02*
G01*
X182749000Y-83551000D01*
X182749000Y-81849000D01*
X184451000Y-81849000D01*
X184451000Y-83551000D01*
X184451000Y-83551000D01*
G37*
G36*
X229748228Y-81681703D02*
G01*
X229903100Y-81745853D01*
X230042481Y-81838985D01*
X230161015Y-81957519D01*
X230254147Y-82096900D01*
X230318297Y-82251772D01*
X230351000Y-82416184D01*
X230351000Y-82583816D01*
X230318297Y-82748228D01*
X230254147Y-82903100D01*
X230161015Y-83042481D01*
X230042481Y-83161015D01*
X229903100Y-83254147D01*
X229748228Y-83318297D01*
X229583816Y-83351000D01*
X229416184Y-83351000D01*
X229251772Y-83318297D01*
X229096900Y-83254147D01*
X228957519Y-83161015D01*
X228838985Y-83042481D01*
X228745853Y-82903100D01*
X228681703Y-82748228D01*
X228649000Y-82583816D01*
X228649000Y-82416184D01*
X228681703Y-82251772D01*
X228745853Y-82096900D01*
X228838985Y-81957519D01*
X228957519Y-81838985D01*
X229096900Y-81745853D01*
X229251772Y-81681703D01*
X229416184Y-81649000D01*
X229583816Y-81649000D01*
X229748228Y-81681703D01*
X229748228Y-81681703D01*
G37*
G36*
X112253097Y-80174069D02*
G01*
X112356032Y-80184207D01*
X112554146Y-80244305D01*
X112554149Y-80244306D01*
X112650975Y-80296061D01*
X112736729Y-80341897D01*
X112896765Y-80473235D01*
X113028103Y-80633271D01*
X113073939Y-80719025D01*
X113125694Y-80815851D01*
X113125695Y-80815854D01*
X113185793Y-81013968D01*
X113206085Y-81220000D01*
X113185793Y-81426032D01*
X113163633Y-81499082D01*
X113125694Y-81624149D01*
X113093030Y-81685259D01*
X113028103Y-81806729D01*
X112896765Y-81966765D01*
X112736729Y-82098103D01*
X112650975Y-82143939D01*
X112554149Y-82195694D01*
X112554146Y-82195695D01*
X112356032Y-82255793D01*
X112253097Y-82265931D01*
X112201631Y-82271000D01*
X111098369Y-82271000D01*
X111046903Y-82265931D01*
X110943968Y-82255793D01*
X110745854Y-82195695D01*
X110745851Y-82195694D01*
X110649025Y-82143939D01*
X110563271Y-82098103D01*
X110403235Y-81966765D01*
X110271897Y-81806729D01*
X110206970Y-81685259D01*
X110174306Y-81624149D01*
X110136367Y-81499082D01*
X110114207Y-81426032D01*
X110093915Y-81220000D01*
X110114207Y-81013968D01*
X110174305Y-80815854D01*
X110174306Y-80815851D01*
X110226061Y-80719025D01*
X110271897Y-80633271D01*
X110403235Y-80473235D01*
X110563271Y-80341897D01*
X110649025Y-80296061D01*
X110745851Y-80244306D01*
X110745854Y-80244305D01*
X110943968Y-80184207D01*
X111046903Y-80174069D01*
X111098369Y-80169000D01*
X112201631Y-80169000D01*
X112253097Y-80174069D01*
X112253097Y-80174069D01*
G37*
G36*
X137094072Y-78900918D02*
G01*
X137194415Y-78942481D01*
X137339939Y-79002759D01*
X137403457Y-79045201D01*
X137561211Y-79150609D01*
X137749391Y-79338789D01*
X137810123Y-79429680D01*
X137870476Y-79520004D01*
X137897242Y-79560063D01*
X137999082Y-79805928D01*
X138051000Y-80066937D01*
X138051000Y-80333063D01*
X137999082Y-80594072D01*
X137897242Y-80839937D01*
X137749391Y-81061211D01*
X137561211Y-81249391D01*
X137451328Y-81322813D01*
X137339939Y-81397241D01*
X137339938Y-81397242D01*
X137339937Y-81397242D01*
X137094072Y-81499082D01*
X136833063Y-81551000D01*
X136566937Y-81551000D01*
X136305928Y-81499082D01*
X136060063Y-81397242D01*
X136060062Y-81397242D01*
X136060061Y-81397241D01*
X135948672Y-81322813D01*
X135838789Y-81249391D01*
X135650609Y-81061211D01*
X135502758Y-80839937D01*
X135400918Y-80594072D01*
X135349000Y-80333063D01*
X135349000Y-80066937D01*
X135400918Y-79805928D01*
X135502758Y-79560063D01*
X135529525Y-79520004D01*
X135589877Y-79429680D01*
X135650609Y-79338789D01*
X135838789Y-79150609D01*
X135996543Y-79045201D01*
X136060061Y-79002759D01*
X136205586Y-78942481D01*
X136305928Y-78900918D01*
X136566937Y-78849000D01*
X136833063Y-78849000D01*
X137094072Y-78900918D01*
X137094072Y-78900918D01*
G37*
G36*
X210051000Y-81251000D02*
G01*
X208349000Y-81251000D01*
X208349000Y-79549000D01*
X210051000Y-79549000D01*
X210051000Y-81251000D01*
X210051000Y-81251000D01*
G37*
G36*
X183766823Y-79321313D02*
G01*
X183927242Y-79369976D01*
X184038940Y-79429680D01*
X184075078Y-79448996D01*
X184204659Y-79555341D01*
X184311004Y-79684922D01*
X184311005Y-79684924D01*
X184390024Y-79832758D01*
X184438687Y-79993177D01*
X184455117Y-80160000D01*
X184438687Y-80326823D01*
X184390024Y-80487242D01*
X184332922Y-80594072D01*
X184311004Y-80635078D01*
X184204659Y-80764659D01*
X184075078Y-80871004D01*
X184075076Y-80871005D01*
X183927242Y-80950024D01*
X183766823Y-80998687D01*
X183641804Y-81011000D01*
X183558196Y-81011000D01*
X183433177Y-80998687D01*
X183272758Y-80950024D01*
X183124924Y-80871005D01*
X183124922Y-80871004D01*
X182995341Y-80764659D01*
X182888996Y-80635078D01*
X182867078Y-80594072D01*
X182809976Y-80487242D01*
X182761313Y-80326823D01*
X182744883Y-80160000D01*
X182761313Y-79993177D01*
X182809976Y-79832758D01*
X182888995Y-79684924D01*
X182888996Y-79684922D01*
X182995341Y-79555341D01*
X183124922Y-79448996D01*
X183161060Y-79429680D01*
X183272758Y-79369976D01*
X183433177Y-79321313D01*
X183558196Y-79309000D01*
X183641804Y-79309000D01*
X183766823Y-79321313D01*
X183766823Y-79321313D01*
G37*
G36*
X176146823Y-79321313D02*
G01*
X176307242Y-79369976D01*
X176418940Y-79429680D01*
X176455078Y-79448996D01*
X176584659Y-79555341D01*
X176691004Y-79684922D01*
X176691005Y-79684924D01*
X176770024Y-79832758D01*
X176818687Y-79993177D01*
X176835117Y-80160000D01*
X176818687Y-80326823D01*
X176770024Y-80487242D01*
X176712922Y-80594072D01*
X176691004Y-80635078D01*
X176584659Y-80764659D01*
X176455078Y-80871004D01*
X176455076Y-80871005D01*
X176307242Y-80950024D01*
X176146823Y-80998687D01*
X176021804Y-81011000D01*
X175938196Y-81011000D01*
X175813177Y-80998687D01*
X175652758Y-80950024D01*
X175504924Y-80871005D01*
X175504922Y-80871004D01*
X175375341Y-80764659D01*
X175268996Y-80635078D01*
X175247078Y-80594072D01*
X175189976Y-80487242D01*
X175141313Y-80326823D01*
X175124883Y-80160000D01*
X175141313Y-79993177D01*
X175189976Y-79832758D01*
X175268995Y-79684924D01*
X175268996Y-79684922D01*
X175375341Y-79555341D01*
X175504922Y-79448996D01*
X175541060Y-79429680D01*
X175652758Y-79369976D01*
X175813177Y-79321313D01*
X175938196Y-79309000D01*
X176021804Y-79309000D01*
X176146823Y-79321313D01*
X176146823Y-79321313D01*
G37*
G36*
X198714903Y-78147075D02*
G01*
X198904707Y-78225694D01*
X198942571Y-78241378D01*
X199147466Y-78378285D01*
X199321715Y-78552534D01*
X199432690Y-78718619D01*
X199458623Y-78757431D01*
X199552925Y-78985097D01*
X199601000Y-79226786D01*
X199601000Y-79473214D01*
X199552925Y-79714903D01*
X199474972Y-79903100D01*
X199458622Y-79942571D01*
X199321715Y-80147466D01*
X199147466Y-80321715D01*
X198942571Y-80458622D01*
X198942570Y-80458623D01*
X198942569Y-80458623D01*
X198714903Y-80552925D01*
X198473214Y-80601000D01*
X198226786Y-80601000D01*
X197985097Y-80552925D01*
X197757431Y-80458623D01*
X197757430Y-80458623D01*
X197757429Y-80458622D01*
X197552534Y-80321715D01*
X197378285Y-80147466D01*
X197241378Y-79942571D01*
X197225029Y-79903100D01*
X197147075Y-79714903D01*
X197099000Y-79473214D01*
X197099000Y-79226786D01*
X197147075Y-78985097D01*
X197241377Y-78757431D01*
X197267310Y-78718619D01*
X197378285Y-78552534D01*
X197552534Y-78378285D01*
X197757429Y-78241378D01*
X197795294Y-78225694D01*
X197985097Y-78147075D01*
X198226786Y-78099000D01*
X198473214Y-78099000D01*
X198714903Y-78147075D01*
X198714903Y-78147075D01*
G37*
G36*
X229748228Y-78681703D02*
G01*
X229903100Y-78745853D01*
X230042481Y-78838985D01*
X230161015Y-78957519D01*
X230254147Y-79096900D01*
X230318297Y-79251772D01*
X230351000Y-79416184D01*
X230351000Y-79583816D01*
X230318297Y-79748228D01*
X230254147Y-79903100D01*
X230161015Y-80042481D01*
X230042481Y-80161015D01*
X229903100Y-80254147D01*
X229748228Y-80318297D01*
X229583816Y-80351000D01*
X229416184Y-80351000D01*
X229251772Y-80318297D01*
X229096900Y-80254147D01*
X228957519Y-80161015D01*
X228838985Y-80042481D01*
X228745853Y-79903100D01*
X228681703Y-79748228D01*
X228649000Y-79583816D01*
X228649000Y-79416184D01*
X228681703Y-79251772D01*
X228745853Y-79096900D01*
X228838985Y-78957519D01*
X228957519Y-78838985D01*
X229096900Y-78745853D01*
X229251772Y-78681703D01*
X229416184Y-78649000D01*
X229583816Y-78649000D01*
X229748228Y-78681703D01*
X229748228Y-78681703D01*
G37*
G36*
X117424549Y-77371116D02*
G01*
X117535734Y-77393232D01*
X117745203Y-77479997D01*
X117933720Y-77605960D01*
X118094040Y-77766280D01*
X118220003Y-77954797D01*
X118306768Y-78164266D01*
X118316212Y-78211743D01*
X118336987Y-78316185D01*
X118351000Y-78386636D01*
X118351000Y-78613364D01*
X118306768Y-78835734D01*
X118220003Y-79045203D01*
X118094040Y-79233720D01*
X117933720Y-79394040D01*
X117745203Y-79520003D01*
X117535734Y-79606768D01*
X117424549Y-79628884D01*
X117313365Y-79651000D01*
X117086635Y-79651000D01*
X116975451Y-79628884D01*
X116864266Y-79606768D01*
X116654797Y-79520003D01*
X116466280Y-79394040D01*
X116305960Y-79233720D01*
X116179997Y-79045203D01*
X116093232Y-78835734D01*
X116049000Y-78613364D01*
X116049000Y-78386636D01*
X116063014Y-78316185D01*
X116083788Y-78211743D01*
X116093232Y-78164266D01*
X116179997Y-77954797D01*
X116305960Y-77766280D01*
X116466280Y-77605960D01*
X116654797Y-77479997D01*
X116864266Y-77393232D01*
X116975451Y-77371116D01*
X117086635Y-77349000D01*
X117313365Y-77349000D01*
X117424549Y-77371116D01*
X117424549Y-77371116D01*
G37*
G36*
X127424549Y-77371116D02*
G01*
X127535734Y-77393232D01*
X127745203Y-77479997D01*
X127933720Y-77605960D01*
X128094040Y-77766280D01*
X128220003Y-77954797D01*
X128306768Y-78164266D01*
X128316212Y-78211743D01*
X128336987Y-78316185D01*
X128351000Y-78386636D01*
X128351000Y-78613364D01*
X128306768Y-78835734D01*
X128220003Y-79045203D01*
X128094040Y-79233720D01*
X127933720Y-79394040D01*
X127745203Y-79520003D01*
X127535734Y-79606768D01*
X127424549Y-79628884D01*
X127313365Y-79651000D01*
X127086635Y-79651000D01*
X126975451Y-79628884D01*
X126864266Y-79606768D01*
X126654797Y-79520003D01*
X126466280Y-79394040D01*
X126305960Y-79233720D01*
X126179997Y-79045203D01*
X126093232Y-78835734D01*
X126049000Y-78613364D01*
X126049000Y-78386636D01*
X126063014Y-78316185D01*
X126083788Y-78211743D01*
X126093232Y-78164266D01*
X126179997Y-77954797D01*
X126305960Y-77766280D01*
X126466280Y-77605960D01*
X126654797Y-77479997D01*
X126864266Y-77393232D01*
X126975451Y-77371116D01*
X127086635Y-77349000D01*
X127313365Y-77349000D01*
X127424549Y-77371116D01*
X127424549Y-77371116D01*
G37*
G36*
X139215392Y-76779598D02*
G01*
X139461259Y-76881439D01*
X139536006Y-76931384D01*
X139682531Y-77029289D01*
X139870711Y-77217469D01*
X139944133Y-77327352D01*
X139988153Y-77393232D01*
X140018562Y-77438743D01*
X140120402Y-77684608D01*
X140172320Y-77945617D01*
X140172320Y-78211743D01*
X140120402Y-78472752D01*
X140062159Y-78613365D01*
X140018561Y-78718619D01*
X139992629Y-78757429D01*
X139870711Y-78939891D01*
X139682531Y-79128071D01*
X139643504Y-79154148D01*
X139461259Y-79275921D01*
X139461258Y-79275922D01*
X139461257Y-79275922D01*
X139215392Y-79377762D01*
X138954383Y-79429680D01*
X138688257Y-79429680D01*
X138427248Y-79377762D01*
X138181383Y-79275922D01*
X138181382Y-79275922D01*
X138181381Y-79275921D01*
X137999136Y-79154148D01*
X137960109Y-79128071D01*
X137771929Y-78939891D01*
X137650011Y-78757429D01*
X137624079Y-78718619D01*
X137580482Y-78613365D01*
X137522238Y-78472752D01*
X137470320Y-78211743D01*
X137470320Y-77945617D01*
X137522238Y-77684608D01*
X137624078Y-77438743D01*
X137654488Y-77393232D01*
X137698507Y-77327352D01*
X137771929Y-77217469D01*
X137960109Y-77029289D01*
X138106634Y-76931384D01*
X138181381Y-76881439D01*
X138427248Y-76779598D01*
X138688257Y-76727680D01*
X138954383Y-76727680D01*
X139215392Y-76779598D01*
X139215392Y-76779598D01*
G37*
G36*
X209448228Y-77581703D02*
G01*
X209603100Y-77645853D01*
X209742481Y-77738985D01*
X209861015Y-77857519D01*
X209954147Y-77996900D01*
X210018297Y-78151772D01*
X210051000Y-78316184D01*
X210051000Y-78483816D01*
X210018297Y-78648228D01*
X209954147Y-78803100D01*
X209861015Y-78942481D01*
X209742481Y-79061015D01*
X209603100Y-79154147D01*
X209448228Y-79218297D01*
X209283816Y-79251000D01*
X209116184Y-79251000D01*
X208951772Y-79218297D01*
X208796900Y-79154147D01*
X208657519Y-79061015D01*
X208538985Y-78942481D01*
X208445853Y-78803100D01*
X208381703Y-78648228D01*
X208349000Y-78483816D01*
X208349000Y-78316184D01*
X208381703Y-78151772D01*
X208445853Y-77996900D01*
X208538985Y-77857519D01*
X208657519Y-77738985D01*
X208796900Y-77645853D01*
X208951772Y-77581703D01*
X209116184Y-77549000D01*
X209283816Y-77549000D01*
X209448228Y-77581703D01*
X209448228Y-77581703D01*
G37*
G36*
X236478097Y-76204069D02*
G01*
X236581032Y-76214207D01*
X236779146Y-76274305D01*
X236779149Y-76274306D01*
X236839499Y-76306564D01*
X236961729Y-76371897D01*
X237121765Y-76503235D01*
X237253103Y-76663271D01*
X237256685Y-76669973D01*
X237350694Y-76845851D01*
X237350695Y-76845854D01*
X237410793Y-77043968D01*
X237431085Y-77250000D01*
X237410793Y-77456032D01*
X237372670Y-77581705D01*
X237350694Y-77654149D01*
X237334413Y-77684608D01*
X237253103Y-77836729D01*
X237121765Y-77996765D01*
X236961729Y-78128103D01*
X236917449Y-78151771D01*
X236779149Y-78225694D01*
X236779146Y-78225695D01*
X236581032Y-78285793D01*
X236478097Y-78295931D01*
X236426631Y-78301000D01*
X235323369Y-78301000D01*
X235271903Y-78295931D01*
X235168968Y-78285793D01*
X234970854Y-78225695D01*
X234970851Y-78225694D01*
X234832551Y-78151771D01*
X234788271Y-78128103D01*
X234628235Y-77996765D01*
X234496897Y-77836729D01*
X234415587Y-77684608D01*
X234399306Y-77654149D01*
X234377330Y-77581705D01*
X234339207Y-77456032D01*
X234318915Y-77250000D01*
X234339207Y-77043968D01*
X234399305Y-76845854D01*
X234399306Y-76845851D01*
X234493315Y-76669973D01*
X234496897Y-76663271D01*
X234628235Y-76503235D01*
X234788271Y-76371897D01*
X234910501Y-76306564D01*
X234970851Y-76274306D01*
X234970854Y-76274305D01*
X235168968Y-76214207D01*
X235271903Y-76204069D01*
X235323369Y-76199000D01*
X236426631Y-76199000D01*
X236478097Y-76204069D01*
X236478097Y-76204069D01*
G37*
G36*
X126006564Y-74989389D02*
G01*
X126193782Y-75066937D01*
X126197835Y-75068616D01*
X126369973Y-75183635D01*
X126516365Y-75330027D01*
X126613014Y-75474672D01*
X126631385Y-75502167D01*
X126710611Y-75693436D01*
X126751000Y-75896484D01*
X126751000Y-76103516D01*
X126710611Y-76306564D01*
X126673051Y-76397241D01*
X126631384Y-76497835D01*
X126516365Y-76669973D01*
X126369973Y-76816365D01*
X126197835Y-76931384D01*
X126197834Y-76931385D01*
X126197833Y-76931385D01*
X126006564Y-77010611D01*
X125803516Y-77051000D01*
X125596484Y-77051000D01*
X125393436Y-77010611D01*
X125202167Y-76931385D01*
X125202166Y-76931385D01*
X125202165Y-76931384D01*
X125030027Y-76816365D01*
X124883635Y-76669973D01*
X124768616Y-76497835D01*
X124726949Y-76397241D01*
X124689389Y-76306564D01*
X124649000Y-76103516D01*
X124649000Y-75896484D01*
X124689389Y-75693436D01*
X124768615Y-75502167D01*
X124786987Y-75474672D01*
X124883635Y-75330027D01*
X125030027Y-75183635D01*
X125202165Y-75068616D01*
X125206218Y-75066937D01*
X125393436Y-74989389D01*
X125596484Y-74949000D01*
X125803516Y-74949000D01*
X126006564Y-74989389D01*
X126006564Y-74989389D01*
G37*
G36*
X119006564Y-74989389D02*
G01*
X119193782Y-75066937D01*
X119197835Y-75068616D01*
X119369973Y-75183635D01*
X119516365Y-75330027D01*
X119613014Y-75474672D01*
X119631385Y-75502167D01*
X119710611Y-75693436D01*
X119751000Y-75896484D01*
X119751000Y-76103516D01*
X119710611Y-76306564D01*
X119673051Y-76397241D01*
X119631384Y-76497835D01*
X119516365Y-76669973D01*
X119369973Y-76816365D01*
X119197835Y-76931384D01*
X119197834Y-76931385D01*
X119197833Y-76931385D01*
X119006564Y-77010611D01*
X118803516Y-77051000D01*
X118596484Y-77051000D01*
X118393436Y-77010611D01*
X118202167Y-76931385D01*
X118202166Y-76931385D01*
X118202165Y-76931384D01*
X118030027Y-76816365D01*
X117883635Y-76669973D01*
X117768616Y-76497835D01*
X117726949Y-76397241D01*
X117689389Y-76306564D01*
X117649000Y-76103516D01*
X117649000Y-75896484D01*
X117689389Y-75693436D01*
X117768615Y-75502167D01*
X117786987Y-75474672D01*
X117883635Y-75330027D01*
X118030027Y-75183635D01*
X118202165Y-75068616D01*
X118206218Y-75066937D01*
X118393436Y-74989389D01*
X118596484Y-74949000D01*
X118803516Y-74949000D01*
X119006564Y-74989389D01*
X119006564Y-74989389D01*
G37*
G36*
X163264903Y-74197075D02*
G01*
X163483429Y-74287591D01*
X163492571Y-74291378D01*
X163697466Y-74428285D01*
X163871715Y-74602534D01*
X163994165Y-74785793D01*
X164008623Y-74807431D01*
X164102925Y-75035097D01*
X164151000Y-75276786D01*
X164151000Y-75523214D01*
X164102925Y-75764903D01*
X164048423Y-75896484D01*
X164008622Y-75992571D01*
X163871715Y-76197466D01*
X163697466Y-76371715D01*
X163492571Y-76508622D01*
X163492570Y-76508623D01*
X163492569Y-76508623D01*
X163264903Y-76602925D01*
X163023214Y-76651000D01*
X162776786Y-76651000D01*
X162535097Y-76602925D01*
X162307431Y-76508623D01*
X162307430Y-76508623D01*
X162307429Y-76508622D01*
X162102534Y-76371715D01*
X161928285Y-76197466D01*
X161791378Y-75992571D01*
X161751578Y-75896484D01*
X161697075Y-75764903D01*
X161649000Y-75523214D01*
X161649000Y-75276786D01*
X161697075Y-75035097D01*
X161791377Y-74807431D01*
X161805835Y-74785793D01*
X161928285Y-74602534D01*
X162102534Y-74428285D01*
X162307429Y-74291378D01*
X162316572Y-74287591D01*
X162535097Y-74197075D01*
X162776786Y-74149000D01*
X163023214Y-74149000D01*
X163264903Y-74197075D01*
X163264903Y-74197075D01*
G37*
G36*
X148994072Y-73900918D02*
G01*
X149225802Y-73996903D01*
X149239939Y-74002759D01*
X149317304Y-74054453D01*
X149461211Y-74150609D01*
X149649391Y-74338789D01*
X149709190Y-74428284D01*
X149774179Y-74525546D01*
X149797242Y-74560063D01*
X149899082Y-74805928D01*
X149951000Y-75066937D01*
X149951000Y-75333063D01*
X149899082Y-75594072D01*
X149843316Y-75728705D01*
X149797241Y-75839939D01*
X149759457Y-75896486D01*
X149649391Y-76061211D01*
X149461211Y-76249391D01*
X149423923Y-76274306D01*
X149239939Y-76397241D01*
X149239938Y-76397242D01*
X149239937Y-76397242D01*
X148994072Y-76499082D01*
X148733063Y-76551000D01*
X148466937Y-76551000D01*
X148205928Y-76499082D01*
X147960063Y-76397242D01*
X147960062Y-76397242D01*
X147960061Y-76397241D01*
X147776077Y-76274306D01*
X147738789Y-76249391D01*
X147550609Y-76061211D01*
X147440543Y-75896486D01*
X147402759Y-75839939D01*
X147356685Y-75728705D01*
X147300918Y-75594072D01*
X147249000Y-75333063D01*
X147249000Y-75066937D01*
X147300918Y-74805928D01*
X147402758Y-74560063D01*
X147425822Y-74525546D01*
X147490810Y-74428284D01*
X147550609Y-74338789D01*
X147738789Y-74150609D01*
X147882696Y-74054453D01*
X147960061Y-74002759D01*
X147974199Y-73996903D01*
X148205928Y-73900918D01*
X148466937Y-73849000D01*
X148733063Y-73849000D01*
X148994072Y-73900918D01*
X148994072Y-73900918D01*
G37*
G36*
X145994072Y-73900918D02*
G01*
X146225802Y-73996903D01*
X146239939Y-74002759D01*
X146317304Y-74054453D01*
X146461211Y-74150609D01*
X146649391Y-74338789D01*
X146709190Y-74428284D01*
X146774179Y-74525546D01*
X146797242Y-74560063D01*
X146899082Y-74805928D01*
X146951000Y-75066937D01*
X146951000Y-75333063D01*
X146899082Y-75594072D01*
X146843316Y-75728705D01*
X146797241Y-75839939D01*
X146759457Y-75896486D01*
X146649391Y-76061211D01*
X146461211Y-76249391D01*
X146423923Y-76274306D01*
X146239939Y-76397241D01*
X146239938Y-76397242D01*
X146239937Y-76397242D01*
X145994072Y-76499082D01*
X145733063Y-76551000D01*
X145466937Y-76551000D01*
X145205928Y-76499082D01*
X144960063Y-76397242D01*
X144960062Y-76397242D01*
X144960061Y-76397241D01*
X144776077Y-76274306D01*
X144738789Y-76249391D01*
X144550609Y-76061211D01*
X144440543Y-75896486D01*
X144402759Y-75839939D01*
X144356685Y-75728705D01*
X144300918Y-75594072D01*
X144249000Y-75333063D01*
X144249000Y-75066937D01*
X144300918Y-74805928D01*
X144402758Y-74560063D01*
X144425822Y-74525546D01*
X144490810Y-74428284D01*
X144550609Y-74338789D01*
X144738789Y-74150609D01*
X144882696Y-74054453D01*
X144960061Y-74002759D01*
X144974199Y-73996903D01*
X145205928Y-73900918D01*
X145466937Y-73849000D01*
X145733063Y-73849000D01*
X145994072Y-73900918D01*
X145994072Y-73900918D01*
G37*
G36*
X112077395Y-74525546D02*
G01*
X112250466Y-74597234D01*
X112326784Y-74648228D01*
X112406227Y-74701310D01*
X112538690Y-74833773D01*
X112538691Y-74833775D01*
X112642766Y-74989534D01*
X112714454Y-75162605D01*
X112751000Y-75346333D01*
X112751000Y-75533667D01*
X112714454Y-75717395D01*
X112642766Y-75890466D01*
X112591081Y-75967818D01*
X112538690Y-76046227D01*
X112406227Y-76178690D01*
X112353072Y-76214207D01*
X112250466Y-76282766D01*
X112077395Y-76354454D01*
X111893667Y-76391000D01*
X111706333Y-76391000D01*
X111522605Y-76354454D01*
X111349534Y-76282766D01*
X111246928Y-76214207D01*
X111193773Y-76178690D01*
X111061310Y-76046227D01*
X111008919Y-75967818D01*
X110957234Y-75890466D01*
X110885546Y-75717395D01*
X110849000Y-75533667D01*
X110849000Y-75346333D01*
X110885546Y-75162605D01*
X110957234Y-74989534D01*
X111061309Y-74833775D01*
X111061310Y-74833773D01*
X111193773Y-74701310D01*
X111273216Y-74648228D01*
X111349534Y-74597234D01*
X111522605Y-74525546D01*
X111706333Y-74489000D01*
X111893667Y-74489000D01*
X112077395Y-74525546D01*
X112077395Y-74525546D01*
G37*
G36*
X174452585Y-73218802D02*
G01*
X174602410Y-73248604D01*
X174884674Y-73365521D01*
X175138705Y-73535259D01*
X175354741Y-73751295D01*
X175524479Y-74005326D01*
X175641396Y-74287590D01*
X175641396Y-74287591D01*
X175701000Y-74587239D01*
X175701000Y-74892761D01*
X175672687Y-75035097D01*
X175641396Y-75192410D01*
X175524479Y-75474674D01*
X175354741Y-75728705D01*
X175138705Y-75944741D01*
X174884674Y-76114479D01*
X174602410Y-76231396D01*
X174452585Y-76261198D01*
X174302761Y-76291000D01*
X173997239Y-76291000D01*
X173847415Y-76261198D01*
X173697590Y-76231396D01*
X173415326Y-76114479D01*
X173161295Y-75944741D01*
X172945259Y-75728705D01*
X172775521Y-75474674D01*
X172658604Y-75192410D01*
X172627313Y-75035097D01*
X172599000Y-74892761D01*
X172599000Y-74587239D01*
X172658604Y-74287591D01*
X172658604Y-74287590D01*
X172775521Y-74005326D01*
X172945259Y-73751295D01*
X173161295Y-73535259D01*
X173415326Y-73365521D01*
X173697590Y-73248604D01*
X173847415Y-73218802D01*
X173997239Y-73189000D01*
X174302761Y-73189000D01*
X174452585Y-73218802D01*
X174452585Y-73218802D01*
G37*
G36*
X187152585Y-73218802D02*
G01*
X187302410Y-73248604D01*
X187584674Y-73365521D01*
X187838705Y-73535259D01*
X188054741Y-73751295D01*
X188224479Y-74005326D01*
X188341396Y-74287590D01*
X188341396Y-74287591D01*
X188401000Y-74587239D01*
X188401000Y-74892761D01*
X188372687Y-75035097D01*
X188341396Y-75192410D01*
X188224479Y-75474674D01*
X188054741Y-75728705D01*
X187838705Y-75944741D01*
X187584674Y-76114479D01*
X187302410Y-76231396D01*
X187152585Y-76261198D01*
X187002761Y-76291000D01*
X186697239Y-76291000D01*
X186547415Y-76261198D01*
X186397590Y-76231396D01*
X186115326Y-76114479D01*
X185861295Y-75944741D01*
X185645259Y-75728705D01*
X185475521Y-75474674D01*
X185358604Y-75192410D01*
X185327313Y-75035097D01*
X185299000Y-74892761D01*
X185299000Y-74587239D01*
X185358604Y-74287591D01*
X185358604Y-74287590D01*
X185475521Y-74005326D01*
X185645259Y-73751295D01*
X185861295Y-73535259D01*
X186115326Y-73365521D01*
X186397590Y-73248604D01*
X186547415Y-73218802D01*
X186697239Y-73189000D01*
X187002761Y-73189000D01*
X187152585Y-73218802D01*
X187152585Y-73218802D01*
G37*
G36*
X229748228Y-73681703D02*
G01*
X229903100Y-73745853D01*
X230042481Y-73838985D01*
X230161015Y-73957519D01*
X230254147Y-74096900D01*
X230318297Y-74251772D01*
X230351000Y-74416184D01*
X230351000Y-74583816D01*
X230318297Y-74748228D01*
X230254147Y-74903100D01*
X230161015Y-75042481D01*
X230042481Y-75161015D01*
X229903100Y-75254147D01*
X229748228Y-75318297D01*
X229583816Y-75351000D01*
X229416184Y-75351000D01*
X229251772Y-75318297D01*
X229096900Y-75254147D01*
X228957519Y-75161015D01*
X228838985Y-75042481D01*
X228745853Y-74903100D01*
X228681703Y-74748228D01*
X228649000Y-74583816D01*
X228649000Y-74416184D01*
X228681703Y-74251772D01*
X228745853Y-74096900D01*
X228838985Y-73957519D01*
X228957519Y-73838985D01*
X229096900Y-73745853D01*
X229251772Y-73681703D01*
X229416184Y-73649000D01*
X229583816Y-73649000D01*
X229748228Y-73681703D01*
X229748228Y-73681703D01*
G37*
G36*
X209448228Y-73581703D02*
G01*
X209603100Y-73645853D01*
X209742481Y-73738985D01*
X209861015Y-73857519D01*
X209954147Y-73996900D01*
X210018297Y-74151772D01*
X210051000Y-74316184D01*
X210051000Y-74483816D01*
X210018297Y-74648228D01*
X209954147Y-74803100D01*
X209861015Y-74942481D01*
X209742481Y-75061015D01*
X209603100Y-75154147D01*
X209448228Y-75218297D01*
X209283816Y-75251000D01*
X209116184Y-75251000D01*
X208951772Y-75218297D01*
X208796900Y-75154147D01*
X208657519Y-75061015D01*
X208538985Y-74942481D01*
X208445853Y-74803100D01*
X208381703Y-74648228D01*
X208349000Y-74483816D01*
X208349000Y-74316184D01*
X208381703Y-74151772D01*
X208445853Y-73996900D01*
X208538985Y-73857519D01*
X208657519Y-73738985D01*
X208796900Y-73645853D01*
X208951772Y-73581703D01*
X209116184Y-73549000D01*
X209283816Y-73549000D01*
X209448228Y-73581703D01*
X209448228Y-73581703D01*
G37*
G36*
X241478097Y-72704069D02*
G01*
X241581032Y-72714207D01*
X241779146Y-72774305D01*
X241779149Y-72774306D01*
X241875975Y-72826061D01*
X241961729Y-72871897D01*
X242121765Y-73003235D01*
X242253103Y-73163271D01*
X242266855Y-73189000D01*
X242350694Y-73345851D01*
X242350695Y-73345854D01*
X242410793Y-73543968D01*
X242431085Y-73750000D01*
X242410793Y-73956032D01*
X242352256Y-74149000D01*
X242350694Y-74154149D01*
X242327749Y-74197075D01*
X242253103Y-74336729D01*
X242121765Y-74496765D01*
X241961729Y-74628103D01*
X241875975Y-74673939D01*
X241779149Y-74725694D01*
X241779146Y-74725695D01*
X241581032Y-74785793D01*
X241478097Y-74795931D01*
X241426631Y-74801000D01*
X240323369Y-74801000D01*
X240271903Y-74795931D01*
X240168968Y-74785793D01*
X239970854Y-74725695D01*
X239970851Y-74725694D01*
X239874025Y-74673939D01*
X239788271Y-74628103D01*
X239628235Y-74496765D01*
X239496897Y-74336729D01*
X239422251Y-74197075D01*
X239399306Y-74154149D01*
X239397744Y-74149000D01*
X239339207Y-73956032D01*
X239318915Y-73750000D01*
X239339207Y-73543968D01*
X239399305Y-73345854D01*
X239399306Y-73345851D01*
X239483145Y-73189000D01*
X239496897Y-73163271D01*
X239628235Y-73003235D01*
X239788271Y-72871897D01*
X239874025Y-72826061D01*
X239970851Y-72774306D01*
X239970854Y-72774305D01*
X240168968Y-72714207D01*
X240271903Y-72704069D01*
X240323369Y-72699000D01*
X241426631Y-72699000D01*
X241478097Y-72704069D01*
X241478097Y-72704069D01*
G37*
G36*
X104577395Y-72225546D02*
G01*
X104750466Y-72297234D01*
X104750467Y-72297235D01*
X104906227Y-72401310D01*
X105038690Y-72533773D01*
X105038691Y-72533775D01*
X105142766Y-72689534D01*
X105214454Y-72862605D01*
X105251000Y-73046333D01*
X105251000Y-73233667D01*
X105214454Y-73417395D01*
X105142766Y-73590466D01*
X105103655Y-73649000D01*
X105038690Y-73746227D01*
X104906227Y-73878690D01*
X104872960Y-73900918D01*
X104750466Y-73982766D01*
X104577395Y-74054454D01*
X104393667Y-74091000D01*
X104206333Y-74091000D01*
X104022605Y-74054454D01*
X103849534Y-73982766D01*
X103727040Y-73900918D01*
X103693773Y-73878690D01*
X103561310Y-73746227D01*
X103496345Y-73649000D01*
X103457234Y-73590466D01*
X103385546Y-73417395D01*
X103349000Y-73233667D01*
X103349000Y-73046333D01*
X103385546Y-72862605D01*
X103457234Y-72689534D01*
X103561309Y-72533775D01*
X103561310Y-72533773D01*
X103693773Y-72401310D01*
X103849533Y-72297235D01*
X103849534Y-72297234D01*
X104022605Y-72225546D01*
X104206333Y-72189000D01*
X104393667Y-72189000D01*
X104577395Y-72225546D01*
X104577395Y-72225546D01*
G37*
G36*
X210051000Y-73251000D02*
G01*
X208349000Y-73251000D01*
X208349000Y-71549000D01*
X210051000Y-71549000D01*
X210051000Y-73251000D01*
X210051000Y-73251000D01*
G37*
G36*
X199601000Y-73101000D02*
G01*
X197099000Y-73101000D01*
X197099000Y-70599000D01*
X199601000Y-70599000D01*
X199601000Y-73101000D01*
X199601000Y-73101000D01*
G37*
G36*
X213746000Y-71826000D02*
G01*
X212744000Y-71826000D01*
X212744000Y-69724000D01*
X213746000Y-69724000D01*
X213746000Y-71826000D01*
X213746000Y-71826000D01*
G37*
G36*
X215016000Y-71826000D02*
G01*
X214014000Y-71826000D01*
X214014000Y-69724000D01*
X215016000Y-69724000D01*
X215016000Y-71826000D01*
X215016000Y-71826000D01*
G37*
G36*
X216286000Y-71826000D02*
G01*
X215284000Y-71826000D01*
X215284000Y-69724000D01*
X216286000Y-69724000D01*
X216286000Y-71826000D01*
X216286000Y-71826000D01*
G37*
G36*
X217556000Y-71826000D02*
G01*
X216554000Y-71826000D01*
X216554000Y-69724000D01*
X217556000Y-69724000D01*
X217556000Y-71826000D01*
X217556000Y-71826000D01*
G37*
G36*
X222636000Y-71826000D02*
G01*
X221634000Y-71826000D01*
X221634000Y-69724000D01*
X222636000Y-69724000D01*
X222636000Y-71826000D01*
X222636000Y-71826000D01*
G37*
G36*
X225176000Y-71826000D02*
G01*
X224174000Y-71826000D01*
X224174000Y-69724000D01*
X225176000Y-69724000D01*
X225176000Y-71826000D01*
X225176000Y-71826000D01*
G37*
G36*
X221366000Y-71826000D02*
G01*
X220364000Y-71826000D01*
X220364000Y-69724000D01*
X221366000Y-69724000D01*
X221366000Y-71826000D01*
X221366000Y-71826000D01*
G37*
G36*
X223906000Y-71826000D02*
G01*
X222904000Y-71826000D01*
X222904000Y-69724000D01*
X223906000Y-69724000D01*
X223906000Y-71826000D01*
X223906000Y-71826000D01*
G37*
G36*
X226446000Y-71826000D02*
G01*
X225444000Y-71826000D01*
X225444000Y-69724000D01*
X226446000Y-69724000D01*
X226446000Y-71826000D01*
X226446000Y-71826000D01*
G37*
G36*
X227716000Y-71826000D02*
G01*
X226714000Y-71826000D01*
X226714000Y-69724000D01*
X227716000Y-69724000D01*
X227716000Y-71826000D01*
X227716000Y-71826000D01*
G37*
G36*
X218826000Y-71826000D02*
G01*
X217824000Y-71826000D01*
X217824000Y-69724000D01*
X218826000Y-69724000D01*
X218826000Y-71826000D01*
X218826000Y-71826000D01*
G37*
G36*
X220096000Y-71826000D02*
G01*
X219094000Y-71826000D01*
X219094000Y-69724000D01*
X220096000Y-69724000D01*
X220096000Y-71826000D01*
X220096000Y-71826000D01*
G37*
G36*
X230256000Y-71826000D02*
G01*
X229254000Y-71826000D01*
X229254000Y-69724000D01*
X230256000Y-69724000D01*
X230256000Y-71826000D01*
X230256000Y-71826000D01*
G37*
G36*
X228986000Y-71826000D02*
G01*
X227984000Y-71826000D01*
X227984000Y-69724000D01*
X228986000Y-69724000D01*
X228986000Y-71826000D01*
X228986000Y-71826000D01*
G37*
G36*
X187152585Y-68138802D02*
G01*
X187302410Y-68168604D01*
X187584674Y-68285521D01*
X187838705Y-68455259D01*
X188054741Y-68671295D01*
X188224479Y-68925326D01*
X188341396Y-69207590D01*
X188341396Y-69207591D01*
X188401000Y-69507239D01*
X188401000Y-69812761D01*
X188380008Y-69918295D01*
X188341396Y-70112410D01*
X188224479Y-70394674D01*
X188054741Y-70648705D01*
X187838705Y-70864741D01*
X187584674Y-71034479D01*
X187302410Y-71151396D01*
X187152585Y-71181198D01*
X187002761Y-71211000D01*
X186697239Y-71211000D01*
X186547415Y-71181198D01*
X186397590Y-71151396D01*
X186115326Y-71034479D01*
X185861295Y-70864741D01*
X185645259Y-70648705D01*
X185475521Y-70394674D01*
X185358604Y-70112410D01*
X185319992Y-69918295D01*
X185299000Y-69812761D01*
X185299000Y-69507239D01*
X185358604Y-69207591D01*
X185358604Y-69207590D01*
X185475521Y-68925326D01*
X185645259Y-68671295D01*
X185861295Y-68455259D01*
X186115326Y-68285521D01*
X186397590Y-68168604D01*
X186547415Y-68138802D01*
X186697239Y-68109000D01*
X187002761Y-68109000D01*
X187152585Y-68138802D01*
X187152585Y-68138802D01*
G37*
G36*
X174452585Y-68138802D02*
G01*
X174602410Y-68168604D01*
X174884674Y-68285521D01*
X175138705Y-68455259D01*
X175354741Y-68671295D01*
X175524479Y-68925326D01*
X175641396Y-69207590D01*
X175641396Y-69207591D01*
X175701000Y-69507239D01*
X175701000Y-69812761D01*
X175680008Y-69918295D01*
X175641396Y-70112410D01*
X175524479Y-70394674D01*
X175354741Y-70648705D01*
X175138705Y-70864741D01*
X174884674Y-71034479D01*
X174602410Y-71151396D01*
X174452585Y-71181198D01*
X174302761Y-71211000D01*
X173997239Y-71211000D01*
X173847415Y-71181198D01*
X173697590Y-71151396D01*
X173415326Y-71034479D01*
X173161295Y-70864741D01*
X172945259Y-70648705D01*
X172775521Y-70394674D01*
X172658604Y-70112410D01*
X172619992Y-69918295D01*
X172599000Y-69812761D01*
X172599000Y-69507239D01*
X172658604Y-69207591D01*
X172658604Y-69207590D01*
X172775521Y-68925326D01*
X172945259Y-68671295D01*
X173161295Y-68455259D01*
X173415326Y-68285521D01*
X173697590Y-68168604D01*
X173847415Y-68138802D01*
X173997239Y-68109000D01*
X174302761Y-68109000D01*
X174452585Y-68138802D01*
X174452585Y-68138802D01*
G37*
G36*
X242726000Y-70061000D02*
G01*
X241224000Y-70061000D01*
X241224000Y-68559000D01*
X242726000Y-68559000D01*
X242726000Y-70061000D01*
X242726000Y-70061000D01*
G37*
G36*
X151548228Y-68281703D02*
G01*
X151703100Y-68345853D01*
X151842481Y-68438985D01*
X151961015Y-68557519D01*
X152054147Y-68696900D01*
X152118297Y-68851772D01*
X152151000Y-69016184D01*
X152151000Y-69183816D01*
X152118297Y-69348228D01*
X152054147Y-69503100D01*
X151961015Y-69642481D01*
X151842481Y-69761015D01*
X151703100Y-69854147D01*
X151548228Y-69918297D01*
X151383816Y-69951000D01*
X151216184Y-69951000D01*
X151051772Y-69918297D01*
X150896900Y-69854147D01*
X150757519Y-69761015D01*
X150638985Y-69642481D01*
X150545853Y-69503100D01*
X150481703Y-69348228D01*
X150449000Y-69183816D01*
X150449000Y-69016184D01*
X150481703Y-68851772D01*
X150545853Y-68696900D01*
X150638985Y-68557519D01*
X150757519Y-68438985D01*
X150896900Y-68345853D01*
X151051772Y-68281703D01*
X151216184Y-68249000D01*
X151383816Y-68249000D01*
X151548228Y-68281703D01*
X151548228Y-68281703D01*
G37*
G36*
X154151000Y-69951000D02*
G01*
X152449000Y-69951000D01*
X152449000Y-68249000D01*
X154151000Y-68249000D01*
X154151000Y-69951000D01*
X154151000Y-69951000D01*
G37*
G36*
X111677395Y-67985546D02*
G01*
X111850466Y-68057234D01*
X111850467Y-68057235D01*
X112006227Y-68161310D01*
X112138690Y-68293773D01*
X112191081Y-68372182D01*
X112242766Y-68449534D01*
X112314454Y-68622605D01*
X112351000Y-68806333D01*
X112351000Y-68993667D01*
X112314454Y-69177395D01*
X112242766Y-69350466D01*
X112242765Y-69350467D01*
X112138690Y-69506227D01*
X112006227Y-69638690D01*
X112000553Y-69642481D01*
X111850466Y-69742766D01*
X111677395Y-69814454D01*
X111493667Y-69851000D01*
X111306333Y-69851000D01*
X111122605Y-69814454D01*
X110949534Y-69742766D01*
X110799447Y-69642481D01*
X110793773Y-69638690D01*
X110661310Y-69506227D01*
X110557235Y-69350467D01*
X110557234Y-69350466D01*
X110485546Y-69177395D01*
X110449000Y-68993667D01*
X110449000Y-68806333D01*
X110485546Y-68622605D01*
X110557234Y-68449534D01*
X110608919Y-68372182D01*
X110661310Y-68293773D01*
X110793773Y-68161310D01*
X110949533Y-68057235D01*
X110949534Y-68057234D01*
X111122605Y-67985546D01*
X111306333Y-67949000D01*
X111493667Y-67949000D01*
X111677395Y-67985546D01*
X111677395Y-67985546D01*
G37*
G36*
X105296564Y-67569389D02*
G01*
X105487833Y-67648615D01*
X105487835Y-67648616D01*
X105659973Y-67763635D01*
X105806365Y-67910027D01*
X105907384Y-68061212D01*
X105921385Y-68082167D01*
X106000611Y-68273436D01*
X106041000Y-68476484D01*
X106041000Y-68683516D01*
X106000611Y-68886564D01*
X105921385Y-69077833D01*
X105921384Y-69077835D01*
X105806365Y-69249973D01*
X105659973Y-69396365D01*
X105487835Y-69511384D01*
X105487834Y-69511385D01*
X105487833Y-69511385D01*
X105296564Y-69590611D01*
X105093516Y-69631000D01*
X104886484Y-69631000D01*
X104683436Y-69590611D01*
X104492167Y-69511385D01*
X104492166Y-69511385D01*
X104492165Y-69511384D01*
X104320027Y-69396365D01*
X104173635Y-69249973D01*
X104058616Y-69077835D01*
X104058615Y-69077833D01*
X103979389Y-68886564D01*
X103939000Y-68683516D01*
X103939000Y-68476484D01*
X103979389Y-68273436D01*
X104058615Y-68082167D01*
X104072617Y-68061212D01*
X104173635Y-67910027D01*
X104320027Y-67763635D01*
X104492165Y-67648616D01*
X104492167Y-67648615D01*
X104683436Y-67569389D01*
X104886484Y-67529000D01*
X105093516Y-67529000D01*
X105296564Y-67569389D01*
X105296564Y-67569389D01*
G37*
G36*
X164151000Y-69151000D02*
G01*
X161649000Y-69151000D01*
X161649000Y-66649000D01*
X164151000Y-66649000D01*
X164151000Y-69151000D01*
X164151000Y-69151000D01*
G37*
G36*
X126006564Y-66989389D02*
G01*
X126193782Y-67066937D01*
X126197835Y-67068616D01*
X126369973Y-67183635D01*
X126516365Y-67330027D01*
X126631385Y-67502167D01*
X126710611Y-67693436D01*
X126751000Y-67896484D01*
X126751000Y-68103516D01*
X126710611Y-68306564D01*
X126649019Y-68455260D01*
X126631384Y-68497835D01*
X126516365Y-68669973D01*
X126369973Y-68816365D01*
X126197835Y-68931384D01*
X126197834Y-68931385D01*
X126197833Y-68931385D01*
X126006564Y-69010611D01*
X125803516Y-69051000D01*
X125596484Y-69051000D01*
X125393436Y-69010611D01*
X125202167Y-68931385D01*
X125202166Y-68931385D01*
X125202165Y-68931384D01*
X125030027Y-68816365D01*
X124883635Y-68669973D01*
X124768616Y-68497835D01*
X124750981Y-68455260D01*
X124689389Y-68306564D01*
X124649000Y-68103516D01*
X124649000Y-67896484D01*
X124689389Y-67693436D01*
X124768615Y-67502167D01*
X124883635Y-67330027D01*
X125030027Y-67183635D01*
X125202165Y-67068616D01*
X125206218Y-67066937D01*
X125393436Y-66989389D01*
X125596484Y-66949000D01*
X125803516Y-66949000D01*
X126006564Y-66989389D01*
X126006564Y-66989389D01*
G37*
G36*
X119006564Y-66989389D02*
G01*
X119193782Y-67066937D01*
X119197835Y-67068616D01*
X119369973Y-67183635D01*
X119516365Y-67330027D01*
X119631385Y-67502167D01*
X119710611Y-67693436D01*
X119751000Y-67896484D01*
X119751000Y-68103516D01*
X119710611Y-68306564D01*
X119649019Y-68455260D01*
X119631384Y-68497835D01*
X119516365Y-68669973D01*
X119369973Y-68816365D01*
X119197835Y-68931384D01*
X119197834Y-68931385D01*
X119197833Y-68931385D01*
X119006564Y-69010611D01*
X118803516Y-69051000D01*
X118596484Y-69051000D01*
X118393436Y-69010611D01*
X118202167Y-68931385D01*
X118202166Y-68931385D01*
X118202165Y-68931384D01*
X118030027Y-68816365D01*
X117883635Y-68669973D01*
X117768616Y-68497835D01*
X117750981Y-68455260D01*
X117689389Y-68306564D01*
X117649000Y-68103516D01*
X117649000Y-67896484D01*
X117689389Y-67693436D01*
X117768615Y-67502167D01*
X117883635Y-67330027D01*
X118030027Y-67183635D01*
X118202165Y-67068616D01*
X118206218Y-67066937D01*
X118393436Y-66989389D01*
X118596484Y-66949000D01*
X118803516Y-66949000D01*
X119006564Y-66989389D01*
X119006564Y-66989389D01*
G37*
G36*
X205894072Y-65900918D02*
G01*
X206139939Y-66002759D01*
X206203457Y-66045201D01*
X206361211Y-66150609D01*
X206549391Y-66338789D01*
X206622813Y-66448672D01*
X206697241Y-66560061D01*
X206799082Y-66805928D01*
X206851000Y-67066938D01*
X206851000Y-67333062D01*
X206799082Y-67594072D01*
X206697241Y-67839939D01*
X206659457Y-67896486D01*
X206549391Y-68061211D01*
X206361211Y-68249391D01*
X206325225Y-68273436D01*
X206139939Y-68397241D01*
X206139938Y-68397242D01*
X206139937Y-68397242D01*
X205894072Y-68499082D01*
X205633063Y-68551000D01*
X205366937Y-68551000D01*
X205105928Y-68499082D01*
X204860063Y-68397242D01*
X204860062Y-68397242D01*
X204860061Y-68397241D01*
X204674775Y-68273436D01*
X204638789Y-68249391D01*
X204450609Y-68061211D01*
X204340543Y-67896486D01*
X204302759Y-67839939D01*
X204200918Y-67594072D01*
X204149000Y-67333062D01*
X204149000Y-67066938D01*
X204200918Y-66805928D01*
X204302759Y-66560061D01*
X204377187Y-66448672D01*
X204450609Y-66338789D01*
X204638789Y-66150609D01*
X204796543Y-66045201D01*
X204860061Y-66002759D01*
X205105928Y-65900918D01*
X205366937Y-65849000D01*
X205633063Y-65849000D01*
X205894072Y-65900918D01*
X205894072Y-65900918D01*
G37*
G36*
X208894072Y-65900918D02*
G01*
X209139939Y-66002759D01*
X209203457Y-66045201D01*
X209361211Y-66150609D01*
X209549391Y-66338789D01*
X209622813Y-66448672D01*
X209697241Y-66560061D01*
X209799082Y-66805928D01*
X209851000Y-67066938D01*
X209851000Y-67333062D01*
X209799082Y-67594072D01*
X209697241Y-67839939D01*
X209659457Y-67896486D01*
X209549391Y-68061211D01*
X209361211Y-68249391D01*
X209325225Y-68273436D01*
X209139939Y-68397241D01*
X209139938Y-68397242D01*
X209139937Y-68397242D01*
X208894072Y-68499082D01*
X208633063Y-68551000D01*
X208366937Y-68551000D01*
X208105928Y-68499082D01*
X207860063Y-68397242D01*
X207860062Y-68397242D01*
X207860061Y-68397241D01*
X207674775Y-68273436D01*
X207638789Y-68249391D01*
X207450609Y-68061211D01*
X207340543Y-67896486D01*
X207302759Y-67839939D01*
X207200918Y-67594072D01*
X207149000Y-67333062D01*
X207149000Y-67066938D01*
X207200918Y-66805928D01*
X207302759Y-66560061D01*
X207377187Y-66448672D01*
X207450609Y-66338789D01*
X207638789Y-66150609D01*
X207796543Y-66045201D01*
X207860061Y-66002759D01*
X208105928Y-65900918D01*
X208366937Y-65849000D01*
X208633063Y-65849000D01*
X208894072Y-65900918D01*
X208894072Y-65900918D01*
G37*
G36*
X213296000Y-68491000D02*
G01*
X211194000Y-68491000D01*
X211194000Y-67489000D01*
X213296000Y-67489000D01*
X213296000Y-68491000D01*
X213296000Y-68491000D01*
G37*
G36*
X135064903Y-65697075D02*
G01*
X135276546Y-65784740D01*
X135292571Y-65791378D01*
X135497466Y-65928285D01*
X135671715Y-66102534D01*
X135703838Y-66150610D01*
X135808623Y-66307431D01*
X135902925Y-66535097D01*
X135925980Y-66651000D01*
X135951000Y-66776787D01*
X135951000Y-67023213D01*
X135902925Y-67264903D01*
X135808622Y-67492571D01*
X135671715Y-67697466D01*
X135497466Y-67871715D01*
X135292571Y-68008622D01*
X135292570Y-68008623D01*
X135292569Y-68008623D01*
X135064903Y-68102925D01*
X134823214Y-68151000D01*
X134576786Y-68151000D01*
X134335097Y-68102925D01*
X134107431Y-68008623D01*
X134107430Y-68008623D01*
X134107429Y-68008622D01*
X133902534Y-67871715D01*
X133728285Y-67697466D01*
X133591378Y-67492571D01*
X133497075Y-67264903D01*
X133449000Y-67023213D01*
X133449000Y-66776787D01*
X133474021Y-66651000D01*
X133497075Y-66535097D01*
X133591377Y-66307431D01*
X133696162Y-66150610D01*
X133728285Y-66102534D01*
X133902534Y-65928285D01*
X134107429Y-65791378D01*
X134123455Y-65784740D01*
X134335097Y-65697075D01*
X134576786Y-65649000D01*
X134823214Y-65649000D01*
X135064903Y-65697075D01*
X135064903Y-65697075D01*
G37*
G36*
X143451000Y-68151000D02*
G01*
X140949000Y-68151000D01*
X140949000Y-65649000D01*
X143451000Y-65649000D01*
X143451000Y-68151000D01*
X143451000Y-68151000D01*
G37*
G36*
X213296000Y-67221000D02*
G01*
X211194000Y-67221000D01*
X211194000Y-66219000D01*
X213296000Y-66219000D01*
X213296000Y-67221000D01*
X213296000Y-67221000D01*
G37*
G36*
X127424549Y-64371116D02*
G01*
X127535734Y-64393232D01*
X127745203Y-64479997D01*
X127933720Y-64605960D01*
X128094040Y-64766280D01*
X128220003Y-64954797D01*
X128306768Y-65164266D01*
X128351000Y-65386636D01*
X128351000Y-65613364D01*
X128306768Y-65835734D01*
X128220003Y-66045203D01*
X128094040Y-66233720D01*
X127933720Y-66394040D01*
X127745203Y-66520003D01*
X127535734Y-66606768D01*
X127424549Y-66628884D01*
X127313365Y-66651000D01*
X127086635Y-66651000D01*
X126975451Y-66628884D01*
X126864266Y-66606768D01*
X126654797Y-66520003D01*
X126466280Y-66394040D01*
X126305960Y-66233720D01*
X126179997Y-66045203D01*
X126093232Y-65835734D01*
X126049000Y-65613364D01*
X126049000Y-65386636D01*
X126093232Y-65164266D01*
X126179997Y-64954797D01*
X126305960Y-64766280D01*
X126466280Y-64605960D01*
X126654797Y-64479997D01*
X126864266Y-64393232D01*
X126975451Y-64371116D01*
X127086635Y-64349000D01*
X127313365Y-64349000D01*
X127424549Y-64371116D01*
X127424549Y-64371116D01*
G37*
G36*
X117424549Y-64371116D02*
G01*
X117535734Y-64393232D01*
X117745203Y-64479997D01*
X117933720Y-64605960D01*
X118094040Y-64766280D01*
X118220003Y-64954797D01*
X118306768Y-65164266D01*
X118351000Y-65386636D01*
X118351000Y-65613364D01*
X118306768Y-65835734D01*
X118220003Y-66045203D01*
X118094040Y-66233720D01*
X117933720Y-66394040D01*
X117745203Y-66520003D01*
X117535734Y-66606768D01*
X117424549Y-66628884D01*
X117313365Y-66651000D01*
X117086635Y-66651000D01*
X116975451Y-66628884D01*
X116864266Y-66606768D01*
X116654797Y-66520003D01*
X116466280Y-66394040D01*
X116305960Y-66233720D01*
X116179997Y-66045203D01*
X116093232Y-65835734D01*
X116049000Y-65613364D01*
X116049000Y-65386636D01*
X116093232Y-65164266D01*
X116179997Y-64954797D01*
X116305960Y-64766280D01*
X116466280Y-64605960D01*
X116654797Y-64479997D01*
X116864266Y-64393232D01*
X116975451Y-64371116D01*
X117086635Y-64349000D01*
X117313365Y-64349000D01*
X117424549Y-64371116D01*
X117424549Y-64371116D01*
G37*
G36*
X242194059Y-64777860D02*
G01*
X242330732Y-64834472D01*
X242453735Y-64916660D01*
X242558340Y-65021265D01*
X242558341Y-65021267D01*
X242640529Y-65144270D01*
X242697140Y-65280941D01*
X242726000Y-65426032D01*
X242726000Y-65573968D01*
X242697140Y-65719059D01*
X242643317Y-65849000D01*
X242640528Y-65855732D01*
X242558340Y-65978735D01*
X242453735Y-66083340D01*
X242330732Y-66165528D01*
X242330731Y-66165529D01*
X242330730Y-66165529D01*
X242194059Y-66222140D01*
X242048968Y-66251000D01*
X241901032Y-66251000D01*
X241755941Y-66222140D01*
X241619270Y-66165529D01*
X241619269Y-66165529D01*
X241619268Y-66165528D01*
X241496265Y-66083340D01*
X241391660Y-65978735D01*
X241309472Y-65855732D01*
X241306684Y-65849000D01*
X241252860Y-65719059D01*
X241224000Y-65573968D01*
X241224000Y-65426032D01*
X241252860Y-65280941D01*
X241309471Y-65144270D01*
X241391659Y-65021267D01*
X241391660Y-65021265D01*
X241496265Y-64916660D01*
X241619268Y-64834472D01*
X241755941Y-64777860D01*
X241901032Y-64749000D01*
X242048968Y-64749000D01*
X242194059Y-64777860D01*
X242194059Y-64777860D01*
G37*
G36*
X187152585Y-63058802D02*
G01*
X187302410Y-63088604D01*
X187584674Y-63205521D01*
X187838705Y-63375259D01*
X188054741Y-63591295D01*
X188224479Y-63845326D01*
X188341396Y-64127590D01*
X188341396Y-64127591D01*
X188401000Y-64427239D01*
X188401000Y-64732761D01*
X188380768Y-64834472D01*
X188341396Y-65032410D01*
X188224479Y-65314674D01*
X188054741Y-65568705D01*
X187838705Y-65784741D01*
X187584674Y-65954479D01*
X187302410Y-66071396D01*
X187242363Y-66083340D01*
X187002761Y-66131000D01*
X186697239Y-66131000D01*
X186457637Y-66083340D01*
X186397590Y-66071396D01*
X186115326Y-65954479D01*
X185861295Y-65784741D01*
X185645259Y-65568705D01*
X185475521Y-65314674D01*
X185358604Y-65032410D01*
X185319232Y-64834472D01*
X185299000Y-64732761D01*
X185299000Y-64427239D01*
X185358604Y-64127591D01*
X185358604Y-64127590D01*
X185475521Y-63845326D01*
X185645259Y-63591295D01*
X185861295Y-63375259D01*
X186115326Y-63205521D01*
X186397590Y-63088604D01*
X186547415Y-63058802D01*
X186697239Y-63029000D01*
X187002761Y-63029000D01*
X187152585Y-63058802D01*
X187152585Y-63058802D01*
G37*
G36*
X174452585Y-63058802D02*
G01*
X174602410Y-63088604D01*
X174884674Y-63205521D01*
X175138705Y-63375259D01*
X175354741Y-63591295D01*
X175524479Y-63845326D01*
X175641396Y-64127590D01*
X175641396Y-64127591D01*
X175701000Y-64427239D01*
X175701000Y-64732761D01*
X175680768Y-64834472D01*
X175641396Y-65032410D01*
X175524479Y-65314674D01*
X175354741Y-65568705D01*
X175138705Y-65784741D01*
X174884674Y-65954479D01*
X174602410Y-66071396D01*
X174542363Y-66083340D01*
X174302761Y-66131000D01*
X173997239Y-66131000D01*
X173757637Y-66083340D01*
X173697590Y-66071396D01*
X173415326Y-65954479D01*
X173161295Y-65784741D01*
X172945259Y-65568705D01*
X172775521Y-65314674D01*
X172658604Y-65032410D01*
X172619232Y-64834472D01*
X172599000Y-64732761D01*
X172599000Y-64427239D01*
X172658604Y-64127591D01*
X172658604Y-64127590D01*
X172775521Y-63845326D01*
X172945259Y-63591295D01*
X173161295Y-63375259D01*
X173415326Y-63205521D01*
X173697590Y-63088604D01*
X173847415Y-63058802D01*
X173997239Y-63029000D01*
X174302761Y-63029000D01*
X174452585Y-63058802D01*
X174452585Y-63058802D01*
G37*
G36*
X213296000Y-65951000D02*
G01*
X211194000Y-65951000D01*
X211194000Y-64949000D01*
X213296000Y-64949000D01*
X213296000Y-65951000D01*
X213296000Y-65951000D01*
G37*
G36*
X213296000Y-64681000D02*
G01*
X211194000Y-64681000D01*
X211194000Y-63679000D01*
X213296000Y-63679000D01*
X213296000Y-64681000D01*
X213296000Y-64681000D01*
G37*
G36*
X105306564Y-62489389D02*
G01*
X105497833Y-62568615D01*
X105497835Y-62568616D01*
X105669973Y-62683635D01*
X105816365Y-62830027D01*
X105828527Y-62848228D01*
X105931385Y-63002167D01*
X106010611Y-63193436D01*
X106051000Y-63396484D01*
X106051000Y-63603516D01*
X106010611Y-63806564D01*
X106002560Y-63826000D01*
X105931384Y-63997835D01*
X105816365Y-64169973D01*
X105669973Y-64316365D01*
X105497835Y-64431384D01*
X105497834Y-64431385D01*
X105497833Y-64431385D01*
X105306564Y-64510611D01*
X105103516Y-64551000D01*
X104896484Y-64551000D01*
X104693436Y-64510611D01*
X104502167Y-64431385D01*
X104502166Y-64431385D01*
X104502165Y-64431384D01*
X104330027Y-64316365D01*
X104183635Y-64169973D01*
X104068616Y-63997835D01*
X103997440Y-63826000D01*
X103989389Y-63806564D01*
X103949000Y-63603516D01*
X103949000Y-63396484D01*
X103989389Y-63193436D01*
X104068615Y-63002167D01*
X104171474Y-62848228D01*
X104183635Y-62830027D01*
X104330027Y-62683635D01*
X104502165Y-62568616D01*
X104502167Y-62568615D01*
X104693436Y-62489389D01*
X104896484Y-62449000D01*
X105103516Y-62449000D01*
X105306564Y-62489389D01*
X105306564Y-62489389D01*
G37*
G36*
X199601000Y-63851000D02*
G01*
X197099000Y-63851000D01*
X197099000Y-61349000D01*
X199601000Y-61349000D01*
X199601000Y-63851000D01*
X199601000Y-63851000D01*
G37*
G36*
X224806000Y-63826000D02*
G01*
X219704000Y-63826000D01*
X219704000Y-58724000D01*
X224806000Y-58724000D01*
X224806000Y-63826000D01*
X224806000Y-63826000D01*
G37*
G36*
X156151000Y-63451000D02*
G01*
X154449000Y-63451000D01*
X154449000Y-61749000D01*
X156151000Y-61749000D01*
X156151000Y-63451000D01*
X156151000Y-63451000D01*
G37*
G36*
X153548228Y-61781703D02*
G01*
X153703100Y-61845853D01*
X153842481Y-61938985D01*
X153961015Y-62057519D01*
X154054147Y-62196900D01*
X154118297Y-62351772D01*
X154151000Y-62516184D01*
X154151000Y-62683816D01*
X154118297Y-62848228D01*
X154054147Y-63003100D01*
X153961015Y-63142481D01*
X153842481Y-63261015D01*
X153703100Y-63354147D01*
X153548228Y-63418297D01*
X153383816Y-63451000D01*
X153216184Y-63451000D01*
X153051772Y-63418297D01*
X152896900Y-63354147D01*
X152757519Y-63261015D01*
X152638985Y-63142481D01*
X152545853Y-63003100D01*
X152481703Y-62848228D01*
X152449000Y-62683816D01*
X152449000Y-62516184D01*
X152481703Y-62351772D01*
X152545853Y-62196900D01*
X152638985Y-62057519D01*
X152757519Y-61938985D01*
X152896900Y-61845853D01*
X153051772Y-61781703D01*
X153216184Y-61749000D01*
X153383816Y-61749000D01*
X153548228Y-61781703D01*
X153548228Y-61781703D01*
G37*
G36*
X213296000Y-63411000D02*
G01*
X211194000Y-63411000D01*
X211194000Y-62409000D01*
X213296000Y-62409000D01*
X213296000Y-63411000D01*
X213296000Y-63411000D01*
G37*
G36*
X242194059Y-60967860D02*
G01*
X242330732Y-61024472D01*
X242453735Y-61106660D01*
X242558340Y-61211265D01*
X242640528Y-61334268D01*
X242640529Y-61334270D01*
X242697140Y-61470941D01*
X242726000Y-61616032D01*
X242726000Y-61763968D01*
X242697140Y-61909059D01*
X242656893Y-62006225D01*
X242640528Y-62045732D01*
X242558340Y-62168735D01*
X242453735Y-62273340D01*
X242330732Y-62355528D01*
X242330731Y-62355529D01*
X242330730Y-62355529D01*
X242194059Y-62412140D01*
X242048968Y-62441000D01*
X241901032Y-62441000D01*
X241755941Y-62412140D01*
X241619270Y-62355529D01*
X241619269Y-62355529D01*
X241619268Y-62355528D01*
X241496265Y-62273340D01*
X241391660Y-62168735D01*
X241309472Y-62045732D01*
X241293108Y-62006225D01*
X241252860Y-61909059D01*
X241224000Y-61763968D01*
X241224000Y-61616032D01*
X241252860Y-61470941D01*
X241309471Y-61334270D01*
X241309472Y-61334268D01*
X241391660Y-61211265D01*
X241496265Y-61106660D01*
X241619268Y-61024472D01*
X241755941Y-60967860D01*
X241901032Y-60939000D01*
X242048968Y-60939000D01*
X242194059Y-60967860D01*
X242194059Y-60967860D01*
G37*
G36*
X113077395Y-60485546D02*
G01*
X113250466Y-60557234D01*
X113250467Y-60557235D01*
X113406227Y-60661310D01*
X113538690Y-60793773D01*
X113538691Y-60793775D01*
X113642766Y-60949534D01*
X113714454Y-61122605D01*
X113751000Y-61306333D01*
X113751000Y-61493667D01*
X113714454Y-61677395D01*
X113642766Y-61850466D01*
X113642765Y-61850467D01*
X113538690Y-62006227D01*
X113406227Y-62138690D01*
X113361264Y-62168733D01*
X113250466Y-62242766D01*
X113077395Y-62314454D01*
X112893667Y-62351000D01*
X112706333Y-62351000D01*
X112522605Y-62314454D01*
X112349534Y-62242766D01*
X112238736Y-62168733D01*
X112193773Y-62138690D01*
X112061310Y-62006227D01*
X111957235Y-61850467D01*
X111957234Y-61850466D01*
X111885546Y-61677395D01*
X111849000Y-61493667D01*
X111849000Y-61306333D01*
X111885546Y-61122605D01*
X111957234Y-60949534D01*
X112061309Y-60793775D01*
X112061310Y-60793773D01*
X112193773Y-60661310D01*
X112349533Y-60557235D01*
X112349534Y-60557234D01*
X112522605Y-60485546D01*
X112706333Y-60449000D01*
X112893667Y-60449000D01*
X113077395Y-60485546D01*
X113077395Y-60485546D01*
G37*
G36*
X213296000Y-62141000D02*
G01*
X211194000Y-62141000D01*
X211194000Y-61139000D01*
X213296000Y-61139000D01*
X213296000Y-62141000D01*
X213296000Y-62141000D01*
G37*
G36*
X187089633Y-57966280D02*
G01*
X187302410Y-58008604D01*
X187584674Y-58125521D01*
X187838705Y-58295259D01*
X188054741Y-58511295D01*
X188224479Y-58765326D01*
X188341396Y-59047590D01*
X188401000Y-59347240D01*
X188401000Y-59652760D01*
X188341396Y-59952410D01*
X188224479Y-60234674D01*
X188054741Y-60488705D01*
X187838705Y-60704741D01*
X187584674Y-60874479D01*
X187302410Y-60991396D01*
X187152585Y-61021198D01*
X187002761Y-61051000D01*
X186697239Y-61051000D01*
X186547415Y-61021198D01*
X186397590Y-60991396D01*
X186115326Y-60874479D01*
X185861295Y-60704741D01*
X185645259Y-60488705D01*
X185475521Y-60234674D01*
X185358604Y-59952410D01*
X185299000Y-59652760D01*
X185299000Y-59347240D01*
X185358604Y-59047590D01*
X185475521Y-58765326D01*
X185645259Y-58511295D01*
X185861295Y-58295259D01*
X186115326Y-58125521D01*
X186397590Y-58008604D01*
X186610367Y-57966280D01*
X186697239Y-57949000D01*
X187002761Y-57949000D01*
X187089633Y-57966280D01*
X187089633Y-57966280D01*
G37*
G36*
X174389633Y-57966280D02*
G01*
X174602410Y-58008604D01*
X174884674Y-58125521D01*
X175138705Y-58295259D01*
X175354741Y-58511295D01*
X175524479Y-58765326D01*
X175641396Y-59047590D01*
X175701000Y-59347240D01*
X175701000Y-59652760D01*
X175641396Y-59952410D01*
X175524479Y-60234674D01*
X175354741Y-60488705D01*
X175138705Y-60704741D01*
X174884674Y-60874479D01*
X174602410Y-60991396D01*
X174452585Y-61021198D01*
X174302761Y-61051000D01*
X173997239Y-61051000D01*
X173847415Y-61021198D01*
X173697590Y-60991396D01*
X173415326Y-60874479D01*
X173161295Y-60704741D01*
X172945259Y-60488705D01*
X172775521Y-60234674D01*
X172658604Y-59952410D01*
X172599000Y-59652760D01*
X172599000Y-59347240D01*
X172658604Y-59047590D01*
X172775521Y-58765326D01*
X172945259Y-58511295D01*
X173161295Y-58295259D01*
X173415326Y-58125521D01*
X173697590Y-58008604D01*
X173910367Y-57966280D01*
X173997239Y-57949000D01*
X174302761Y-57949000D01*
X174389633Y-57966280D01*
X174389633Y-57966280D01*
G37*
G36*
X213296000Y-60871000D02*
G01*
X211194000Y-60871000D01*
X211194000Y-59869000D01*
X213296000Y-59869000D01*
X213296000Y-60871000D01*
X213296000Y-60871000D01*
G37*
G36*
X116024549Y-57571116D02*
G01*
X116135734Y-57593232D01*
X116345203Y-57679997D01*
X116533720Y-57805960D01*
X116694040Y-57966280D01*
X116820003Y-58154797D01*
X116906768Y-58364266D01*
X116951000Y-58586636D01*
X116951000Y-58813364D01*
X116906768Y-59035734D01*
X116820003Y-59245203D01*
X116694040Y-59433720D01*
X116533720Y-59594040D01*
X116345203Y-59720003D01*
X116135734Y-59806768D01*
X116024549Y-59828884D01*
X115913365Y-59851000D01*
X115686635Y-59851000D01*
X115575451Y-59828884D01*
X115464266Y-59806768D01*
X115254797Y-59720003D01*
X115066280Y-59594040D01*
X114905960Y-59433720D01*
X114779997Y-59245203D01*
X114693232Y-59035734D01*
X114649000Y-58813364D01*
X114649000Y-58586636D01*
X114693232Y-58364266D01*
X114779997Y-58154797D01*
X114905960Y-57966280D01*
X115066280Y-57805960D01*
X115254797Y-57679997D01*
X115464266Y-57593232D01*
X115575451Y-57571116D01*
X115686635Y-57549000D01*
X115913365Y-57549000D01*
X116024549Y-57571116D01*
X116024549Y-57571116D01*
G37*
G36*
X131024549Y-57571116D02*
G01*
X131135734Y-57593232D01*
X131345203Y-57679997D01*
X131533720Y-57805960D01*
X131694040Y-57966280D01*
X131820003Y-58154797D01*
X131906768Y-58364266D01*
X131951000Y-58586636D01*
X131951000Y-58813364D01*
X131906768Y-59035734D01*
X131820003Y-59245203D01*
X131694040Y-59433720D01*
X131533720Y-59594040D01*
X131345203Y-59720003D01*
X131135734Y-59806768D01*
X131024549Y-59828884D01*
X130913365Y-59851000D01*
X130686635Y-59851000D01*
X130575451Y-59828884D01*
X130464266Y-59806768D01*
X130254797Y-59720003D01*
X130066280Y-59594040D01*
X129905960Y-59433720D01*
X129779997Y-59245203D01*
X129693232Y-59035734D01*
X129649000Y-58813364D01*
X129649000Y-58586636D01*
X129693232Y-58364266D01*
X129779997Y-58154797D01*
X129905960Y-57966280D01*
X130066280Y-57805960D01*
X130254797Y-57679997D01*
X130464266Y-57593232D01*
X130575451Y-57571116D01*
X130686635Y-57549000D01*
X130913365Y-57549000D01*
X131024549Y-57571116D01*
X131024549Y-57571116D01*
G37*
G36*
X213296000Y-59601000D02*
G01*
X211194000Y-59601000D01*
X211194000Y-58599000D01*
X213296000Y-58599000D01*
X213296000Y-59601000D01*
X213296000Y-59601000D01*
G37*
G36*
X246035787Y-51585462D02*
G01*
X246035790Y-51585463D01*
X246035789Y-51585463D01*
X246682029Y-51853144D01*
X247263631Y-52241758D01*
X247758242Y-52736369D01*
X248146856Y-53317971D01*
X248291271Y-53666620D01*
X248414538Y-53964213D01*
X248551000Y-54650256D01*
X248551000Y-55349744D01*
X248414538Y-56035787D01*
X248414537Y-56035789D01*
X248146856Y-56682029D01*
X247758242Y-57263631D01*
X247263631Y-57758242D01*
X246682029Y-58146856D01*
X246237465Y-58331000D01*
X246035787Y-58414538D01*
X245349744Y-58551000D01*
X244650256Y-58551000D01*
X243964213Y-58414538D01*
X243762535Y-58331000D01*
X243317971Y-58146856D01*
X242736369Y-57758242D01*
X242241758Y-57263631D01*
X241853144Y-56682029D01*
X241585463Y-56035789D01*
X241585462Y-56035787D01*
X241449000Y-55349744D01*
X241449000Y-54650256D01*
X241585462Y-53964213D01*
X241708729Y-53666620D01*
X241853144Y-53317971D01*
X242241758Y-52736369D01*
X242736369Y-52241758D01*
X243317971Y-51853144D01*
X243964211Y-51585463D01*
X243964210Y-51585463D01*
X243964213Y-51585462D01*
X244650256Y-51449000D01*
X245349744Y-51449000D01*
X246035787Y-51585462D01*
X246035787Y-51585462D01*
G37*
G36*
X106035787Y-51585462D02*
G01*
X106035790Y-51585463D01*
X106035789Y-51585463D01*
X106682029Y-51853144D01*
X107263631Y-52241758D01*
X107758242Y-52736369D01*
X108146856Y-53317971D01*
X108291271Y-53666620D01*
X108414538Y-53964213D01*
X108551000Y-54650256D01*
X108551000Y-55349744D01*
X108414538Y-56035787D01*
X108414537Y-56035789D01*
X108146856Y-56682029D01*
X107758242Y-57263631D01*
X107263631Y-57758242D01*
X106682029Y-58146856D01*
X106237465Y-58331000D01*
X106035787Y-58414538D01*
X105349744Y-58551000D01*
X104650256Y-58551000D01*
X103964213Y-58414538D01*
X103762535Y-58331000D01*
X103317971Y-58146856D01*
X102736369Y-57758242D01*
X102241758Y-57263631D01*
X101853144Y-56682029D01*
X101585463Y-56035789D01*
X101585462Y-56035787D01*
X101449000Y-55349744D01*
X101449000Y-54650256D01*
X101585462Y-53964213D01*
X101708729Y-53666620D01*
X101853144Y-53317971D01*
X102241758Y-52736369D01*
X102736369Y-52241758D01*
X103317971Y-51853144D01*
X103964211Y-51585463D01*
X103964210Y-51585463D01*
X103964213Y-51585462D01*
X104650256Y-51449000D01*
X105349744Y-51449000D01*
X106035787Y-51585462D01*
X106035787Y-51585462D01*
G37*
G36*
X213296000Y-58331000D02*
G01*
X211194000Y-58331000D01*
X211194000Y-57329000D01*
X213296000Y-57329000D01*
X213296000Y-58331000D01*
X213296000Y-58331000D01*
G37*
G36*
X213296000Y-57061000D02*
G01*
X211194000Y-57061000D01*
X211194000Y-56059000D01*
X213296000Y-56059000D01*
X213296000Y-57061000D01*
X213296000Y-57061000D01*
G37*
G36*
X198507309Y-53855782D02*
G01*
X198714903Y-53897075D01*
X198942571Y-53991378D01*
X199147466Y-54128285D01*
X199321715Y-54302534D01*
X199458622Y-54507429D01*
X199458623Y-54507431D01*
X199552925Y-54735097D01*
X199601000Y-54976786D01*
X199601000Y-55223214D01*
X199552925Y-55464903D01*
X199486719Y-55624740D01*
X199458622Y-55692571D01*
X199321715Y-55897466D01*
X199147466Y-56071715D01*
X198942571Y-56208622D01*
X198942570Y-56208623D01*
X198942569Y-56208623D01*
X198714903Y-56302925D01*
X198473214Y-56351000D01*
X198226786Y-56351000D01*
X197985097Y-56302925D01*
X197757431Y-56208623D01*
X197757430Y-56208623D01*
X197757429Y-56208622D01*
X197552534Y-56071715D01*
X197378285Y-55897466D01*
X197241378Y-55692571D01*
X197213282Y-55624740D01*
X197147075Y-55464903D01*
X197099000Y-55223214D01*
X197099000Y-54976786D01*
X197147075Y-54735097D01*
X197241377Y-54507431D01*
X197241378Y-54507429D01*
X197378285Y-54302534D01*
X197552534Y-54128285D01*
X197757429Y-53991378D01*
X197985097Y-53897075D01*
X198192691Y-53855782D01*
X198226786Y-53849000D01*
X198473214Y-53849000D01*
X198507309Y-53855782D01*
X198507309Y-53855782D01*
G37*
G36*
X187152585Y-52898802D02*
G01*
X187302410Y-52928604D01*
X187584674Y-53045521D01*
X187838705Y-53215259D01*
X188054741Y-53431295D01*
X188224479Y-53685326D01*
X188341396Y-53967590D01*
X188371198Y-54117415D01*
X188401000Y-54267239D01*
X188401000Y-54572761D01*
X188385585Y-54650256D01*
X188341396Y-54872410D01*
X188224479Y-55154674D01*
X188054741Y-55408705D01*
X187838705Y-55624741D01*
X187584674Y-55794479D01*
X187302410Y-55911396D01*
X187152585Y-55941198D01*
X187002761Y-55971000D01*
X186697239Y-55971000D01*
X186547415Y-55941198D01*
X186397590Y-55911396D01*
X186115326Y-55794479D01*
X185861295Y-55624741D01*
X185645259Y-55408705D01*
X185475521Y-55154674D01*
X185358604Y-54872410D01*
X185314415Y-54650256D01*
X185299000Y-54572761D01*
X185299000Y-54267239D01*
X185328802Y-54117415D01*
X185358604Y-53967590D01*
X185475521Y-53685326D01*
X185645259Y-53431295D01*
X185861295Y-53215259D01*
X186115326Y-53045521D01*
X186397590Y-52928604D01*
X186547415Y-52898802D01*
X186697239Y-52869000D01*
X187002761Y-52869000D01*
X187152585Y-52898802D01*
X187152585Y-52898802D01*
G37*
G36*
X174452585Y-52898802D02*
G01*
X174602410Y-52928604D01*
X174884674Y-53045521D01*
X175138705Y-53215259D01*
X175354741Y-53431295D01*
X175524479Y-53685326D01*
X175641396Y-53967590D01*
X175671198Y-54117415D01*
X175701000Y-54267239D01*
X175701000Y-54572761D01*
X175685585Y-54650256D01*
X175641396Y-54872410D01*
X175524479Y-55154674D01*
X175354741Y-55408705D01*
X175138705Y-55624741D01*
X174884674Y-55794479D01*
X174602410Y-55911396D01*
X174452585Y-55941198D01*
X174302761Y-55971000D01*
X173997239Y-55971000D01*
X173847415Y-55941198D01*
X173697590Y-55911396D01*
X173415326Y-55794479D01*
X173161295Y-55624741D01*
X172945259Y-55408705D01*
X172775521Y-55154674D01*
X172658604Y-54872410D01*
X172614415Y-54650256D01*
X172599000Y-54572761D01*
X172599000Y-54267239D01*
X172628802Y-54117415D01*
X172658604Y-53967590D01*
X172775521Y-53685326D01*
X172945259Y-53431295D01*
X173161295Y-53215259D01*
X173415326Y-53045521D01*
X173697590Y-52928604D01*
X173847415Y-52898802D01*
X173997239Y-52869000D01*
X174302761Y-52869000D01*
X174452585Y-52898802D01*
X174452585Y-52898802D01*
G37*
G36*
X164236719Y-53063520D02*
G01*
X164425880Y-53120901D01*
X164425883Y-53120902D01*
X164482192Y-53151000D01*
X164600212Y-53214083D01*
X164753015Y-53339485D01*
X164878417Y-53492288D01*
X164971599Y-53666619D01*
X165028980Y-53855780D01*
X165043500Y-54003206D01*
X165043500Y-54196793D01*
X165028980Y-54344219D01*
X164979471Y-54507429D01*
X164971598Y-54533383D01*
X164953986Y-54566332D01*
X164878417Y-54707712D01*
X164753015Y-54860515D01*
X164600212Y-54985917D01*
X164425881Y-55079099D01*
X164236720Y-55136480D01*
X164040000Y-55155855D01*
X163843281Y-55136480D01*
X163654120Y-55079099D01*
X163479788Y-54985917D01*
X163326985Y-54860515D01*
X163201583Y-54707712D01*
X163108401Y-54533381D01*
X163051020Y-54344220D01*
X163036500Y-54196794D01*
X163036500Y-54003207D01*
X163051020Y-53855781D01*
X163108401Y-53666620D01*
X163108402Y-53666617D01*
X163200583Y-53494159D01*
X163201583Y-53492288D01*
X163326985Y-53339485D01*
X163479788Y-53214083D01*
X163654119Y-53120901D01*
X163843280Y-53063520D01*
X164040000Y-53044145D01*
X164236719Y-53063520D01*
X164236719Y-53063520D01*
G37*
G36*
X151576719Y-53063520D02*
G01*
X151765880Y-53120901D01*
X151765883Y-53120902D01*
X151822192Y-53151000D01*
X151940212Y-53214083D01*
X152093015Y-53339485D01*
X152218417Y-53492288D01*
X152311599Y-53666619D01*
X152368980Y-53855780D01*
X152383500Y-54003206D01*
X152383500Y-54196793D01*
X152368980Y-54344219D01*
X152319471Y-54507429D01*
X152311598Y-54533383D01*
X152293986Y-54566332D01*
X152218417Y-54707712D01*
X152093015Y-54860515D01*
X151940212Y-54985917D01*
X151765881Y-55079099D01*
X151576720Y-55136480D01*
X151380000Y-55155855D01*
X151183281Y-55136480D01*
X150994120Y-55079099D01*
X150819788Y-54985917D01*
X150666985Y-54860515D01*
X150541583Y-54707712D01*
X150448401Y-54533381D01*
X150391020Y-54344220D01*
X150376500Y-54196794D01*
X150376500Y-54003207D01*
X150391020Y-53855781D01*
X150448401Y-53666620D01*
X150448402Y-53666617D01*
X150540583Y-53494159D01*
X150541583Y-53492288D01*
X150666985Y-53339485D01*
X150819788Y-53214083D01*
X150994119Y-53120901D01*
X151183280Y-53063520D01*
X151380000Y-53044145D01*
X151576719Y-53063520D01*
X151576719Y-53063520D01*
G37*
G36*
X166776719Y-53063520D02*
G01*
X166965880Y-53120901D01*
X166965883Y-53120902D01*
X167022192Y-53151000D01*
X167140212Y-53214083D01*
X167293015Y-53339485D01*
X167418417Y-53492288D01*
X167511599Y-53666619D01*
X167568980Y-53855780D01*
X167583500Y-54003206D01*
X167583500Y-54196793D01*
X167568980Y-54344219D01*
X167519471Y-54507429D01*
X167511598Y-54533383D01*
X167493986Y-54566332D01*
X167418417Y-54707712D01*
X167293015Y-54860515D01*
X167140212Y-54985917D01*
X166965881Y-55079099D01*
X166776720Y-55136480D01*
X166580000Y-55155855D01*
X166383281Y-55136480D01*
X166194120Y-55079099D01*
X166019788Y-54985917D01*
X165866985Y-54860515D01*
X165741583Y-54707712D01*
X165648401Y-54533381D01*
X165591020Y-54344220D01*
X165576500Y-54196794D01*
X165576500Y-54003207D01*
X165591020Y-53855781D01*
X165648401Y-53666620D01*
X165648402Y-53666617D01*
X165740583Y-53494159D01*
X165741583Y-53492288D01*
X165866985Y-53339485D01*
X166019788Y-53214083D01*
X166194119Y-53120901D01*
X166383280Y-53063520D01*
X166580000Y-53044145D01*
X166776719Y-53063520D01*
X166776719Y-53063520D01*
G37*
G36*
X149036719Y-53063520D02*
G01*
X149225880Y-53120901D01*
X149225883Y-53120902D01*
X149282192Y-53151000D01*
X149400212Y-53214083D01*
X149553015Y-53339485D01*
X149678417Y-53492288D01*
X149771599Y-53666619D01*
X149828980Y-53855780D01*
X149843500Y-54003206D01*
X149843500Y-54196793D01*
X149828980Y-54344219D01*
X149779471Y-54507429D01*
X149771598Y-54533383D01*
X149753986Y-54566332D01*
X149678417Y-54707712D01*
X149553015Y-54860515D01*
X149400212Y-54985917D01*
X149225881Y-55079099D01*
X149036720Y-55136480D01*
X148840000Y-55155855D01*
X148643281Y-55136480D01*
X148454120Y-55079099D01*
X148279788Y-54985917D01*
X148126985Y-54860515D01*
X148001583Y-54707712D01*
X147908401Y-54533381D01*
X147851020Y-54344220D01*
X147836500Y-54196794D01*
X147836500Y-54003207D01*
X147851020Y-53855781D01*
X147908401Y-53666620D01*
X147908402Y-53666617D01*
X148000583Y-53494159D01*
X148001583Y-53492288D01*
X148126985Y-53339485D01*
X148279788Y-53214083D01*
X148454119Y-53120901D01*
X148643280Y-53063520D01*
X148840000Y-53044145D01*
X149036719Y-53063520D01*
X149036719Y-53063520D01*
G37*
G36*
X162503500Y-55151000D02*
G01*
X160496500Y-55151000D01*
X160496500Y-53049000D01*
X162503500Y-53049000D01*
X162503500Y-55151000D01*
X162503500Y-55151000D01*
G37*
G36*
X147303500Y-55151000D02*
G01*
X145296500Y-55151000D01*
X145296500Y-53049000D01*
X147303500Y-53049000D01*
X147303500Y-55151000D01*
X147303500Y-55151000D01*
G37*
G36*
X125955256Y-51891298D02*
G01*
X126061579Y-51912447D01*
X126362042Y-52036903D01*
X126632451Y-52217585D01*
X126862415Y-52447549D01*
X127043097Y-52717958D01*
X127167553Y-53018421D01*
X127176524Y-53063520D01*
X127231000Y-53337389D01*
X127231000Y-53662611D01*
X127226481Y-53685328D01*
X127167553Y-53981579D01*
X127043097Y-54282042D01*
X126862415Y-54552451D01*
X126632451Y-54782415D01*
X126362042Y-54963097D01*
X126362041Y-54963098D01*
X126362040Y-54963098D01*
X126306950Y-54985917D01*
X126061579Y-55087553D01*
X125955256Y-55108702D01*
X125742611Y-55151000D01*
X125417389Y-55151000D01*
X125204744Y-55108702D01*
X125098421Y-55087553D01*
X124853050Y-54985917D01*
X124797960Y-54963098D01*
X124797959Y-54963098D01*
X124797958Y-54963097D01*
X124527549Y-54782415D01*
X124297585Y-54552451D01*
X124116903Y-54282042D01*
X123992447Y-53981579D01*
X123933519Y-53685328D01*
X123929000Y-53662611D01*
X123929000Y-53337389D01*
X123983476Y-53063520D01*
X123992447Y-53018421D01*
X124116903Y-52717958D01*
X124297585Y-52447549D01*
X124527549Y-52217585D01*
X124797958Y-52036903D01*
X125098421Y-51912447D01*
X125204744Y-51891298D01*
X125417389Y-51849000D01*
X125742611Y-51849000D01*
X125955256Y-51891298D01*
X125955256Y-51891298D01*
G37*
G36*
X208951000Y-55151000D02*
G01*
X207249000Y-55151000D01*
X207249000Y-53449000D01*
X208951000Y-53449000D01*
X208951000Y-55151000D01*
X208951000Y-55151000D01*
G37*
G36*
X117071000Y-55151000D02*
G01*
X113769000Y-55151000D01*
X113769000Y-51849000D01*
X117071000Y-51849000D01*
X117071000Y-55151000D01*
X117071000Y-55151000D01*
G37*
G36*
X131035256Y-51891298D02*
G01*
X131141579Y-51912447D01*
X131442042Y-52036903D01*
X131712451Y-52217585D01*
X131942415Y-52447549D01*
X132123097Y-52717958D01*
X132247553Y-53018421D01*
X132256524Y-53063520D01*
X132311000Y-53337389D01*
X132311000Y-53662611D01*
X132306481Y-53685328D01*
X132247553Y-53981579D01*
X132123097Y-54282042D01*
X131942415Y-54552451D01*
X131712451Y-54782415D01*
X131442042Y-54963097D01*
X131442041Y-54963098D01*
X131442040Y-54963098D01*
X131386950Y-54985917D01*
X131141579Y-55087553D01*
X131035256Y-55108702D01*
X130822611Y-55151000D01*
X130497389Y-55151000D01*
X130284744Y-55108702D01*
X130178421Y-55087553D01*
X129933050Y-54985917D01*
X129877960Y-54963098D01*
X129877959Y-54963098D01*
X129877958Y-54963097D01*
X129607549Y-54782415D01*
X129377585Y-54552451D01*
X129196903Y-54282042D01*
X129072447Y-53981579D01*
X129013519Y-53685328D01*
X129009000Y-53662611D01*
X129009000Y-53337389D01*
X129063476Y-53063520D01*
X129072447Y-53018421D01*
X129196903Y-52717958D01*
X129377585Y-52447549D01*
X129607549Y-52217585D01*
X129877958Y-52036903D01*
X130178421Y-51912447D01*
X130284744Y-51891298D01*
X130497389Y-51849000D01*
X130822611Y-51849000D01*
X131035256Y-51891298D01*
X131035256Y-51891298D01*
G37*
G36*
X120875256Y-51891298D02*
G01*
X120981579Y-51912447D01*
X121282042Y-52036903D01*
X121552451Y-52217585D01*
X121782415Y-52447549D01*
X121963097Y-52717958D01*
X122087553Y-53018421D01*
X122096524Y-53063520D01*
X122151000Y-53337389D01*
X122151000Y-53662611D01*
X122146481Y-53685328D01*
X122087553Y-53981579D01*
X121963097Y-54282042D01*
X121782415Y-54552451D01*
X121552451Y-54782415D01*
X121282042Y-54963097D01*
X121282041Y-54963098D01*
X121282040Y-54963098D01*
X121226950Y-54985917D01*
X120981579Y-55087553D01*
X120875256Y-55108702D01*
X120662611Y-55151000D01*
X120337389Y-55151000D01*
X120124744Y-55108702D01*
X120018421Y-55087553D01*
X119773050Y-54985917D01*
X119717960Y-54963098D01*
X119717959Y-54963098D01*
X119717958Y-54963097D01*
X119447549Y-54782415D01*
X119217585Y-54552451D01*
X119036903Y-54282042D01*
X118912447Y-53981579D01*
X118853519Y-53685328D01*
X118849000Y-53662611D01*
X118849000Y-53337389D01*
X118903476Y-53063520D01*
X118912447Y-53018421D01*
X119036903Y-52717958D01*
X119217585Y-52447549D01*
X119447549Y-52217585D01*
X119717958Y-52036903D01*
X120018421Y-51912447D01*
X120124744Y-51891298D01*
X120337389Y-51849000D01*
X120662611Y-51849000D01*
X120875256Y-51891298D01*
X120875256Y-51891298D01*
G37*
G36*
X217556000Y-54826000D02*
G01*
X216554000Y-54826000D01*
X216554000Y-52724000D01*
X217556000Y-52724000D01*
X217556000Y-54826000D01*
X217556000Y-54826000D01*
G37*
G36*
X225176000Y-54826000D02*
G01*
X224174000Y-54826000D01*
X224174000Y-52724000D01*
X225176000Y-52724000D01*
X225176000Y-54826000D01*
X225176000Y-54826000D01*
G37*
G36*
X222636000Y-54826000D02*
G01*
X221634000Y-54826000D01*
X221634000Y-52724000D01*
X222636000Y-52724000D01*
X222636000Y-54826000D01*
X222636000Y-54826000D01*
G37*
G36*
X221366000Y-54826000D02*
G01*
X220364000Y-54826000D01*
X220364000Y-52724000D01*
X221366000Y-52724000D01*
X221366000Y-54826000D01*
X221366000Y-54826000D01*
G37*
G36*
X220096000Y-54826000D02*
G01*
X219094000Y-54826000D01*
X219094000Y-52724000D01*
X220096000Y-52724000D01*
X220096000Y-54826000D01*
X220096000Y-54826000D01*
G37*
G36*
X218826000Y-54826000D02*
G01*
X217824000Y-54826000D01*
X217824000Y-52724000D01*
X218826000Y-52724000D01*
X218826000Y-54826000D01*
X218826000Y-54826000D01*
G37*
G36*
X216286000Y-54826000D02*
G01*
X215284000Y-54826000D01*
X215284000Y-52724000D01*
X216286000Y-52724000D01*
X216286000Y-54826000D01*
X216286000Y-54826000D01*
G37*
G36*
X213746000Y-54826000D02*
G01*
X212744000Y-54826000D01*
X212744000Y-52724000D01*
X213746000Y-52724000D01*
X213746000Y-54826000D01*
X213746000Y-54826000D01*
G37*
G36*
X223906000Y-54826000D02*
G01*
X222904000Y-54826000D01*
X222904000Y-52724000D01*
X223906000Y-52724000D01*
X223906000Y-54826000D01*
X223906000Y-54826000D01*
G37*
G36*
X226446000Y-54826000D02*
G01*
X225444000Y-54826000D01*
X225444000Y-52724000D01*
X226446000Y-52724000D01*
X226446000Y-54826000D01*
X226446000Y-54826000D01*
G37*
G36*
X227716000Y-54826000D02*
G01*
X226714000Y-54826000D01*
X226714000Y-52724000D01*
X227716000Y-52724000D01*
X227716000Y-54826000D01*
X227716000Y-54826000D01*
G37*
G36*
X228986000Y-54826000D02*
G01*
X227984000Y-54826000D01*
X227984000Y-52724000D01*
X228986000Y-52724000D01*
X228986000Y-54826000D01*
X228986000Y-54826000D01*
G37*
G36*
X230256000Y-54826000D02*
G01*
X229254000Y-54826000D01*
X229254000Y-52724000D01*
X230256000Y-52724000D01*
X230256000Y-54826000D01*
X230256000Y-54826000D01*
G37*
G36*
X215016000Y-54826000D02*
G01*
X214014000Y-54826000D01*
X214014000Y-52724000D01*
X215016000Y-52724000D01*
X215016000Y-54826000D01*
X215016000Y-54826000D01*
G37*
G36*
X208348228Y-51481703D02*
G01*
X208503100Y-51545853D01*
X208642481Y-51638985D01*
X208761015Y-51757519D01*
X208854147Y-51896900D01*
X208918297Y-52051772D01*
X208951000Y-52216184D01*
X208951000Y-52383816D01*
X208918297Y-52548228D01*
X208854147Y-52703100D01*
X208761015Y-52842481D01*
X208642481Y-52961015D01*
X208503100Y-53054147D01*
X208348228Y-53118297D01*
X208183816Y-53151000D01*
X208016184Y-53151000D01*
X207851772Y-53118297D01*
X207696900Y-53054147D01*
X207557519Y-52961015D01*
X207438985Y-52842481D01*
X207345853Y-52703100D01*
X207281703Y-52548228D01*
X207249000Y-52383816D01*
X207249000Y-52216184D01*
X207281703Y-52051772D01*
X207345853Y-51896900D01*
X207438985Y-51757519D01*
X207557519Y-51638985D01*
X207696900Y-51545853D01*
X207851772Y-51481703D01*
X208016184Y-51449000D01*
X208183816Y-51449000D01*
X208348228Y-51481703D01*
X208348228Y-51481703D01*
G37*
G36*
X217826000Y-52351000D02*
G01*
X216024000Y-52351000D01*
X216024000Y-50549000D01*
X217826000Y-50549000D01*
X217826000Y-52351000D01*
X217826000Y-52351000D01*
G37*
G36*
X219575442Y-50555518D02*
G01*
X219641627Y-50562037D01*
X219811466Y-50613557D01*
X219967991Y-50697222D01*
X220003729Y-50726552D01*
X220105186Y-50809814D01*
X220188448Y-50911271D01*
X220217778Y-50947009D01*
X220301443Y-51103534D01*
X220352963Y-51273373D01*
X220370359Y-51450000D01*
X220352963Y-51626627D01*
X220301443Y-51796466D01*
X220217778Y-51952991D01*
X220188448Y-51988729D01*
X220105186Y-52090186D01*
X220003729Y-52173448D01*
X219967991Y-52202778D01*
X219811466Y-52286443D01*
X219641627Y-52337963D01*
X219575442Y-52344482D01*
X219509260Y-52351000D01*
X219420740Y-52351000D01*
X219354558Y-52344482D01*
X219288373Y-52337963D01*
X219118534Y-52286443D01*
X218962009Y-52202778D01*
X218926271Y-52173448D01*
X218824814Y-52090186D01*
X218741552Y-51988729D01*
X218712222Y-51952991D01*
X218628557Y-51796466D01*
X218577037Y-51626627D01*
X218559641Y-51450000D01*
X218577037Y-51273373D01*
X218628557Y-51103534D01*
X218712222Y-50947009D01*
X218741552Y-50911271D01*
X218824814Y-50809814D01*
X218926271Y-50726552D01*
X218962009Y-50697222D01*
X219118534Y-50613557D01*
X219288373Y-50562037D01*
X219354557Y-50555519D01*
X219420740Y-50549000D01*
X219509260Y-50549000D01*
X219575442Y-50555518D01*
X219575442Y-50555518D01*
G37*
G36*
X222115442Y-50555518D02*
G01*
X222181627Y-50562037D01*
X222351466Y-50613557D01*
X222507991Y-50697222D01*
X222543729Y-50726552D01*
X222645186Y-50809814D01*
X222728448Y-50911271D01*
X222757778Y-50947009D01*
X222841443Y-51103534D01*
X222892963Y-51273373D01*
X222910359Y-51450000D01*
X222892963Y-51626627D01*
X222841443Y-51796466D01*
X222757778Y-51952991D01*
X222728448Y-51988729D01*
X222645186Y-52090186D01*
X222543729Y-52173448D01*
X222507991Y-52202778D01*
X222351466Y-52286443D01*
X222181627Y-52337963D01*
X222115442Y-52344482D01*
X222049260Y-52351000D01*
X221960740Y-52351000D01*
X221894558Y-52344482D01*
X221828373Y-52337963D01*
X221658534Y-52286443D01*
X221502009Y-52202778D01*
X221466271Y-52173448D01*
X221364814Y-52090186D01*
X221281552Y-51988729D01*
X221252222Y-51952991D01*
X221168557Y-51796466D01*
X221117037Y-51626627D01*
X221099641Y-51450000D01*
X221117037Y-51273373D01*
X221168557Y-51103534D01*
X221252222Y-50947009D01*
X221281552Y-50911271D01*
X221364814Y-50809814D01*
X221466271Y-50726552D01*
X221502009Y-50697222D01*
X221658534Y-50613557D01*
X221828373Y-50562037D01*
X221894557Y-50555519D01*
X221960740Y-50549000D01*
X222049260Y-50549000D01*
X222115442Y-50555518D01*
X222115442Y-50555518D01*
G37*
G36*
X224655442Y-50555518D02*
G01*
X224721627Y-50562037D01*
X224891466Y-50613557D01*
X225047991Y-50697222D01*
X225083729Y-50726552D01*
X225185186Y-50809814D01*
X225268448Y-50911271D01*
X225297778Y-50947009D01*
X225381443Y-51103534D01*
X225432963Y-51273373D01*
X225450359Y-51450000D01*
X225432963Y-51626627D01*
X225381443Y-51796466D01*
X225297778Y-51952991D01*
X225268448Y-51988729D01*
X225185186Y-52090186D01*
X225083729Y-52173448D01*
X225047991Y-52202778D01*
X224891466Y-52286443D01*
X224721627Y-52337963D01*
X224655442Y-52344482D01*
X224589260Y-52351000D01*
X224500740Y-52351000D01*
X224434558Y-52344482D01*
X224368373Y-52337963D01*
X224198534Y-52286443D01*
X224042009Y-52202778D01*
X224006271Y-52173448D01*
X223904814Y-52090186D01*
X223821552Y-51988729D01*
X223792222Y-51952991D01*
X223708557Y-51796466D01*
X223657037Y-51626627D01*
X223639641Y-51450000D01*
X223657037Y-51273373D01*
X223708557Y-51103534D01*
X223792222Y-50947009D01*
X223821552Y-50911271D01*
X223904814Y-50809814D01*
X224006271Y-50726552D01*
X224042009Y-50697222D01*
X224198534Y-50613557D01*
X224368373Y-50562037D01*
X224434557Y-50555519D01*
X224500740Y-50549000D01*
X224589260Y-50549000D01*
X224655442Y-50555518D01*
X224655442Y-50555518D01*
G37*
G36*
X227195442Y-50555518D02*
G01*
X227261627Y-50562037D01*
X227431466Y-50613557D01*
X227587991Y-50697222D01*
X227623729Y-50726552D01*
X227725186Y-50809814D01*
X227808448Y-50911271D01*
X227837778Y-50947009D01*
X227921443Y-51103534D01*
X227972963Y-51273373D01*
X227990359Y-51450000D01*
X227972963Y-51626627D01*
X227921443Y-51796466D01*
X227837778Y-51952991D01*
X227808448Y-51988729D01*
X227725186Y-52090186D01*
X227623729Y-52173448D01*
X227587991Y-52202778D01*
X227431466Y-52286443D01*
X227261627Y-52337963D01*
X227195442Y-52344482D01*
X227129260Y-52351000D01*
X227040740Y-52351000D01*
X226974558Y-52344482D01*
X226908373Y-52337963D01*
X226738534Y-52286443D01*
X226582009Y-52202778D01*
X226546271Y-52173448D01*
X226444814Y-52090186D01*
X226361552Y-51988729D01*
X226332222Y-51952991D01*
X226248557Y-51796466D01*
X226197037Y-51626627D01*
X226179641Y-51450000D01*
X226197037Y-51273373D01*
X226248557Y-51103534D01*
X226332222Y-50947009D01*
X226361552Y-50911271D01*
X226444814Y-50809814D01*
X226546271Y-50726552D01*
X226582009Y-50697222D01*
X226738534Y-50613557D01*
X226908373Y-50562037D01*
X226974557Y-50555519D01*
X227040740Y-50549000D01*
X227129260Y-50549000D01*
X227195442Y-50555518D01*
X227195442Y-50555518D01*
G37*
M02*
