M48
; DRILL file {KiCad 5.1.4+dfsg1-1} date So 05 Apr 2020 15:27:57 CEST
; FORMAT={-:-/ absolute / inch / decimal}
; #@! TF.CreationDate,2020-04-05T15:27:57+02:00
; #@! TF.GenerationSoftware,Kicad,Pcbnew,5.1.4+dfsg1-1
; #@! TF.FileFunction,Plated,1,2,PTH
FMAT,2
INCH
T1C0.0118
T2C0.0157
T3C0.0197
T4C0.0236
T5C0.0276
T6C0.0315
T7C0.0394
T8C0.0433
T9C0.0472
T10C0.0512
T11C0.0630
T12C0.1378
%
G90
G05
T1
X5.7362Y-2.7402
X5.8543Y-3.5669
X5.8642Y-3.5472
X5.8642Y-3.5866
X5.874Y-3.5669
X5.8819Y-2.685
X5.8839Y-3.5472
X5.8839Y-3.5866
X5.8937Y-3.5669
X5.9646Y-2.3622
X5.986Y-2.7624
X5.9882Y-2.3622
X6.0118Y-2.3622
X6.0236Y-2.3425
X6.0354Y-2.3622
X6.0591Y-2.3622
X6.1516Y-2.5354
X6.3657Y-2.2547
X6.4764Y-2.3189
X6.5Y-2.3189
X6.5236Y-2.3189
X6.5354Y-2.3386
X6.5354Y-2.3622
X6.5472Y-2.3189
X6.5709Y-2.3189
X6.5945Y-2.3189
X6.878Y-3.6654
X7.2835Y-3.311
X7.2874Y-3.6693
X7.3031Y-3.1024
X7.3071Y-3.5157
X7.3701Y-3.2638
X7.498Y-3.1319
X7.5276Y-2.5827
X7.5276Y-2.6024
X7.5276Y-2.8583
X7.5276Y-3.0591
X7.5276Y-3.2165
X7.5433Y-2.2283
X7.5866Y-2.4921
X7.6378Y-3.2953
X7.6417Y-2.8701
X7.6457Y-2.7559
X7.7283Y-2.7323
X7.7441Y-3.6496
X7.7677Y-2.2874
X7.7913Y-2.9567
X7.8819Y-2.6614
X7.9016Y-2.4803
X7.9094Y-2.2008
X7.9567Y-2.6614
X7.9606Y-2.8228
X7.9921Y-2.3425
X7.9921Y-2.4016
X7.9984Y-2.5375
X8.0118Y-2.372
X8.0256Y-2.5217
X8.0315Y-2.3425
X8.0315Y-2.4016
X8.0315Y-2.8425
X8.0433Y-2.7047
X8.0512Y-2.372
X8.0709Y-2.3425
X8.0709Y-2.4016
X8.1142Y-2.2008
X8.1417Y-2.4724
X8.1496Y-2.7008
X8.1535Y-2.5157
X8.1614Y-2.7756
X8.1732Y-2.311
X8.2126Y-3.5945
X8.2303Y-2.4587
X8.297Y-2.5295
X8.3189Y-2.7874
X8.3209Y-2.1811
X8.3228Y-2.9882
X8.3268Y-3.0512
X8.3307Y-3.1378
X8.3374Y-2.9244
X8.3465Y-3.4488
X8.3598Y-2.8508
X8.374Y-3.2795
X8.378Y-2.185
X8.3819Y-3.8189
X8.4154Y-2.9075
X8.4252Y-2.1831
X8.4331Y-2.2362
X8.4547Y-3.8465
X8.4665Y-2.0571
X8.4685Y-2.4173
X8.4685Y-2.9409
X8.4764Y-2.2205
X8.4783Y-3.4252
X8.4803Y-3.2008
X8.4803Y-3.2795
X8.4843Y-3.4724
X8.4986Y-2.1772
X8.5Y-2.3819
X8.5079Y-3.622
X8.5315Y-2.2047
X8.5354Y-2.4961
X8.5512Y-3.0197
X8.5534Y-2.2245
X8.563Y-2.2559
X8.5807Y-2.1969
X8.5935Y-2.9906
X8.6024Y-3.4606
X8.6063Y-3.8976
X8.622Y-2.503
X8.624Y-2.8927
X8.6339Y-2.5827
X8.6496Y-2.5551
X8.6732Y-3.2677
X8.6811Y-2.4016
X8.6811Y-2.4803
X8.7008Y-2.3622
X8.7008Y-2.4409
X8.7205Y-2.3228
X8.7205Y-2.4016
X8.7205Y-2.4803
X8.7402Y-2.2126
X8.7402Y-2.3622
X8.7402Y-2.4409
X8.7598Y-2.3228
X8.7598Y-2.4016
X8.7598Y-2.4803
X8.7677Y-2.9488
X8.7717Y-3.3937
X8.7795Y-2.3622
X8.7795Y-2.4409
X8.7992Y-2.3228
X8.7992Y-2.4016
X8.7992Y-2.4803
X8.7992Y-3.8504
X8.8012Y-2.1742
X8.8189Y-2.3622
X8.8189Y-2.4409
X8.8386Y-2.1742
X8.8386Y-2.3228
X8.8386Y-2.4016
X8.8386Y-2.4803
X8.8691Y-2.8907
X8.8701Y-2.1732
X8.8976Y-2.4921
X8.9016Y-2.8898
X8.9114Y-2.2224
X8.9173Y-2.8622
X8.9213Y-2.9449
X8.9252Y-3.0512
X8.9429Y-2.1791
X8.9724Y-3.3898
X8.9724Y-3.6378
X8.9803Y-2.8622
X8.9843Y-2.4094
X8.9862Y-2.5236
X9.0039Y-3.0315
X9.0147Y-2.8602
X9.0339Y-2.6039
X9.0394Y-2.2835
X9.0394Y-3.7756
X9.0413Y-2.1909
X9.0433Y-2.2165
X9.0551Y-2.4961
X9.061Y-3.5886
X9.0748Y-2.8543
X9.1181Y-2.9724
X9.1496Y-3.1378
X9.1713Y-2.7717
X9.2028Y-2.9094
X9.2323Y-3.685
X9.2323Y-3.8425
X9.2407Y-2.9094
X9.248Y-3.5118
X9.2539Y-3.7441
X9.2992Y-3.2913
X9.3031Y-3.1299
X9.3268Y-3.3504
X9.3534Y-3.4695
X9.3543Y-3.5512
X9.4567Y-3.0433
X9.4567Y-3.5709
X9.4764Y-3.1142
X9.5039Y-3.3898
X9.5925Y-2.7283
X9.6102Y-2.9193
X9.6181Y-3.0827
X9.685Y-2.9249
X9.6969Y-3.1102
X9.7205Y-3.0787
X9.7323Y-2.9252
X9.7343Y-2.7283
X9.7717Y-3.0866
X9.7913Y-2.5512
T2
X5.9094Y-2.563
X6.1181Y-2.8504
X6.1378Y-2.8307
T3
X9.5423Y-2.1654
X9.5726Y-2.0923
X9.5726Y-2.2384
X9.6457Y-2.062
X9.6457Y-2.2687
X9.7187Y-2.0923
X9.7187Y-2.2384
X9.749Y-2.1654
X4.0305Y-3.7402
X4.0608Y-3.6671
X4.0608Y-3.8132
X4.1339Y-3.6368
X4.1339Y-3.8435
X4.2069Y-3.6671
X4.2069Y-3.8132
X4.2372Y-3.7402
X4.0305Y-2.1654
X4.0608Y-2.0923
X4.0608Y-2.2384
X4.1339Y-2.062
X4.1339Y-2.2687
X4.2069Y-2.0923
X4.2069Y-2.2384
X4.2372Y-2.1654
X9.5423Y-3.7402
X9.5726Y-3.6671
X9.5726Y-3.8132
X9.6457Y-3.6368
X9.6457Y-3.8435
X9.7187Y-3.6671
X9.7187Y-3.8132
X9.749Y-3.7402
T4
X4.7402Y-3.6398
X4.815Y-3.2657
X4.5394Y-3.6398
X4.6142Y-3.2657
X4.5571Y-3.7992
X4.9311Y-3.874
T5
X9.5266Y-2.4287
X9.5266Y-2.5787
X9.5266Y-2.7287
T6
X6.0354Y-2.4646
X6.1142Y-2.4646
X5.9567Y-2.7205
X6.0354Y-2.7205
X8.2362Y-2.8504
X8.2362Y-2.9291
X8.2362Y-3.0866
X8.2362Y-3.1654
X6.9283Y-3.1559
X6.9283Y-3.2559
X7.2283Y-3.1559
X7.2283Y-3.2559
X9.0354Y-2.9331
X9.0354Y-3.1299
X8.1929Y-2.0591
X8.1929Y-2.1378
X9.0354Y-3.248
X9.0354Y-3.4449
X4.1063Y-2.8795
X4.4016Y-2.9701
X4.3858Y-2.7126
X4.4409Y-2.4173
X6.9283Y-3.3606
X6.9283Y-3.4606
X7.2283Y-3.3606
X7.2283Y-3.4606
T7
X4.1335Y-2.7
X4.1339Y-2.5
X8.5404Y-2.0256
X8.6404Y-2.0256
X8.7404Y-2.0256
X8.8404Y-2.0256
X8.9404Y-2.0256
X4.6732Y-2.6772
X4.6732Y-2.9921
X4.9488Y-2.6772
X4.9488Y-2.9921
T8
X6.3583Y-2.1299
X6.4583Y-2.1299
X6.5583Y-2.1299
X4.5591Y-2.311
X5.1496Y-2.311
X5.7598Y-2.1299
X5.8598Y-2.1299
X5.9598Y-2.1299
T9
X7.8091Y-2.1693
X7.8091Y-2.4646
X7.8091Y-2.8287
X7.8091Y-3.124
X6.4134Y-2.6732
X6.4134Y-2.9685
X5.3031Y-2.6339
X5.5984Y-2.6339
X7.5886Y-3.4547
X7.5886Y-3.75
X4.1988Y-3.3354
X4.3957Y-3.1976
X4.3957Y-3.4732
X9.2864Y-3.4154
X9.4833Y-3.2776
X5.1102Y-3.671
X5.2795Y-3.4291
X8.2579Y-3.4547
X8.2579Y-3.75
X9.2864Y-3.0413
X9.4833Y-2.9035
X4.6142Y-2.5787
X4.6142Y-3.0906
X5.0079Y-2.5787
X5.0079Y-3.0906
T10
X8.0906Y-2.6457
X8.2087Y-2.6457
X5.7323Y-2.9606
X5.8504Y-2.9606
X5.3819Y-3.1575
X5.4654Y-3.074
X5.6831Y-3.2634
X5.6831Y-3.7634
X5.8831Y-3.2634
X5.8831Y-3.7634
X6.0831Y-3.2634
X6.0831Y-3.7634
X6.2831Y-3.2634
X6.2831Y-3.7634
X6.4831Y-3.2634
X6.4831Y-3.7634
X6.8563Y-2.1425
X6.8563Y-2.3425
X6.8563Y-2.5425
X6.8563Y-2.7425
X6.8563Y-2.9425
X7.3563Y-2.1425
X7.3563Y-2.3425
X7.3563Y-2.5425
X7.3563Y-2.7425
X7.3563Y-2.9425
T11
X4.5441Y-2.1063
X4.7441Y-2.1063
X4.9441Y-2.1063
X5.1441Y-2.1063
T12
X9.6457Y-2.1654
X4.1339Y-3.7402
X4.1339Y-2.1654
X9.6457Y-3.7402
T0
M30
