G04 #@! TF.GenerationSoftware,KiCad,Pcbnew,5.1.4+dfsg1-1*
G04 #@! TF.CreationDate,2020-03-15T01:21:55+01:00*
G04 #@! TF.ProjectId,led-multiott,6c65642d-6d75-46c7-9469-6f74742e6b69,rev?*
G04 #@! TF.SameCoordinates,Original*
G04 #@! TF.FileFunction,Legend,Bot*
G04 #@! TF.FilePolarity,Positive*
%FSLAX46Y46*%
G04 Gerber Fmt 4.6, Leading zero omitted, Abs format (unit mm)*
G04 Created by KiCad (PCBNEW 5.1.4+dfsg1-1) date 2020-03-15 01:21:55*
%MOMM*%
%LPD*%
G04 APERTURE LIST*
%ADD10C,1.000000*%
%ADD11C,0.200000*%
%ADD12C,0.120000*%
%ADD13C,0.150000*%
G04 APERTURE END LIST*
D10*
X121914214Y-97835786D02*
X120750000Y-99250000D01*
X124164214Y-95085786D02*
X123000000Y-96500000D01*
X136914214Y-92335786D02*
X135750000Y-93750000D01*
X139164214Y-89585786D02*
X138000000Y-91000000D01*
X179750000Y-54750000D02*
X179750000Y-51500000D01*
X179750000Y-59750000D02*
X179750000Y-56500000D01*
X179750000Y-64750000D02*
X179750000Y-61500000D01*
X179750000Y-69750000D02*
X179750000Y-66500000D01*
X179750000Y-74750000D02*
X179750000Y-71500000D01*
D11*
X181184285Y-96342857D02*
X181184285Y-95142857D01*
X180727142Y-95142857D01*
X180612857Y-95200000D01*
X180555714Y-95257142D01*
X180498571Y-95371428D01*
X180498571Y-95542857D01*
X180555714Y-95657142D01*
X180612857Y-95714285D01*
X180727142Y-95771428D01*
X181184285Y-95771428D01*
X179470000Y-96342857D02*
X179470000Y-95714285D01*
X179527142Y-95600000D01*
X179641428Y-95542857D01*
X179870000Y-95542857D01*
X179984285Y-95600000D01*
X179470000Y-96285714D02*
X179584285Y-96342857D01*
X179870000Y-96342857D01*
X179984285Y-96285714D01*
X180041428Y-96171428D01*
X180041428Y-96057142D01*
X179984285Y-95942857D01*
X179870000Y-95885714D01*
X179584285Y-95885714D01*
X179470000Y-95828571D01*
X178898571Y-96342857D02*
X178898571Y-95542857D01*
X178898571Y-95771428D02*
X178841428Y-95657142D01*
X178784285Y-95600000D01*
X178670000Y-95542857D01*
X178555714Y-95542857D01*
X177641428Y-96342857D02*
X177641428Y-95714285D01*
X177698571Y-95600000D01*
X177812857Y-95542857D01*
X178041428Y-95542857D01*
X178155714Y-95600000D01*
X177641428Y-96285714D02*
X177755714Y-96342857D01*
X178041428Y-96342857D01*
X178155714Y-96285714D01*
X178212857Y-96171428D01*
X178212857Y-96057142D01*
X178155714Y-95942857D01*
X178041428Y-95885714D01*
X177755714Y-95885714D01*
X177641428Y-95828571D01*
X176898571Y-96342857D02*
X177012857Y-96285714D01*
X177070000Y-96171428D01*
X177070000Y-95142857D01*
X176270000Y-96342857D02*
X176384285Y-96285714D01*
X176441428Y-96171428D01*
X176441428Y-95142857D01*
X175355714Y-96285714D02*
X175470000Y-96342857D01*
X175698571Y-96342857D01*
X175812857Y-96285714D01*
X175870000Y-96171428D01*
X175870000Y-95714285D01*
X175812857Y-95600000D01*
X175698571Y-95542857D01*
X175470000Y-95542857D01*
X175355714Y-95600000D01*
X175298571Y-95714285D01*
X175298571Y-95828571D01*
X175870000Y-95942857D01*
X174612857Y-96342857D02*
X174727142Y-96285714D01*
X174784285Y-96171428D01*
X174784285Y-95142857D01*
X190300000Y-72900000D02*
X190300000Y-71500000D01*
X192400000Y-68600000D02*
X191800000Y-68000000D01*
X192400000Y-71100000D02*
X192400000Y-68600000D01*
X196441428Y-72285714D02*
X196270000Y-72342857D01*
X195984285Y-72342857D01*
X195870000Y-72285714D01*
X195812857Y-72228571D01*
X195755714Y-72114285D01*
X195755714Y-72000000D01*
X195812857Y-71885714D01*
X195870000Y-71828571D01*
X195984285Y-71771428D01*
X196212857Y-71714285D01*
X196327142Y-71657142D01*
X196384285Y-71600000D01*
X196441428Y-71485714D01*
X196441428Y-71371428D01*
X196384285Y-71257142D01*
X196327142Y-71200000D01*
X196212857Y-71142857D01*
X195927142Y-71142857D01*
X195755714Y-71200000D01*
X194784285Y-72285714D02*
X194898571Y-72342857D01*
X195127142Y-72342857D01*
X195241428Y-72285714D01*
X195298571Y-72171428D01*
X195298571Y-71714285D01*
X195241428Y-71600000D01*
X195127142Y-71542857D01*
X194898571Y-71542857D01*
X194784285Y-71600000D01*
X194727142Y-71714285D01*
X194727142Y-71828571D01*
X195298571Y-71942857D01*
X194212857Y-72342857D02*
X194212857Y-71542857D01*
X194212857Y-71771428D02*
X194155714Y-71657142D01*
X194098571Y-71600000D01*
X193984285Y-71542857D01*
X193870000Y-71542857D01*
X193470000Y-72342857D02*
X193470000Y-71542857D01*
X193470000Y-71142857D02*
X193527142Y-71200000D01*
X193470000Y-71257142D01*
X193412857Y-71200000D01*
X193470000Y-71142857D01*
X193470000Y-71257142D01*
X192441428Y-72285714D02*
X192555714Y-72342857D01*
X192784285Y-72342857D01*
X192898571Y-72285714D01*
X192955714Y-72171428D01*
X192955714Y-71714285D01*
X192898571Y-71600000D01*
X192784285Y-71542857D01*
X192555714Y-71542857D01*
X192441428Y-71600000D01*
X192384285Y-71714285D01*
X192384285Y-71828571D01*
X192955714Y-71942857D01*
X191927142Y-72285714D02*
X191812857Y-72342857D01*
X191584285Y-72342857D01*
X191470000Y-72285714D01*
X191412857Y-72171428D01*
X191412857Y-72114285D01*
X191470000Y-72000000D01*
X191584285Y-71942857D01*
X191755714Y-71942857D01*
X191870000Y-71885714D01*
X191927142Y-71771428D01*
X191927142Y-71714285D01*
X191870000Y-71600000D01*
X191755714Y-71542857D01*
X191584285Y-71542857D01*
X191470000Y-71600000D01*
X196384285Y-74342857D02*
X196384285Y-73142857D01*
X195927142Y-73142857D01*
X195812857Y-73200000D01*
X195755714Y-73257142D01*
X195698571Y-73371428D01*
X195698571Y-73542857D01*
X195755714Y-73657142D01*
X195812857Y-73714285D01*
X195927142Y-73771428D01*
X196384285Y-73771428D01*
X194670000Y-74342857D02*
X194670000Y-73714285D01*
X194727142Y-73600000D01*
X194841428Y-73542857D01*
X195070000Y-73542857D01*
X195184285Y-73600000D01*
X194670000Y-74285714D02*
X194784285Y-74342857D01*
X195070000Y-74342857D01*
X195184285Y-74285714D01*
X195241428Y-74171428D01*
X195241428Y-74057142D01*
X195184285Y-73942857D01*
X195070000Y-73885714D01*
X194784285Y-73885714D01*
X194670000Y-73828571D01*
X194098571Y-74342857D02*
X194098571Y-73542857D01*
X194098571Y-73771428D02*
X194041428Y-73657142D01*
X193984285Y-73600000D01*
X193870000Y-73542857D01*
X193755714Y-73542857D01*
X192841428Y-74342857D02*
X192841428Y-73714285D01*
X192898571Y-73600000D01*
X193012857Y-73542857D01*
X193241428Y-73542857D01*
X193355714Y-73600000D01*
X192841428Y-74285714D02*
X192955714Y-74342857D01*
X193241428Y-74342857D01*
X193355714Y-74285714D01*
X193412857Y-74171428D01*
X193412857Y-74057142D01*
X193355714Y-73942857D01*
X193241428Y-73885714D01*
X192955714Y-73885714D01*
X192841428Y-73828571D01*
X192098571Y-74342857D02*
X192212857Y-74285714D01*
X192270000Y-74171428D01*
X192270000Y-73142857D01*
X191470000Y-74342857D02*
X191584285Y-74285714D01*
X191641428Y-74171428D01*
X191641428Y-73142857D01*
X190555714Y-74285714D02*
X190670000Y-74342857D01*
X190898571Y-74342857D01*
X191012857Y-74285714D01*
X191070000Y-74171428D01*
X191070000Y-73714285D01*
X191012857Y-73600000D01*
X190898571Y-73542857D01*
X190670000Y-73542857D01*
X190555714Y-73600000D01*
X190498571Y-73714285D01*
X190498571Y-73828571D01*
X191070000Y-73942857D01*
X189812857Y-74342857D02*
X189927142Y-74285714D01*
X189984285Y-74171428D01*
X189984285Y-73142857D01*
X196184285Y-52642857D02*
X196184285Y-51442857D01*
X195727142Y-51442857D01*
X195612857Y-51500000D01*
X195555714Y-51557142D01*
X195498571Y-51671428D01*
X195498571Y-51842857D01*
X195555714Y-51957142D01*
X195612857Y-52014285D01*
X195727142Y-52071428D01*
X196184285Y-52071428D01*
X194470000Y-52642857D02*
X194470000Y-52014285D01*
X194527142Y-51900000D01*
X194641428Y-51842857D01*
X194870000Y-51842857D01*
X194984285Y-51900000D01*
X194470000Y-52585714D02*
X194584285Y-52642857D01*
X194870000Y-52642857D01*
X194984285Y-52585714D01*
X195041428Y-52471428D01*
X195041428Y-52357142D01*
X194984285Y-52242857D01*
X194870000Y-52185714D01*
X194584285Y-52185714D01*
X194470000Y-52128571D01*
X193898571Y-52642857D02*
X193898571Y-51842857D01*
X193898571Y-52071428D02*
X193841428Y-51957142D01*
X193784285Y-51900000D01*
X193670000Y-51842857D01*
X193555714Y-51842857D01*
X192641428Y-52642857D02*
X192641428Y-52014285D01*
X192698571Y-51900000D01*
X192812857Y-51842857D01*
X193041428Y-51842857D01*
X193155714Y-51900000D01*
X192641428Y-52585714D02*
X192755714Y-52642857D01*
X193041428Y-52642857D01*
X193155714Y-52585714D01*
X193212857Y-52471428D01*
X193212857Y-52357142D01*
X193155714Y-52242857D01*
X193041428Y-52185714D01*
X192755714Y-52185714D01*
X192641428Y-52128571D01*
X191898571Y-52642857D02*
X192012857Y-52585714D01*
X192070000Y-52471428D01*
X192070000Y-51442857D01*
X191270000Y-52642857D02*
X191384285Y-52585714D01*
X191441428Y-52471428D01*
X191441428Y-51442857D01*
X190355714Y-52585714D02*
X190470000Y-52642857D01*
X190698571Y-52642857D01*
X190812857Y-52585714D01*
X190870000Y-52471428D01*
X190870000Y-52014285D01*
X190812857Y-51900000D01*
X190698571Y-51842857D01*
X190470000Y-51842857D01*
X190355714Y-51900000D01*
X190298571Y-52014285D01*
X190298571Y-52128571D01*
X190870000Y-52242857D01*
X189612857Y-52642857D02*
X189727142Y-52585714D01*
X189784285Y-52471428D01*
X189784285Y-51442857D01*
X240000000Y-60000000D02*
X250000000Y-60000000D01*
X240000000Y-50000000D02*
X240000000Y-60000000D01*
X240000000Y-90000000D02*
X250000000Y-90000000D01*
X240000000Y-100000000D02*
X240000000Y-90000000D01*
X155341428Y-91085714D02*
X155170000Y-91142857D01*
X154884285Y-91142857D01*
X154770000Y-91085714D01*
X154712857Y-91028571D01*
X154655714Y-90914285D01*
X154655714Y-90800000D01*
X154712857Y-90685714D01*
X154770000Y-90628571D01*
X154884285Y-90571428D01*
X155112857Y-90514285D01*
X155227142Y-90457142D01*
X155284285Y-90400000D01*
X155341428Y-90285714D01*
X155341428Y-90171428D01*
X155284285Y-90057142D01*
X155227142Y-90000000D01*
X155112857Y-89942857D01*
X154827142Y-89942857D01*
X154655714Y-90000000D01*
X153684285Y-91085714D02*
X153798571Y-91142857D01*
X154027142Y-91142857D01*
X154141428Y-91085714D01*
X154198571Y-90971428D01*
X154198571Y-90514285D01*
X154141428Y-90400000D01*
X154027142Y-90342857D01*
X153798571Y-90342857D01*
X153684285Y-90400000D01*
X153627142Y-90514285D01*
X153627142Y-90628571D01*
X154198571Y-90742857D01*
X153112857Y-91142857D02*
X153112857Y-90342857D01*
X153112857Y-90571428D02*
X153055714Y-90457142D01*
X152998571Y-90400000D01*
X152884285Y-90342857D01*
X152770000Y-90342857D01*
X152370000Y-91142857D02*
X152370000Y-90342857D01*
X152370000Y-89942857D02*
X152427142Y-90000000D01*
X152370000Y-90057142D01*
X152312857Y-90000000D01*
X152370000Y-89942857D01*
X152370000Y-90057142D01*
X151341428Y-91085714D02*
X151455714Y-91142857D01*
X151684285Y-91142857D01*
X151798571Y-91085714D01*
X151855714Y-90971428D01*
X151855714Y-90514285D01*
X151798571Y-90400000D01*
X151684285Y-90342857D01*
X151455714Y-90342857D01*
X151341428Y-90400000D01*
X151284285Y-90514285D01*
X151284285Y-90628571D01*
X151855714Y-90742857D01*
X150827142Y-91085714D02*
X150712857Y-91142857D01*
X150484285Y-91142857D01*
X150370000Y-91085714D01*
X150312857Y-90971428D01*
X150312857Y-90914285D01*
X150370000Y-90800000D01*
X150484285Y-90742857D01*
X150655714Y-90742857D01*
X150770000Y-90685714D01*
X150827142Y-90571428D01*
X150827142Y-90514285D01*
X150770000Y-90400000D01*
X150655714Y-90342857D01*
X150484285Y-90342857D01*
X150370000Y-90400000D01*
X155284285Y-93142857D02*
X155284285Y-91942857D01*
X154827142Y-91942857D01*
X154712857Y-92000000D01*
X154655714Y-92057142D01*
X154598571Y-92171428D01*
X154598571Y-92342857D01*
X154655714Y-92457142D01*
X154712857Y-92514285D01*
X154827142Y-92571428D01*
X155284285Y-92571428D01*
X153570000Y-93142857D02*
X153570000Y-92514285D01*
X153627142Y-92400000D01*
X153741428Y-92342857D01*
X153970000Y-92342857D01*
X154084285Y-92400000D01*
X153570000Y-93085714D02*
X153684285Y-93142857D01*
X153970000Y-93142857D01*
X154084285Y-93085714D01*
X154141428Y-92971428D01*
X154141428Y-92857142D01*
X154084285Y-92742857D01*
X153970000Y-92685714D01*
X153684285Y-92685714D01*
X153570000Y-92628571D01*
X152998571Y-93142857D02*
X152998571Y-92342857D01*
X152998571Y-92571428D02*
X152941428Y-92457142D01*
X152884285Y-92400000D01*
X152770000Y-92342857D01*
X152655714Y-92342857D01*
X151741428Y-93142857D02*
X151741428Y-92514285D01*
X151798571Y-92400000D01*
X151912857Y-92342857D01*
X152141428Y-92342857D01*
X152255714Y-92400000D01*
X151741428Y-93085714D02*
X151855714Y-93142857D01*
X152141428Y-93142857D01*
X152255714Y-93085714D01*
X152312857Y-92971428D01*
X152312857Y-92857142D01*
X152255714Y-92742857D01*
X152141428Y-92685714D01*
X151855714Y-92685714D01*
X151741428Y-92628571D01*
X150998571Y-93142857D02*
X151112857Y-93085714D01*
X151170000Y-92971428D01*
X151170000Y-91942857D01*
X150370000Y-93142857D02*
X150484285Y-93085714D01*
X150541428Y-92971428D01*
X150541428Y-91942857D01*
X149455714Y-93085714D02*
X149570000Y-93142857D01*
X149798571Y-93142857D01*
X149912857Y-93085714D01*
X149970000Y-92971428D01*
X149970000Y-92514285D01*
X149912857Y-92400000D01*
X149798571Y-92342857D01*
X149570000Y-92342857D01*
X149455714Y-92400000D01*
X149398571Y-92514285D01*
X149398571Y-92628571D01*
X149970000Y-92742857D01*
X148712857Y-93142857D02*
X148827142Y-93085714D01*
X148884285Y-92971428D01*
X148884285Y-91942857D01*
D12*
X237162779Y-95610000D02*
X236837221Y-95610000D01*
X237162779Y-94590000D02*
X236837221Y-94590000D01*
X232712779Y-89860000D02*
X232387221Y-89860000D01*
X232712779Y-88840000D02*
X232387221Y-88840000D01*
X228140000Y-54462779D02*
X228140000Y-54137221D01*
X229160000Y-54462779D02*
X229160000Y-54137221D01*
X229540000Y-54462779D02*
X229540000Y-54137221D01*
X230560000Y-54462779D02*
X230560000Y-54137221D01*
X219810000Y-58887221D02*
X219810000Y-59212779D01*
X218790000Y-58887221D02*
X218790000Y-59212779D01*
X218790000Y-56412779D02*
X218790000Y-56087221D01*
X219810000Y-56412779D02*
X219810000Y-56087221D01*
X213340000Y-56350000D02*
X213340000Y-52900000D01*
X213340000Y-56350000D02*
X213340000Y-58300000D01*
X218460000Y-56350000D02*
X218460000Y-54400000D01*
X218460000Y-56350000D02*
X218460000Y-58300000D01*
X218087221Y-60540000D02*
X218412779Y-60540000D01*
X218087221Y-61560000D02*
X218412779Y-61560000D01*
X214510000Y-61337221D02*
X214510000Y-61662779D01*
X213490000Y-61337221D02*
X213490000Y-61662779D01*
X221137221Y-63640000D02*
X221462779Y-63640000D01*
X221137221Y-64660000D02*
X221462779Y-64660000D01*
X218010000Y-63237221D02*
X218010000Y-63562779D01*
X216990000Y-63237221D02*
X216990000Y-63562779D01*
X184940000Y-86812779D02*
X184940000Y-86487221D01*
X185960000Y-86812779D02*
X185960000Y-86487221D01*
X188262779Y-80410000D02*
X187937221Y-80410000D01*
X188262779Y-79390000D02*
X187937221Y-79390000D01*
X220190000Y-56412779D02*
X220190000Y-56087221D01*
X221210000Y-56412779D02*
X221210000Y-56087221D01*
X209640000Y-61362779D02*
X209640000Y-61037221D01*
X210660000Y-61362779D02*
X210660000Y-61037221D01*
X207840000Y-64362779D02*
X207840000Y-64037221D01*
X208860000Y-64362779D02*
X208860000Y-64037221D01*
X188262779Y-81860000D02*
X187937221Y-81860000D01*
X188262779Y-80840000D02*
X187937221Y-80840000D01*
X184940000Y-81762779D02*
X184940000Y-81437221D01*
X185960000Y-81762779D02*
X185960000Y-81437221D01*
X210990000Y-61362779D02*
X210990000Y-61037221D01*
X212010000Y-61362779D02*
X212010000Y-61037221D01*
X209862779Y-76810000D02*
X209537221Y-76810000D01*
X209862779Y-75790000D02*
X209537221Y-75790000D01*
X228062779Y-56960000D02*
X227737221Y-56960000D01*
X228062779Y-55940000D02*
X227737221Y-55940000D01*
X248610000Y-78150000D02*
X248610000Y-81600000D01*
X248610000Y-78150000D02*
X248610000Y-76200000D01*
X243490000Y-78150000D02*
X243490000Y-80100000D01*
X243490000Y-78150000D02*
X243490000Y-76200000D01*
X248560000Y-69950000D02*
X248560000Y-73400000D01*
X248560000Y-69950000D02*
X248560000Y-68000000D01*
X243440000Y-69950000D02*
X243440000Y-71900000D01*
X243440000Y-69950000D02*
X243440000Y-68000000D01*
X243160000Y-77849720D02*
X243160000Y-78175278D01*
X242140000Y-77849720D02*
X242140000Y-78175278D01*
X245262779Y-65710000D02*
X244937221Y-65710000D01*
X245262779Y-64690000D02*
X244937221Y-64690000D01*
X213887221Y-69690000D02*
X214212779Y-69690000D01*
X213887221Y-70710000D02*
X214212779Y-70710000D01*
X227260000Y-70487221D02*
X227260000Y-70812779D01*
X226240000Y-70487221D02*
X226240000Y-70812779D01*
X211390000Y-70862779D02*
X211390000Y-70537221D01*
X212410000Y-70862779D02*
X212410000Y-70537221D01*
X206890000Y-61358578D02*
X206890000Y-60841422D01*
X208310000Y-61358578D02*
X208310000Y-60841422D01*
X173537221Y-83490000D02*
X173862779Y-83490000D01*
X173537221Y-84510000D02*
X173862779Y-84510000D01*
X173590000Y-78762779D02*
X173590000Y-78437221D01*
X174610000Y-78762779D02*
X174610000Y-78437221D01*
X219820000Y-95470000D02*
X219820000Y-96570000D01*
X219550000Y-95470000D02*
X219820000Y-95470000D01*
X219550000Y-93970000D02*
X219550000Y-95470000D01*
X226180000Y-95470000D02*
X226180000Y-98300000D01*
X226450000Y-95470000D02*
X226180000Y-95470000D01*
X226450000Y-93970000D02*
X226450000Y-95470000D01*
X219820000Y-83370000D02*
X219820000Y-84470000D01*
X219550000Y-83370000D02*
X219820000Y-83370000D01*
X219550000Y-81870000D02*
X219550000Y-83370000D01*
X226180000Y-83370000D02*
X226180000Y-86200000D01*
X226450000Y-83370000D02*
X226180000Y-83370000D01*
X226450000Y-81870000D02*
X226450000Y-83370000D01*
X146737221Y-92190000D02*
X147062779Y-92190000D01*
X146737221Y-93210000D02*
X147062779Y-93210000D01*
X190562779Y-70110000D02*
X190237221Y-70110000D01*
X190562779Y-69090000D02*
X190237221Y-69090000D01*
X174100000Y-94050000D02*
X168700000Y-94050000D01*
X174100000Y-97350000D02*
X168700000Y-97350000D01*
X174100000Y-94050000D02*
X174100000Y-97350000D01*
X196400000Y-52850000D02*
X191000000Y-52850000D01*
X196400000Y-56150000D02*
X191000000Y-56150000D01*
X196400000Y-52850000D02*
X196400000Y-56150000D01*
X144390000Y-61262779D02*
X144390000Y-60937221D01*
X145410000Y-61262779D02*
X145410000Y-60937221D01*
X154462779Y-68010000D02*
X154137221Y-68010000D01*
X154462779Y-66990000D02*
X154137221Y-66990000D01*
X150760000Y-61200000D02*
X150760000Y-64650000D01*
X150760000Y-61200000D02*
X150760000Y-59250000D01*
X145640000Y-61200000D02*
X145640000Y-63150000D01*
X145640000Y-61200000D02*
X145640000Y-59250000D01*
X161660000Y-61200000D02*
X161660000Y-64650000D01*
X161660000Y-61200000D02*
X161660000Y-59250000D01*
X156540000Y-61200000D02*
X156540000Y-63150000D01*
X156540000Y-61200000D02*
X156540000Y-59250000D01*
X155980000Y-65960000D02*
X155980000Y-64500000D01*
X152820000Y-65960000D02*
X152820000Y-63800000D01*
X152820000Y-65960000D02*
X153750000Y-65960000D01*
X155980000Y-65960000D02*
X155050000Y-65960000D01*
X200590000Y-72650000D02*
X200590000Y-78660000D01*
X207410000Y-74900000D02*
X207410000Y-78660000D01*
X200590000Y-78660000D02*
X201850000Y-78660000D01*
X207410000Y-78660000D02*
X206150000Y-78660000D01*
X206560000Y-60200000D02*
X206560000Y-63650000D01*
X206560000Y-60200000D02*
X206560000Y-58250000D01*
X201440000Y-60200000D02*
X201440000Y-62150000D01*
X201440000Y-60200000D02*
X201440000Y-58250000D01*
X216000000Y-93160000D02*
X212550000Y-93160000D01*
X216000000Y-93160000D02*
X217950000Y-93160000D01*
X216000000Y-88040000D02*
X214050000Y-88040000D01*
X216000000Y-88040000D02*
X217950000Y-88040000D01*
X219300000Y-73835000D02*
X215850000Y-73835000D01*
X219300000Y-73835000D02*
X221250000Y-73835000D01*
X219300000Y-64965000D02*
X217350000Y-64965000D01*
X219300000Y-64965000D02*
X221250000Y-64965000D01*
X215600000Y-82960000D02*
X212150000Y-82960000D01*
X215600000Y-82960000D02*
X217550000Y-82960000D01*
X215600000Y-77840000D02*
X213650000Y-77840000D01*
X215600000Y-77840000D02*
X217550000Y-77840000D01*
X146810000Y-66237221D02*
X146810000Y-66562779D01*
X145790000Y-66237221D02*
X145790000Y-66562779D01*
X145710000Y-56337221D02*
X145710000Y-56662779D01*
X144690000Y-56337221D02*
X144690000Y-56662779D01*
X147062779Y-91110000D02*
X146737221Y-91110000D01*
X147062779Y-90090000D02*
X146737221Y-90090000D01*
X142610000Y-71637221D02*
X142610000Y-71962779D01*
X141590000Y-71637221D02*
X141590000Y-71962779D01*
X170237221Y-69790000D02*
X170562779Y-69790000D01*
X170237221Y-70810000D02*
X170562779Y-70810000D01*
X157990000Y-66762779D02*
X157990000Y-66437221D01*
X159010000Y-66762779D02*
X159010000Y-66437221D01*
X170237221Y-68390000D02*
X170562779Y-68390000D01*
X170237221Y-69410000D02*
X170562779Y-69410000D01*
X160410000Y-55937221D02*
X160410000Y-56262779D01*
X159390000Y-55937221D02*
X159390000Y-56262779D01*
X190562779Y-67910000D02*
X190237221Y-67910000D01*
X190562779Y-66890000D02*
X190237221Y-66890000D01*
X226112779Y-69060000D02*
X225787221Y-69060000D01*
X226112779Y-68040000D02*
X225787221Y-68040000D01*
X224762779Y-70660000D02*
X224437221Y-70660000D01*
X224762779Y-69640000D02*
X224437221Y-69640000D01*
X228810000Y-67587221D02*
X228810000Y-67912779D01*
X227790000Y-67587221D02*
X227790000Y-67912779D01*
X228940000Y-70762779D02*
X228940000Y-70437221D01*
X229960000Y-70762779D02*
X229960000Y-70437221D01*
X232712779Y-91210000D02*
X232387221Y-91210000D01*
X232712779Y-90190000D02*
X232387221Y-90190000D01*
X216287221Y-97190000D02*
X216612779Y-97190000D01*
X216287221Y-98210000D02*
X216612779Y-98210000D01*
X233210000Y-96287221D02*
X233210000Y-96612779D01*
X232190000Y-96287221D02*
X232190000Y-96612779D01*
X230790000Y-96612779D02*
X230790000Y-96287221D01*
X231810000Y-96612779D02*
X231810000Y-96287221D01*
X217702064Y-96160000D02*
X216497936Y-96160000D01*
X217702064Y-94340000D02*
X216497936Y-94340000D01*
X212487221Y-68090000D02*
X212812779Y-68090000D01*
X212487221Y-69110000D02*
X212812779Y-69110000D01*
X213037221Y-63140000D02*
X213362779Y-63140000D01*
X213037221Y-64160000D02*
X213362779Y-64160000D01*
X218340000Y-63562779D02*
X218340000Y-63237221D01*
X219360000Y-63562779D02*
X219360000Y-63237221D01*
X239860000Y-79737221D02*
X239860000Y-80062779D01*
X238840000Y-79737221D02*
X238840000Y-80062779D01*
X216887221Y-86490000D02*
X217212779Y-86490000D01*
X216887221Y-87510000D02*
X217212779Y-87510000D01*
X235710000Y-83687221D02*
X235710000Y-84012779D01*
X234690000Y-83687221D02*
X234690000Y-84012779D01*
X233290000Y-84012779D02*
X233290000Y-83687221D01*
X234310000Y-84012779D02*
X234310000Y-83687221D01*
X217602064Y-86010000D02*
X216397936Y-86010000D01*
X217602064Y-84190000D02*
X216397936Y-84190000D01*
X234280000Y-93960000D02*
X234280000Y-92500000D01*
X231120000Y-93960000D02*
X231120000Y-91800000D01*
X231120000Y-93960000D02*
X232050000Y-93960000D01*
X234280000Y-93960000D02*
X233350000Y-93960000D01*
X236040000Y-83230000D02*
X237500000Y-83230000D01*
X236040000Y-80070000D02*
X238200000Y-80070000D01*
X236040000Y-80070000D02*
X236040000Y-81000000D01*
X236040000Y-83230000D02*
X236040000Y-82300000D01*
X223250000Y-74200000D02*
X227150000Y-74200000D01*
X223250000Y-72200000D02*
X227150000Y-72200000D01*
X223250000Y-74200000D02*
X223250000Y-72200000D01*
X223250000Y-65950000D02*
X227150000Y-65950000D01*
X223250000Y-63950000D02*
X227150000Y-63950000D01*
X223250000Y-65950000D02*
X223250000Y-63950000D01*
X203350000Y-71000000D02*
X203350000Y-65600000D01*
X200050000Y-71000000D02*
X200050000Y-65600000D01*
X203350000Y-71000000D02*
X200050000Y-71000000D01*
X228550000Y-93300000D02*
X228550000Y-97200000D01*
X230550000Y-93300000D02*
X230550000Y-97200000D01*
X228550000Y-93300000D02*
X230550000Y-93300000D01*
X186750000Y-87100000D02*
X186750000Y-92500000D01*
X190050000Y-87100000D02*
X190050000Y-92500000D01*
X186750000Y-87100000D02*
X190050000Y-87100000D01*
X215350000Y-72250000D02*
X211450000Y-72250000D01*
X215350000Y-74250000D02*
X211450000Y-74250000D01*
X215350000Y-72250000D02*
X215350000Y-74250000D01*
X215200000Y-64400000D02*
X211300000Y-64400000D01*
X215200000Y-66400000D02*
X211300000Y-66400000D01*
X215200000Y-64400000D02*
X215200000Y-66400000D01*
X231050000Y-80650000D02*
X231050000Y-84550000D01*
X233050000Y-80650000D02*
X233050000Y-84550000D01*
X231050000Y-80650000D02*
X233050000Y-80650000D01*
X158000000Y-69250000D02*
X158000000Y-65350000D01*
X156000000Y-69250000D02*
X156000000Y-65350000D01*
X158000000Y-69250000D02*
X156000000Y-69250000D01*
X193050000Y-61900000D02*
X193050000Y-67300000D01*
X196350000Y-61900000D02*
X196350000Y-67300000D01*
X193050000Y-61900000D02*
X196350000Y-61900000D01*
X204190000Y-70762779D02*
X204190000Y-70437221D01*
X205210000Y-70762779D02*
X205210000Y-70437221D01*
X247090000Y-64612779D02*
X247090000Y-64287221D01*
X248110000Y-64612779D02*
X248110000Y-64287221D01*
X245787221Y-82140000D02*
X246112779Y-82140000D01*
X245787221Y-83160000D02*
X246112779Y-83160000D01*
X217662779Y-75210000D02*
X217337221Y-75210000D01*
X217662779Y-74190000D02*
X217337221Y-74190000D01*
X209290000Y-64362779D02*
X209290000Y-64037221D01*
X210310000Y-64362779D02*
X210310000Y-64037221D01*
X225774721Y-66590000D02*
X226100279Y-66590000D01*
X225774721Y-67610000D02*
X226100279Y-67610000D01*
X224310000Y-67674722D02*
X224310000Y-68000280D01*
X223290000Y-67674722D02*
X223290000Y-68000280D01*
X150937221Y-66990000D02*
X151262779Y-66990000D01*
X150937221Y-68010000D02*
X151262779Y-68010000D01*
X152562779Y-61510000D02*
X152237221Y-61510000D01*
X152562779Y-60490000D02*
X152237221Y-60490000D01*
X205790000Y-70762779D02*
X205790000Y-70437221D01*
X206810000Y-70762779D02*
X206810000Y-70437221D01*
X151562779Y-71610000D02*
X151237221Y-71610000D01*
X151562779Y-70590000D02*
X151237221Y-70590000D01*
X163310000Y-58337221D02*
X163310000Y-58662779D01*
X162290000Y-58337221D02*
X162290000Y-58662779D01*
X224437221Y-70990000D02*
X224762779Y-70990000D01*
X224437221Y-72010000D02*
X224762779Y-72010000D01*
X228610000Y-70437221D02*
X228610000Y-70762779D01*
X227590000Y-70437221D02*
X227590000Y-70762779D01*
X210490000Y-91158578D02*
X210490000Y-90641422D01*
X211910000Y-91158578D02*
X211910000Y-90641422D01*
X212812779Y-67660000D02*
X212487221Y-67660000D01*
X212812779Y-66640000D02*
X212487221Y-66640000D01*
X215310000Y-67687221D02*
X215310000Y-68012779D01*
X214290000Y-67687221D02*
X214290000Y-68012779D01*
X214212779Y-72060000D02*
X213887221Y-72060000D01*
X214212779Y-71040000D02*
X213887221Y-71040000D01*
X215640000Y-63562779D02*
X215640000Y-63237221D01*
X216660000Y-63562779D02*
X216660000Y-63237221D01*
X214358578Y-77510000D02*
X213841422Y-77510000D01*
X214358578Y-76090000D02*
X213841422Y-76090000D01*
X144400000Y-57850000D02*
X144400000Y-53950000D01*
X142400000Y-57850000D02*
X142400000Y-53950000D01*
X144400000Y-57850000D02*
X142400000Y-57850000D01*
X149700000Y-69350000D02*
X144300000Y-69350000D01*
X149700000Y-72650000D02*
X144300000Y-72650000D01*
X149700000Y-69350000D02*
X149700000Y-72650000D01*
X166500000Y-89950000D02*
X161100000Y-89950000D01*
X166500000Y-93250000D02*
X161100000Y-93250000D01*
X166500000Y-89950000D02*
X166500000Y-93250000D01*
X165400000Y-74450000D02*
X170800000Y-74450000D01*
X165400000Y-71150000D02*
X170800000Y-71150000D01*
X165400000Y-74450000D02*
X165400000Y-71150000D01*
X159100000Y-57450000D02*
X159100000Y-53550000D01*
X157100000Y-57450000D02*
X157100000Y-53550000D01*
X159100000Y-57450000D02*
X157100000Y-57450000D01*
X196400000Y-57850000D02*
X191000000Y-57850000D01*
X196400000Y-61150000D02*
X191000000Y-61150000D01*
X196400000Y-57850000D02*
X196400000Y-61150000D01*
X152810000Y-57197936D02*
X152810000Y-58402064D01*
X150990000Y-57197936D02*
X150990000Y-58402064D01*
X155010000Y-57197936D02*
X155010000Y-58402064D01*
X153190000Y-57197936D02*
X153190000Y-58402064D01*
X156890000Y-79502064D02*
X156890000Y-78297936D01*
X158710000Y-79502064D02*
X158710000Y-78297936D01*
X154790000Y-79502064D02*
X154790000Y-78297936D01*
X156610000Y-79502064D02*
X156610000Y-78297936D01*
X152690000Y-79502064D02*
X152690000Y-78297936D01*
X154510000Y-79502064D02*
X154510000Y-78297936D01*
X150590000Y-79502064D02*
X150590000Y-78297936D01*
X152410000Y-79502064D02*
X152410000Y-78297936D01*
X165810000Y-57897936D02*
X165810000Y-59102064D01*
X163990000Y-57897936D02*
X163990000Y-59102064D01*
X168010000Y-57897936D02*
X168010000Y-59102064D01*
X166190000Y-57897936D02*
X166190000Y-59102064D01*
X161300000Y-81650000D02*
X166700000Y-81650000D01*
X161300000Y-78350000D02*
X166700000Y-78350000D01*
X161300000Y-81650000D02*
X161300000Y-78350000D01*
X158990000Y-79502064D02*
X158990000Y-78297936D01*
X160810000Y-79502064D02*
X160810000Y-78297936D01*
X162090000Y-64602064D02*
X162090000Y-63397936D01*
X163910000Y-64602064D02*
X163910000Y-63397936D01*
X164190000Y-64602065D02*
X164190000Y-63397937D01*
X166010000Y-64602065D02*
X166010000Y-63397937D01*
X166290000Y-64602064D02*
X166290000Y-63397936D01*
X168110000Y-64602064D02*
X168110000Y-63397936D01*
X168390000Y-64602064D02*
X168390000Y-63397936D01*
X170210000Y-64602064D02*
X170210000Y-63397936D01*
X172350000Y-59400000D02*
X172350000Y-54000000D01*
X169050000Y-59400000D02*
X169050000Y-54000000D01*
X172350000Y-59400000D02*
X169050000Y-59400000D01*
X170490000Y-64602064D02*
X170490000Y-63397936D01*
X172310000Y-64602064D02*
X172310000Y-63397936D01*
D13*
X235050000Y-95416666D02*
X235283333Y-95083333D01*
X235450000Y-95416666D02*
X235450000Y-94716666D01*
X235183333Y-94716666D01*
X235116666Y-94750000D01*
X235083333Y-94783333D01*
X235050000Y-94850000D01*
X235050000Y-94950000D01*
X235083333Y-95016666D01*
X235116666Y-95050000D01*
X235183333Y-95083333D01*
X235450000Y-95083333D01*
X234450000Y-94716666D02*
X234583333Y-94716666D01*
X234650000Y-94750000D01*
X234683333Y-94783333D01*
X234750000Y-94883333D01*
X234783333Y-95016666D01*
X234783333Y-95283333D01*
X234750000Y-95350000D01*
X234716666Y-95383333D01*
X234650000Y-95416666D01*
X234516666Y-95416666D01*
X234450000Y-95383333D01*
X234416666Y-95350000D01*
X234383333Y-95283333D01*
X234383333Y-95116666D01*
X234416666Y-95050000D01*
X234450000Y-95016666D01*
X234516666Y-94983333D01*
X234650000Y-94983333D01*
X234716666Y-95016666D01*
X234750000Y-95050000D01*
X234783333Y-95116666D01*
X234116666Y-94783333D02*
X234083333Y-94750000D01*
X234016666Y-94716666D01*
X233850000Y-94716666D01*
X233783333Y-94750000D01*
X233750000Y-94783333D01*
X233716666Y-94850000D01*
X233716666Y-94916666D01*
X233750000Y-95016666D01*
X234150000Y-95416666D01*
X233716666Y-95416666D01*
X230650000Y-89716666D02*
X230883333Y-89383333D01*
X231050000Y-89716666D02*
X231050000Y-89016666D01*
X230783333Y-89016666D01*
X230716666Y-89050000D01*
X230683333Y-89083333D01*
X230650000Y-89150000D01*
X230650000Y-89250000D01*
X230683333Y-89316666D01*
X230716666Y-89350000D01*
X230783333Y-89383333D01*
X231050000Y-89383333D01*
X230050000Y-89016666D02*
X230183333Y-89016666D01*
X230250000Y-89050000D01*
X230283333Y-89083333D01*
X230350000Y-89183333D01*
X230383333Y-89316666D01*
X230383333Y-89583333D01*
X230350000Y-89650000D01*
X230316666Y-89683333D01*
X230250000Y-89716666D01*
X230116666Y-89716666D01*
X230050000Y-89683333D01*
X230016666Y-89650000D01*
X229983333Y-89583333D01*
X229983333Y-89416666D01*
X230016666Y-89350000D01*
X230050000Y-89316666D01*
X230116666Y-89283333D01*
X230250000Y-89283333D01*
X230316666Y-89316666D01*
X230350000Y-89350000D01*
X230383333Y-89416666D01*
X229316666Y-89716666D02*
X229716666Y-89716666D01*
X229516666Y-89716666D02*
X229516666Y-89016666D01*
X229583333Y-89116666D01*
X229650000Y-89183333D01*
X229716666Y-89216666D01*
X228950000Y-51450000D02*
X228983333Y-51416666D01*
X229016666Y-51316666D01*
X229016666Y-51250000D01*
X228983333Y-51150000D01*
X228916666Y-51083333D01*
X228850000Y-51050000D01*
X228716666Y-51016666D01*
X228616666Y-51016666D01*
X228483333Y-51050000D01*
X228416666Y-51083333D01*
X228350000Y-51150000D01*
X228316666Y-51250000D01*
X228316666Y-51316666D01*
X228350000Y-51416666D01*
X228383333Y-51450000D01*
X228550000Y-52050000D02*
X229016666Y-52050000D01*
X228283333Y-51883333D02*
X228783333Y-51716666D01*
X228783333Y-52150000D01*
X228616666Y-52516666D02*
X228583333Y-52450000D01*
X228550000Y-52416666D01*
X228483333Y-52383333D01*
X228450000Y-52383333D01*
X228383333Y-52416666D01*
X228350000Y-52450000D01*
X228316666Y-52516666D01*
X228316666Y-52650000D01*
X228350000Y-52716666D01*
X228383333Y-52750000D01*
X228450000Y-52783333D01*
X228483333Y-52783333D01*
X228550000Y-52750000D01*
X228583333Y-52716666D01*
X228616666Y-52650000D01*
X228616666Y-52516666D01*
X228650000Y-52450000D01*
X228683333Y-52416666D01*
X228750000Y-52383333D01*
X228883333Y-52383333D01*
X228950000Y-52416666D01*
X228983333Y-52450000D01*
X229016666Y-52516666D01*
X229016666Y-52650000D01*
X228983333Y-52716666D01*
X228950000Y-52750000D01*
X228883333Y-52783333D01*
X228750000Y-52783333D01*
X228683333Y-52750000D01*
X228650000Y-52716666D01*
X228616666Y-52650000D01*
X230350000Y-51450000D02*
X230383333Y-51416666D01*
X230416666Y-51316666D01*
X230416666Y-51250000D01*
X230383333Y-51150000D01*
X230316666Y-51083333D01*
X230250000Y-51050000D01*
X230116666Y-51016666D01*
X230016666Y-51016666D01*
X229883333Y-51050000D01*
X229816666Y-51083333D01*
X229750000Y-51150000D01*
X229716666Y-51250000D01*
X229716666Y-51316666D01*
X229750000Y-51416666D01*
X229783333Y-51450000D01*
X229950000Y-52050000D02*
X230416666Y-52050000D01*
X229683333Y-51883333D02*
X230183333Y-51716666D01*
X230183333Y-52150000D01*
X229716666Y-52350000D02*
X229716666Y-52816666D01*
X230416666Y-52516666D01*
X220750000Y-58550000D02*
X220783333Y-58516666D01*
X220816666Y-58416666D01*
X220816666Y-58350000D01*
X220783333Y-58250000D01*
X220716666Y-58183333D01*
X220650000Y-58150000D01*
X220516666Y-58116666D01*
X220416666Y-58116666D01*
X220283333Y-58150000D01*
X220216666Y-58183333D01*
X220150000Y-58250000D01*
X220116666Y-58350000D01*
X220116666Y-58416666D01*
X220150000Y-58516666D01*
X220183333Y-58550000D01*
X220350000Y-59150000D02*
X220816666Y-59150000D01*
X220083333Y-58983333D02*
X220583333Y-58816666D01*
X220583333Y-59250000D01*
X220116666Y-59816666D02*
X220116666Y-59683333D01*
X220150000Y-59616666D01*
X220183333Y-59583333D01*
X220283333Y-59516666D01*
X220416666Y-59483333D01*
X220683333Y-59483333D01*
X220750000Y-59516666D01*
X220783333Y-59550000D01*
X220816666Y-59616666D01*
X220816666Y-59750000D01*
X220783333Y-59816666D01*
X220750000Y-59850000D01*
X220683333Y-59883333D01*
X220516666Y-59883333D01*
X220450000Y-59850000D01*
X220416666Y-59816666D01*
X220383333Y-59750000D01*
X220383333Y-59616666D01*
X220416666Y-59550000D01*
X220450000Y-59516666D01*
X220516666Y-59483333D01*
X219616666Y-53350000D02*
X219283333Y-53116666D01*
X219616666Y-52950000D02*
X218916666Y-52950000D01*
X218916666Y-53216666D01*
X218950000Y-53283333D01*
X218983333Y-53316666D01*
X219050000Y-53350000D01*
X219150000Y-53350000D01*
X219216666Y-53316666D01*
X219250000Y-53283333D01*
X219283333Y-53216666D01*
X219283333Y-52950000D01*
X218916666Y-53983333D02*
X218916666Y-53650000D01*
X219250000Y-53616666D01*
X219216666Y-53650000D01*
X219183333Y-53716666D01*
X219183333Y-53883333D01*
X219216666Y-53950000D01*
X219250000Y-53983333D01*
X219316666Y-54016666D01*
X219483333Y-54016666D01*
X219550000Y-53983333D01*
X219583333Y-53950000D01*
X219616666Y-53883333D01*
X219616666Y-53716666D01*
X219583333Y-53650000D01*
X219550000Y-53616666D01*
X218916666Y-54650000D02*
X218916666Y-54316666D01*
X219250000Y-54283333D01*
X219216666Y-54316666D01*
X219183333Y-54383333D01*
X219183333Y-54550000D01*
X219216666Y-54616666D01*
X219250000Y-54650000D01*
X219316666Y-54683333D01*
X219483333Y-54683333D01*
X219550000Y-54650000D01*
X219583333Y-54616666D01*
X219616666Y-54550000D01*
X219616666Y-54383333D01*
X219583333Y-54316666D01*
X219550000Y-54283333D01*
X212316666Y-55483333D02*
X212883333Y-55483333D01*
X212950000Y-55516666D01*
X212983333Y-55550000D01*
X213016666Y-55616666D01*
X213016666Y-55750000D01*
X212983333Y-55816666D01*
X212950000Y-55850000D01*
X212883333Y-55883333D01*
X212316666Y-55883333D01*
X213016666Y-56583333D02*
X213016666Y-56183333D01*
X213016666Y-56383333D02*
X212316666Y-56383333D01*
X212416666Y-56316666D01*
X212483333Y-56250000D01*
X212516666Y-56183333D01*
X212316666Y-56816666D02*
X212316666Y-57250000D01*
X212583333Y-57016666D01*
X212583333Y-57116666D01*
X212616666Y-57183333D01*
X212650000Y-57216666D01*
X212716666Y-57250000D01*
X212883333Y-57250000D01*
X212950000Y-57216666D01*
X212983333Y-57183333D01*
X213016666Y-57116666D01*
X213016666Y-56916666D01*
X212983333Y-56850000D01*
X212950000Y-56816666D01*
X218700000Y-62796666D02*
X218933333Y-62463333D01*
X219100000Y-62796666D02*
X219100000Y-62096666D01*
X218833333Y-62096666D01*
X218766666Y-62130000D01*
X218733333Y-62163333D01*
X218700000Y-62230000D01*
X218700000Y-62330000D01*
X218733333Y-62396666D01*
X218766666Y-62430000D01*
X218833333Y-62463333D01*
X219100000Y-62463333D01*
X218100000Y-62096666D02*
X218233333Y-62096666D01*
X218300000Y-62130000D01*
X218333333Y-62163333D01*
X218400000Y-62263333D01*
X218433333Y-62396666D01*
X218433333Y-62663333D01*
X218400000Y-62730000D01*
X218366666Y-62763333D01*
X218300000Y-62796666D01*
X218166666Y-62796666D01*
X218100000Y-62763333D01*
X218066666Y-62730000D01*
X218033333Y-62663333D01*
X218033333Y-62496666D01*
X218066666Y-62430000D01*
X218100000Y-62396666D01*
X218166666Y-62363333D01*
X218300000Y-62363333D01*
X218366666Y-62396666D01*
X218400000Y-62430000D01*
X218433333Y-62496666D01*
X217600000Y-62096666D02*
X217533333Y-62096666D01*
X217466666Y-62130000D01*
X217433333Y-62163333D01*
X217400000Y-62230000D01*
X217366666Y-62363333D01*
X217366666Y-62530000D01*
X217400000Y-62663333D01*
X217433333Y-62730000D01*
X217466666Y-62763333D01*
X217533333Y-62796666D01*
X217600000Y-62796666D01*
X217666666Y-62763333D01*
X217700000Y-62730000D01*
X217733333Y-62663333D01*
X217766666Y-62530000D01*
X217766666Y-62363333D01*
X217733333Y-62230000D01*
X217700000Y-62163333D01*
X217666666Y-62130000D01*
X217600000Y-62096666D01*
X213316666Y-61050000D02*
X212983333Y-60816666D01*
X213316666Y-60650000D02*
X212616666Y-60650000D01*
X212616666Y-60916666D01*
X212650000Y-60983333D01*
X212683333Y-61016666D01*
X212750000Y-61050000D01*
X212850000Y-61050000D01*
X212916666Y-61016666D01*
X212950000Y-60983333D01*
X212983333Y-60916666D01*
X212983333Y-60650000D01*
X212616666Y-61683333D02*
X212616666Y-61350000D01*
X212950000Y-61316666D01*
X212916666Y-61350000D01*
X212883333Y-61416666D01*
X212883333Y-61583333D01*
X212916666Y-61650000D01*
X212950000Y-61683333D01*
X213016666Y-61716666D01*
X213183333Y-61716666D01*
X213250000Y-61683333D01*
X213283333Y-61650000D01*
X213316666Y-61583333D01*
X213316666Y-61416666D01*
X213283333Y-61350000D01*
X213250000Y-61316666D01*
X213316666Y-62050000D02*
X213316666Y-62183333D01*
X213283333Y-62250000D01*
X213250000Y-62283333D01*
X213150000Y-62350000D01*
X213016666Y-62383333D01*
X212750000Y-62383333D01*
X212683333Y-62350000D01*
X212650000Y-62316666D01*
X212616666Y-62250000D01*
X212616666Y-62116666D01*
X212650000Y-62050000D01*
X212683333Y-62016666D01*
X212750000Y-61983333D01*
X212916666Y-61983333D01*
X212983333Y-62016666D01*
X213016666Y-62050000D01*
X213050000Y-62116666D01*
X213050000Y-62250000D01*
X213016666Y-62316666D01*
X212983333Y-62350000D01*
X212916666Y-62383333D01*
X221750000Y-63250000D02*
X221783333Y-63283333D01*
X221883333Y-63316666D01*
X221950000Y-63316666D01*
X222050000Y-63283333D01*
X222116666Y-63216666D01*
X222150000Y-63150000D01*
X222183333Y-63016666D01*
X222183333Y-62916666D01*
X222150000Y-62783333D01*
X222116666Y-62716666D01*
X222050000Y-62650000D01*
X221950000Y-62616666D01*
X221883333Y-62616666D01*
X221783333Y-62650000D01*
X221750000Y-62683333D01*
X221083333Y-63316666D02*
X221483333Y-63316666D01*
X221283333Y-63316666D02*
X221283333Y-62616666D01*
X221350000Y-62716666D01*
X221416666Y-62783333D01*
X221483333Y-62816666D01*
X220483333Y-62850000D02*
X220483333Y-63316666D01*
X220650000Y-62583333D02*
X220816666Y-63083333D01*
X220383333Y-63083333D01*
X216550000Y-60550000D02*
X216583333Y-60516666D01*
X216616666Y-60416666D01*
X216616666Y-60350000D01*
X216583333Y-60250000D01*
X216516666Y-60183333D01*
X216450000Y-60150000D01*
X216316666Y-60116666D01*
X216216666Y-60116666D01*
X216083333Y-60150000D01*
X216016666Y-60183333D01*
X215950000Y-60250000D01*
X215916666Y-60350000D01*
X215916666Y-60416666D01*
X215950000Y-60516666D01*
X215983333Y-60550000D01*
X216616666Y-61216666D02*
X216616666Y-60816666D01*
X216616666Y-61016666D02*
X215916666Y-61016666D01*
X216016666Y-60950000D01*
X216083333Y-60883333D01*
X216116666Y-60816666D01*
X215916666Y-61450000D02*
X215916666Y-61883333D01*
X216183333Y-61650000D01*
X216183333Y-61750000D01*
X216216666Y-61816666D01*
X216250000Y-61850000D01*
X216316666Y-61883333D01*
X216483333Y-61883333D01*
X216550000Y-61850000D01*
X216583333Y-61816666D01*
X216616666Y-61750000D01*
X216616666Y-61550000D01*
X216583333Y-61483333D01*
X216550000Y-61450000D01*
X185816666Y-88550000D02*
X185483333Y-88316666D01*
X185816666Y-88150000D02*
X185116666Y-88150000D01*
X185116666Y-88416666D01*
X185150000Y-88483333D01*
X185183333Y-88516666D01*
X185250000Y-88550000D01*
X185350000Y-88550000D01*
X185416666Y-88516666D01*
X185450000Y-88483333D01*
X185483333Y-88416666D01*
X185483333Y-88150000D01*
X185183333Y-88816666D02*
X185150000Y-88850000D01*
X185116666Y-88916666D01*
X185116666Y-89083333D01*
X185150000Y-89150000D01*
X185183333Y-89183333D01*
X185250000Y-89216666D01*
X185316666Y-89216666D01*
X185416666Y-89183333D01*
X185816666Y-88783333D01*
X185816666Y-89216666D01*
X185350000Y-89816666D02*
X185816666Y-89816666D01*
X185083333Y-89650000D02*
X185583333Y-89483333D01*
X185583333Y-89916666D01*
X190950000Y-80216666D02*
X191183333Y-79883333D01*
X191350000Y-80216666D02*
X191350000Y-79516666D01*
X191083333Y-79516666D01*
X191016666Y-79550000D01*
X190983333Y-79583333D01*
X190950000Y-79650000D01*
X190950000Y-79750000D01*
X190983333Y-79816666D01*
X191016666Y-79850000D01*
X191083333Y-79883333D01*
X191350000Y-79883333D01*
X190283333Y-80216666D02*
X190683333Y-80216666D01*
X190483333Y-80216666D02*
X190483333Y-79516666D01*
X190550000Y-79616666D01*
X190616666Y-79683333D01*
X190683333Y-79716666D01*
X189850000Y-79516666D02*
X189783333Y-79516666D01*
X189716666Y-79550000D01*
X189683333Y-79583333D01*
X189650000Y-79650000D01*
X189616666Y-79783333D01*
X189616666Y-79950000D01*
X189650000Y-80083333D01*
X189683333Y-80150000D01*
X189716666Y-80183333D01*
X189783333Y-80216666D01*
X189850000Y-80216666D01*
X189916666Y-80183333D01*
X189950000Y-80150000D01*
X189983333Y-80083333D01*
X190016666Y-79950000D01*
X190016666Y-79783333D01*
X189983333Y-79650000D01*
X189950000Y-79583333D01*
X189916666Y-79550000D01*
X189850000Y-79516666D01*
X221016666Y-53350000D02*
X220683333Y-53116666D01*
X221016666Y-52950000D02*
X220316666Y-52950000D01*
X220316666Y-53216666D01*
X220350000Y-53283333D01*
X220383333Y-53316666D01*
X220450000Y-53350000D01*
X220550000Y-53350000D01*
X220616666Y-53316666D01*
X220650000Y-53283333D01*
X220683333Y-53216666D01*
X220683333Y-52950000D01*
X220316666Y-53983333D02*
X220316666Y-53650000D01*
X220650000Y-53616666D01*
X220616666Y-53650000D01*
X220583333Y-53716666D01*
X220583333Y-53883333D01*
X220616666Y-53950000D01*
X220650000Y-53983333D01*
X220716666Y-54016666D01*
X220883333Y-54016666D01*
X220950000Y-53983333D01*
X220983333Y-53950000D01*
X221016666Y-53883333D01*
X221016666Y-53716666D01*
X220983333Y-53650000D01*
X220950000Y-53616666D01*
X220316666Y-54616666D02*
X220316666Y-54483333D01*
X220350000Y-54416666D01*
X220383333Y-54383333D01*
X220483333Y-54316666D01*
X220616666Y-54283333D01*
X220883333Y-54283333D01*
X220950000Y-54316666D01*
X220983333Y-54350000D01*
X221016666Y-54416666D01*
X221016666Y-54550000D01*
X220983333Y-54616666D01*
X220950000Y-54650000D01*
X220883333Y-54683333D01*
X220716666Y-54683333D01*
X220650000Y-54650000D01*
X220616666Y-54616666D01*
X220583333Y-54550000D01*
X220583333Y-54416666D01*
X220616666Y-54350000D01*
X220650000Y-54316666D01*
X220716666Y-54283333D01*
X210516666Y-58350000D02*
X210183333Y-58116666D01*
X210516666Y-57950000D02*
X209816666Y-57950000D01*
X209816666Y-58216666D01*
X209850000Y-58283333D01*
X209883333Y-58316666D01*
X209950000Y-58350000D01*
X210050000Y-58350000D01*
X210116666Y-58316666D01*
X210150000Y-58283333D01*
X210183333Y-58216666D01*
X210183333Y-57950000D01*
X209816666Y-58983333D02*
X209816666Y-58650000D01*
X210150000Y-58616666D01*
X210116666Y-58650000D01*
X210083333Y-58716666D01*
X210083333Y-58883333D01*
X210116666Y-58950000D01*
X210150000Y-58983333D01*
X210216666Y-59016666D01*
X210383333Y-59016666D01*
X210450000Y-58983333D01*
X210483333Y-58950000D01*
X210516666Y-58883333D01*
X210516666Y-58716666D01*
X210483333Y-58650000D01*
X210450000Y-58616666D01*
X210050000Y-59616666D02*
X210516666Y-59616666D01*
X209783333Y-59450000D02*
X210283333Y-59283333D01*
X210283333Y-59716666D01*
X207616666Y-63750000D02*
X207283333Y-63516666D01*
X207616666Y-63350000D02*
X206916666Y-63350000D01*
X206916666Y-63616666D01*
X206950000Y-63683333D01*
X206983333Y-63716666D01*
X207050000Y-63750000D01*
X207150000Y-63750000D01*
X207216666Y-63716666D01*
X207250000Y-63683333D01*
X207283333Y-63616666D01*
X207283333Y-63350000D01*
X206983333Y-64016666D02*
X206950000Y-64050000D01*
X206916666Y-64116666D01*
X206916666Y-64283333D01*
X206950000Y-64350000D01*
X206983333Y-64383333D01*
X207050000Y-64416666D01*
X207116666Y-64416666D01*
X207216666Y-64383333D01*
X207616666Y-63983333D01*
X207616666Y-64416666D01*
X206916666Y-65016666D02*
X206916666Y-64883333D01*
X206950000Y-64816666D01*
X206983333Y-64783333D01*
X207083333Y-64716666D01*
X207216666Y-64683333D01*
X207483333Y-64683333D01*
X207550000Y-64716666D01*
X207583333Y-64750000D01*
X207616666Y-64816666D01*
X207616666Y-64950000D01*
X207583333Y-65016666D01*
X207550000Y-65050000D01*
X207483333Y-65083333D01*
X207316666Y-65083333D01*
X207250000Y-65050000D01*
X207216666Y-65016666D01*
X207183333Y-64950000D01*
X207183333Y-64816666D01*
X207216666Y-64750000D01*
X207250000Y-64716666D01*
X207316666Y-64683333D01*
X190950000Y-81716666D02*
X191183333Y-81383333D01*
X191350000Y-81716666D02*
X191350000Y-81016666D01*
X191083333Y-81016666D01*
X191016666Y-81050000D01*
X190983333Y-81083333D01*
X190950000Y-81150000D01*
X190950000Y-81250000D01*
X190983333Y-81316666D01*
X191016666Y-81350000D01*
X191083333Y-81383333D01*
X191350000Y-81383333D01*
X190683333Y-81083333D02*
X190650000Y-81050000D01*
X190583333Y-81016666D01*
X190416666Y-81016666D01*
X190350000Y-81050000D01*
X190316666Y-81083333D01*
X190283333Y-81150000D01*
X190283333Y-81216666D01*
X190316666Y-81316666D01*
X190716666Y-81716666D01*
X190283333Y-81716666D01*
X189616666Y-81716666D02*
X190016666Y-81716666D01*
X189816666Y-81716666D02*
X189816666Y-81016666D01*
X189883333Y-81116666D01*
X189950000Y-81183333D01*
X190016666Y-81216666D01*
X185816666Y-83550000D02*
X185483333Y-83316666D01*
X185816666Y-83150000D02*
X185116666Y-83150000D01*
X185116666Y-83416666D01*
X185150000Y-83483333D01*
X185183333Y-83516666D01*
X185250000Y-83550000D01*
X185350000Y-83550000D01*
X185416666Y-83516666D01*
X185450000Y-83483333D01*
X185483333Y-83416666D01*
X185483333Y-83150000D01*
X185816666Y-84216666D02*
X185816666Y-83816666D01*
X185816666Y-84016666D02*
X185116666Y-84016666D01*
X185216666Y-83950000D01*
X185283333Y-83883333D01*
X185316666Y-83816666D01*
X185116666Y-84450000D02*
X185116666Y-84883333D01*
X185383333Y-84650000D01*
X185383333Y-84750000D01*
X185416666Y-84816666D01*
X185450000Y-84850000D01*
X185516666Y-84883333D01*
X185683333Y-84883333D01*
X185750000Y-84850000D01*
X185783333Y-84816666D01*
X185816666Y-84750000D01*
X185816666Y-84550000D01*
X185783333Y-84483333D01*
X185750000Y-84450000D01*
X211816666Y-58383333D02*
X211483333Y-58150000D01*
X211816666Y-57983333D02*
X211116666Y-57983333D01*
X211116666Y-58250000D01*
X211150000Y-58316666D01*
X211183333Y-58350000D01*
X211250000Y-58383333D01*
X211350000Y-58383333D01*
X211416666Y-58350000D01*
X211450000Y-58316666D01*
X211483333Y-58250000D01*
X211483333Y-57983333D01*
X211116666Y-59016666D02*
X211116666Y-58683333D01*
X211450000Y-58650000D01*
X211416666Y-58683333D01*
X211383333Y-58750000D01*
X211383333Y-58916666D01*
X211416666Y-58983333D01*
X211450000Y-59016666D01*
X211516666Y-59050000D01*
X211683333Y-59050000D01*
X211750000Y-59016666D01*
X211783333Y-58983333D01*
X211816666Y-58916666D01*
X211816666Y-58750000D01*
X211783333Y-58683333D01*
X211750000Y-58650000D01*
X211916666Y-76616666D02*
X212150000Y-76283333D01*
X212316666Y-76616666D02*
X212316666Y-75916666D01*
X212050000Y-75916666D01*
X211983333Y-75950000D01*
X211950000Y-75983333D01*
X211916666Y-76050000D01*
X211916666Y-76150000D01*
X211950000Y-76216666D01*
X211983333Y-76250000D01*
X212050000Y-76283333D01*
X212316666Y-76283333D01*
X211316666Y-76150000D02*
X211316666Y-76616666D01*
X211483333Y-75883333D02*
X211650000Y-76383333D01*
X211216666Y-76383333D01*
X225916666Y-56816666D02*
X226150000Y-56483333D01*
X226316666Y-56816666D02*
X226316666Y-56116666D01*
X226050000Y-56116666D01*
X225983333Y-56150000D01*
X225950000Y-56183333D01*
X225916666Y-56250000D01*
X225916666Y-56350000D01*
X225950000Y-56416666D01*
X225983333Y-56450000D01*
X226050000Y-56483333D01*
X226316666Y-56483333D01*
X225683333Y-56116666D02*
X225250000Y-56116666D01*
X225483333Y-56383333D01*
X225383333Y-56383333D01*
X225316666Y-56416666D01*
X225283333Y-56450000D01*
X225250000Y-56516666D01*
X225250000Y-56683333D01*
X225283333Y-56750000D01*
X225316666Y-56783333D01*
X225383333Y-56816666D01*
X225583333Y-56816666D01*
X225650000Y-56783333D01*
X225683333Y-56750000D01*
X248916666Y-77283333D02*
X249483333Y-77283333D01*
X249550000Y-77316666D01*
X249583333Y-77350000D01*
X249616666Y-77416666D01*
X249616666Y-77550000D01*
X249583333Y-77616666D01*
X249550000Y-77650000D01*
X249483333Y-77683333D01*
X248916666Y-77683333D01*
X249616666Y-78383333D02*
X249616666Y-77983333D01*
X249616666Y-78183333D02*
X248916666Y-78183333D01*
X249016666Y-78116666D01*
X249083333Y-78050000D01*
X249116666Y-77983333D01*
X248983333Y-78650000D02*
X248950000Y-78683333D01*
X248916666Y-78750000D01*
X248916666Y-78916666D01*
X248950000Y-78983333D01*
X248983333Y-79016666D01*
X249050000Y-79050000D01*
X249116666Y-79050000D01*
X249216666Y-79016666D01*
X249616666Y-78616666D01*
X249616666Y-79050000D01*
X248916666Y-69083333D02*
X249483333Y-69083333D01*
X249550000Y-69116666D01*
X249583333Y-69150000D01*
X249616666Y-69216666D01*
X249616666Y-69350000D01*
X249583333Y-69416666D01*
X249550000Y-69450000D01*
X249483333Y-69483333D01*
X248916666Y-69483333D01*
X249616666Y-70183333D02*
X249616666Y-69783333D01*
X249616666Y-69983333D02*
X248916666Y-69983333D01*
X249016666Y-69916666D01*
X249083333Y-69850000D01*
X249116666Y-69783333D01*
X249616666Y-70850000D02*
X249616666Y-70450000D01*
X249616666Y-70650000D02*
X248916666Y-70650000D01*
X249016666Y-70583333D01*
X249083333Y-70516666D01*
X249116666Y-70450000D01*
X241816666Y-77550000D02*
X241483333Y-77316666D01*
X241816666Y-77150000D02*
X241116666Y-77150000D01*
X241116666Y-77416666D01*
X241150000Y-77483333D01*
X241183333Y-77516666D01*
X241250000Y-77550000D01*
X241350000Y-77550000D01*
X241416666Y-77516666D01*
X241450000Y-77483333D01*
X241483333Y-77416666D01*
X241483333Y-77150000D01*
X241116666Y-78183333D02*
X241116666Y-77850000D01*
X241450000Y-77816666D01*
X241416666Y-77850000D01*
X241383333Y-77916666D01*
X241383333Y-78083333D01*
X241416666Y-78150000D01*
X241450000Y-78183333D01*
X241516666Y-78216666D01*
X241683333Y-78216666D01*
X241750000Y-78183333D01*
X241783333Y-78150000D01*
X241816666Y-78083333D01*
X241816666Y-77916666D01*
X241783333Y-77850000D01*
X241750000Y-77816666D01*
X241416666Y-78616666D02*
X241383333Y-78550000D01*
X241350000Y-78516666D01*
X241283333Y-78483333D01*
X241250000Y-78483333D01*
X241183333Y-78516666D01*
X241150000Y-78550000D01*
X241116666Y-78616666D01*
X241116666Y-78750000D01*
X241150000Y-78816666D01*
X241183333Y-78850000D01*
X241250000Y-78883333D01*
X241283333Y-78883333D01*
X241350000Y-78850000D01*
X241383333Y-78816666D01*
X241416666Y-78750000D01*
X241416666Y-78616666D01*
X241450000Y-78550000D01*
X241483333Y-78516666D01*
X241550000Y-78483333D01*
X241683333Y-78483333D01*
X241750000Y-78516666D01*
X241783333Y-78550000D01*
X241816666Y-78616666D01*
X241816666Y-78750000D01*
X241783333Y-78816666D01*
X241750000Y-78850000D01*
X241683333Y-78883333D01*
X241550000Y-78883333D01*
X241483333Y-78850000D01*
X241450000Y-78816666D01*
X241416666Y-78750000D01*
X245550000Y-64416666D02*
X245783333Y-64083333D01*
X245950000Y-64416666D02*
X245950000Y-63716666D01*
X245683333Y-63716666D01*
X245616666Y-63750000D01*
X245583333Y-63783333D01*
X245550000Y-63850000D01*
X245550000Y-63950000D01*
X245583333Y-64016666D01*
X245616666Y-64050000D01*
X245683333Y-64083333D01*
X245950000Y-64083333D01*
X244916666Y-63716666D02*
X245250000Y-63716666D01*
X245283333Y-64050000D01*
X245250000Y-64016666D01*
X245183333Y-63983333D01*
X245016666Y-63983333D01*
X244950000Y-64016666D01*
X244916666Y-64050000D01*
X244883333Y-64116666D01*
X244883333Y-64283333D01*
X244916666Y-64350000D01*
X244950000Y-64383333D01*
X245016666Y-64416666D01*
X245183333Y-64416666D01*
X245250000Y-64383333D01*
X245283333Y-64350000D01*
X244650000Y-63716666D02*
X244183333Y-63716666D01*
X244483333Y-64416666D01*
X219450000Y-70616666D02*
X219683333Y-70283333D01*
X219850000Y-70616666D02*
X219850000Y-69916666D01*
X219583333Y-69916666D01*
X219516666Y-69950000D01*
X219483333Y-69983333D01*
X219450000Y-70050000D01*
X219450000Y-70150000D01*
X219483333Y-70216666D01*
X219516666Y-70250000D01*
X219583333Y-70283333D01*
X219850000Y-70283333D01*
X218783333Y-70616666D02*
X219183333Y-70616666D01*
X218983333Y-70616666D02*
X218983333Y-69916666D01*
X219050000Y-70016666D01*
X219116666Y-70083333D01*
X219183333Y-70116666D01*
X218516666Y-69983333D02*
X218483333Y-69950000D01*
X218416666Y-69916666D01*
X218250000Y-69916666D01*
X218183333Y-69950000D01*
X218150000Y-69983333D01*
X218116666Y-70050000D01*
X218116666Y-70116666D01*
X218150000Y-70216666D01*
X218550000Y-70616666D01*
X218116666Y-70616666D01*
X227350000Y-74950000D02*
X227383333Y-74916666D01*
X227416666Y-74816666D01*
X227416666Y-74750000D01*
X227383333Y-74650000D01*
X227316666Y-74583333D01*
X227250000Y-74550000D01*
X227116666Y-74516666D01*
X227016666Y-74516666D01*
X226883333Y-74550000D01*
X226816666Y-74583333D01*
X226750000Y-74650000D01*
X226716666Y-74750000D01*
X226716666Y-74816666D01*
X226750000Y-74916666D01*
X226783333Y-74950000D01*
X227416666Y-75616666D02*
X227416666Y-75216666D01*
X227416666Y-75416666D02*
X226716666Y-75416666D01*
X226816666Y-75350000D01*
X226883333Y-75283333D01*
X226916666Y-75216666D01*
X226783333Y-75883333D02*
X226750000Y-75916666D01*
X226716666Y-75983333D01*
X226716666Y-76150000D01*
X226750000Y-76216666D01*
X226783333Y-76250000D01*
X226850000Y-76283333D01*
X226916666Y-76283333D01*
X227016666Y-76250000D01*
X227416666Y-75850000D01*
X227416666Y-76283333D01*
X211050000Y-70250000D02*
X211083333Y-70216666D01*
X211116666Y-70116666D01*
X211116666Y-70050000D01*
X211083333Y-69950000D01*
X211016666Y-69883333D01*
X210950000Y-69850000D01*
X210816666Y-69816666D01*
X210716666Y-69816666D01*
X210583333Y-69850000D01*
X210516666Y-69883333D01*
X210450000Y-69950000D01*
X210416666Y-70050000D01*
X210416666Y-70116666D01*
X210450000Y-70216666D01*
X210483333Y-70250000D01*
X211116666Y-70916666D02*
X211116666Y-70516666D01*
X211116666Y-70716666D02*
X210416666Y-70716666D01*
X210516666Y-70650000D01*
X210583333Y-70583333D01*
X210616666Y-70516666D01*
X211116666Y-71583333D02*
X211116666Y-71183333D01*
X211116666Y-71383333D02*
X210416666Y-71383333D01*
X210516666Y-71316666D01*
X210583333Y-71250000D01*
X210616666Y-71183333D01*
X209250000Y-60650000D02*
X209283333Y-60616666D01*
X209316666Y-60516666D01*
X209316666Y-60450000D01*
X209283333Y-60350000D01*
X209216666Y-60283333D01*
X209150000Y-60250000D01*
X209016666Y-60216666D01*
X208916666Y-60216666D01*
X208783333Y-60250000D01*
X208716666Y-60283333D01*
X208650000Y-60350000D01*
X208616666Y-60450000D01*
X208616666Y-60516666D01*
X208650000Y-60616666D01*
X208683333Y-60650000D01*
X208616666Y-60883333D02*
X208616666Y-61316666D01*
X208883333Y-61083333D01*
X208883333Y-61183333D01*
X208916666Y-61250000D01*
X208950000Y-61283333D01*
X209016666Y-61316666D01*
X209183333Y-61316666D01*
X209250000Y-61283333D01*
X209283333Y-61250000D01*
X209316666Y-61183333D01*
X209316666Y-60983333D01*
X209283333Y-60916666D01*
X209250000Y-60883333D01*
X208616666Y-61916666D02*
X208616666Y-61783333D01*
X208650000Y-61716666D01*
X208683333Y-61683333D01*
X208783333Y-61616666D01*
X208916666Y-61583333D01*
X209183333Y-61583333D01*
X209250000Y-61616666D01*
X209283333Y-61650000D01*
X209316666Y-61716666D01*
X209316666Y-61850000D01*
X209283333Y-61916666D01*
X209250000Y-61950000D01*
X209183333Y-61983333D01*
X209016666Y-61983333D01*
X208950000Y-61950000D01*
X208916666Y-61916666D01*
X208883333Y-61850000D01*
X208883333Y-61716666D01*
X208916666Y-61650000D01*
X208950000Y-61616666D01*
X209016666Y-61583333D01*
X174150000Y-85746666D02*
X174383333Y-85413333D01*
X174550000Y-85746666D02*
X174550000Y-85046666D01*
X174283333Y-85046666D01*
X174216666Y-85080000D01*
X174183333Y-85113333D01*
X174150000Y-85180000D01*
X174150000Y-85280000D01*
X174183333Y-85346666D01*
X174216666Y-85380000D01*
X174283333Y-85413333D01*
X174550000Y-85413333D01*
X173516666Y-85046666D02*
X173850000Y-85046666D01*
X173883333Y-85380000D01*
X173850000Y-85346666D01*
X173783333Y-85313333D01*
X173616666Y-85313333D01*
X173550000Y-85346666D01*
X173516666Y-85380000D01*
X173483333Y-85446666D01*
X173483333Y-85613333D01*
X173516666Y-85680000D01*
X173550000Y-85713333D01*
X173616666Y-85746666D01*
X173783333Y-85746666D01*
X173850000Y-85713333D01*
X173883333Y-85680000D01*
X173250000Y-85046666D02*
X172816666Y-85046666D01*
X173050000Y-85313333D01*
X172950000Y-85313333D01*
X172883333Y-85346666D01*
X172850000Y-85380000D01*
X172816666Y-85446666D01*
X172816666Y-85613333D01*
X172850000Y-85680000D01*
X172883333Y-85713333D01*
X172950000Y-85746666D01*
X173150000Y-85746666D01*
X173216666Y-85713333D01*
X173250000Y-85680000D01*
X173116666Y-78150000D02*
X172783333Y-77916666D01*
X173116666Y-77750000D02*
X172416666Y-77750000D01*
X172416666Y-78016666D01*
X172450000Y-78083333D01*
X172483333Y-78116666D01*
X172550000Y-78150000D01*
X172650000Y-78150000D01*
X172716666Y-78116666D01*
X172750000Y-78083333D01*
X172783333Y-78016666D01*
X172783333Y-77750000D01*
X172416666Y-78383333D02*
X172416666Y-78816666D01*
X172683333Y-78583333D01*
X172683333Y-78683333D01*
X172716666Y-78750000D01*
X172750000Y-78783333D01*
X172816666Y-78816666D01*
X172983333Y-78816666D01*
X173050000Y-78783333D01*
X173083333Y-78750000D01*
X173116666Y-78683333D01*
X173116666Y-78483333D01*
X173083333Y-78416666D01*
X173050000Y-78383333D01*
X172716666Y-79216666D02*
X172683333Y-79150000D01*
X172650000Y-79116666D01*
X172583333Y-79083333D01*
X172550000Y-79083333D01*
X172483333Y-79116666D01*
X172450000Y-79150000D01*
X172416666Y-79216666D01*
X172416666Y-79350000D01*
X172450000Y-79416666D01*
X172483333Y-79450000D01*
X172550000Y-79483333D01*
X172583333Y-79483333D01*
X172650000Y-79450000D01*
X172683333Y-79416666D01*
X172716666Y-79350000D01*
X172716666Y-79216666D01*
X172750000Y-79150000D01*
X172783333Y-79116666D01*
X172850000Y-79083333D01*
X172983333Y-79083333D01*
X173050000Y-79116666D01*
X173083333Y-79150000D01*
X173116666Y-79216666D01*
X173116666Y-79350000D01*
X173083333Y-79416666D01*
X173050000Y-79450000D01*
X172983333Y-79483333D01*
X172850000Y-79483333D01*
X172783333Y-79450000D01*
X172750000Y-79416666D01*
X172716666Y-79350000D01*
X223066666Y-97483333D02*
X223133333Y-97450000D01*
X223200000Y-97383333D01*
X223300000Y-97283333D01*
X223366666Y-97250000D01*
X223433333Y-97250000D01*
X223400000Y-97416666D02*
X223466666Y-97383333D01*
X223533333Y-97316666D01*
X223566666Y-97183333D01*
X223566666Y-96950000D01*
X223533333Y-96816666D01*
X223466666Y-96750000D01*
X223400000Y-96716666D01*
X223266666Y-96716666D01*
X223200000Y-96750000D01*
X223133333Y-96816666D01*
X223100000Y-96950000D01*
X223100000Y-97183333D01*
X223133333Y-97316666D01*
X223200000Y-97383333D01*
X223266666Y-97416666D01*
X223400000Y-97416666D01*
X222500000Y-96716666D02*
X222633333Y-96716666D01*
X222700000Y-96750000D01*
X222733333Y-96783333D01*
X222800000Y-96883333D01*
X222833333Y-97016666D01*
X222833333Y-97283333D01*
X222800000Y-97350000D01*
X222766666Y-97383333D01*
X222700000Y-97416666D01*
X222566666Y-97416666D01*
X222500000Y-97383333D01*
X222466666Y-97350000D01*
X222433333Y-97283333D01*
X222433333Y-97116666D01*
X222466666Y-97050000D01*
X222500000Y-97016666D01*
X222566666Y-96983333D01*
X222700000Y-96983333D01*
X222766666Y-97016666D01*
X222800000Y-97050000D01*
X222833333Y-97116666D01*
X222966666Y-85483333D02*
X223033333Y-85450000D01*
X223100000Y-85383333D01*
X223200000Y-85283333D01*
X223266666Y-85250000D01*
X223333333Y-85250000D01*
X223300000Y-85416666D02*
X223366666Y-85383333D01*
X223433333Y-85316666D01*
X223466666Y-85183333D01*
X223466666Y-84950000D01*
X223433333Y-84816666D01*
X223366666Y-84750000D01*
X223300000Y-84716666D01*
X223166666Y-84716666D01*
X223100000Y-84750000D01*
X223033333Y-84816666D01*
X223000000Y-84950000D01*
X223000000Y-85183333D01*
X223033333Y-85316666D01*
X223100000Y-85383333D01*
X223166666Y-85416666D01*
X223300000Y-85416666D01*
X222333333Y-85416666D02*
X222733333Y-85416666D01*
X222533333Y-85416666D02*
X222533333Y-84716666D01*
X222600000Y-84816666D01*
X222666666Y-84883333D01*
X222733333Y-84916666D01*
X144850000Y-93116666D02*
X145083333Y-92783333D01*
X145250000Y-93116666D02*
X145250000Y-92416666D01*
X144983333Y-92416666D01*
X144916666Y-92450000D01*
X144883333Y-92483333D01*
X144850000Y-92550000D01*
X144850000Y-92650000D01*
X144883333Y-92716666D01*
X144916666Y-92750000D01*
X144983333Y-92783333D01*
X145250000Y-92783333D01*
X144250000Y-92650000D02*
X144250000Y-93116666D01*
X144416666Y-92383333D02*
X144583333Y-92883333D01*
X144150000Y-92883333D01*
X143583333Y-92416666D02*
X143716666Y-92416666D01*
X143783333Y-92450000D01*
X143816666Y-92483333D01*
X143883333Y-92583333D01*
X143916666Y-92716666D01*
X143916666Y-92983333D01*
X143883333Y-93050000D01*
X143850000Y-93083333D01*
X143783333Y-93116666D01*
X143650000Y-93116666D01*
X143583333Y-93083333D01*
X143550000Y-93050000D01*
X143516666Y-92983333D01*
X143516666Y-92816666D01*
X143550000Y-92750000D01*
X143583333Y-92716666D01*
X143650000Y-92683333D01*
X143783333Y-92683333D01*
X143850000Y-92716666D01*
X143883333Y-92750000D01*
X143916666Y-92816666D01*
X190850000Y-71116666D02*
X191083333Y-70783333D01*
X191250000Y-71116666D02*
X191250000Y-70416666D01*
X190983333Y-70416666D01*
X190916666Y-70450000D01*
X190883333Y-70483333D01*
X190850000Y-70550000D01*
X190850000Y-70650000D01*
X190883333Y-70716666D01*
X190916666Y-70750000D01*
X190983333Y-70783333D01*
X191250000Y-70783333D01*
X190616666Y-70416666D02*
X190183333Y-70416666D01*
X190416666Y-70683333D01*
X190316666Y-70683333D01*
X190250000Y-70716666D01*
X190216666Y-70750000D01*
X190183333Y-70816666D01*
X190183333Y-70983333D01*
X190216666Y-71050000D01*
X190250000Y-71083333D01*
X190316666Y-71116666D01*
X190516666Y-71116666D01*
X190583333Y-71083333D01*
X190616666Y-71050000D01*
X189516666Y-71116666D02*
X189916666Y-71116666D01*
X189716666Y-71116666D02*
X189716666Y-70416666D01*
X189783333Y-70516666D01*
X189850000Y-70583333D01*
X189916666Y-70616666D01*
X168150000Y-97716666D02*
X168150000Y-97016666D01*
X167983333Y-97016666D01*
X167883333Y-97050000D01*
X167816666Y-97116666D01*
X167783333Y-97183333D01*
X167750000Y-97316666D01*
X167750000Y-97416666D01*
X167783333Y-97550000D01*
X167816666Y-97616666D01*
X167883333Y-97683333D01*
X167983333Y-97716666D01*
X168150000Y-97716666D01*
X167083333Y-97716666D02*
X167483333Y-97716666D01*
X167283333Y-97716666D02*
X167283333Y-97016666D01*
X167350000Y-97116666D01*
X167416666Y-97183333D01*
X167483333Y-97216666D01*
X166816666Y-97083333D02*
X166783333Y-97050000D01*
X166716666Y-97016666D01*
X166550000Y-97016666D01*
X166483333Y-97050000D01*
X166450000Y-97083333D01*
X166416666Y-97150000D01*
X166416666Y-97216666D01*
X166450000Y-97316666D01*
X166850000Y-97716666D01*
X166416666Y-97716666D01*
X193316666Y-53983333D02*
X192616666Y-53983333D01*
X192616666Y-54150000D01*
X192650000Y-54250000D01*
X192716666Y-54316666D01*
X192783333Y-54350000D01*
X192916666Y-54383333D01*
X193016666Y-54383333D01*
X193150000Y-54350000D01*
X193216666Y-54316666D01*
X193283333Y-54250000D01*
X193316666Y-54150000D01*
X193316666Y-53983333D01*
X192616666Y-55016666D02*
X192616666Y-54683333D01*
X192950000Y-54650000D01*
X192916666Y-54683333D01*
X192883333Y-54750000D01*
X192883333Y-54916666D01*
X192916666Y-54983333D01*
X192950000Y-55016666D01*
X193016666Y-55050000D01*
X193183333Y-55050000D01*
X193250000Y-55016666D01*
X193283333Y-54983333D01*
X193316666Y-54916666D01*
X193316666Y-54750000D01*
X193283333Y-54683333D01*
X193250000Y-54650000D01*
X144116666Y-60650000D02*
X143783333Y-60416666D01*
X144116666Y-60250000D02*
X143416666Y-60250000D01*
X143416666Y-60516666D01*
X143450000Y-60583333D01*
X143483333Y-60616666D01*
X143550000Y-60650000D01*
X143650000Y-60650000D01*
X143716666Y-60616666D01*
X143750000Y-60583333D01*
X143783333Y-60516666D01*
X143783333Y-60250000D01*
X143416666Y-61283333D02*
X143416666Y-60950000D01*
X143750000Y-60916666D01*
X143716666Y-60950000D01*
X143683333Y-61016666D01*
X143683333Y-61183333D01*
X143716666Y-61250000D01*
X143750000Y-61283333D01*
X143816666Y-61316666D01*
X143983333Y-61316666D01*
X144050000Y-61283333D01*
X144083333Y-61250000D01*
X144116666Y-61183333D01*
X144116666Y-61016666D01*
X144083333Y-60950000D01*
X144050000Y-60916666D01*
X143416666Y-61750000D02*
X143416666Y-61816666D01*
X143450000Y-61883333D01*
X143483333Y-61916666D01*
X143550000Y-61950000D01*
X143683333Y-61983333D01*
X143850000Y-61983333D01*
X143983333Y-61950000D01*
X144050000Y-61916666D01*
X144083333Y-61883333D01*
X144116666Y-61816666D01*
X144116666Y-61750000D01*
X144083333Y-61683333D01*
X144050000Y-61650000D01*
X143983333Y-61616666D01*
X143850000Y-61583333D01*
X143683333Y-61583333D01*
X143550000Y-61616666D01*
X143483333Y-61650000D01*
X143450000Y-61683333D01*
X143416666Y-61750000D01*
X155316666Y-68750000D02*
X154983333Y-68516666D01*
X155316666Y-68350000D02*
X154616666Y-68350000D01*
X154616666Y-68616666D01*
X154650000Y-68683333D01*
X154683333Y-68716666D01*
X154750000Y-68750000D01*
X154850000Y-68750000D01*
X154916666Y-68716666D01*
X154950000Y-68683333D01*
X154983333Y-68616666D01*
X154983333Y-68350000D01*
X154850000Y-69350000D02*
X155316666Y-69350000D01*
X154583333Y-69183333D02*
X155083333Y-69016666D01*
X155083333Y-69450000D01*
X154616666Y-70050000D02*
X154616666Y-69716666D01*
X154950000Y-69683333D01*
X154916666Y-69716666D01*
X154883333Y-69783333D01*
X154883333Y-69950000D01*
X154916666Y-70016666D01*
X154950000Y-70050000D01*
X155016666Y-70083333D01*
X155183333Y-70083333D01*
X155250000Y-70050000D01*
X155283333Y-70016666D01*
X155316666Y-69950000D01*
X155316666Y-69783333D01*
X155283333Y-69716666D01*
X155250000Y-69683333D01*
X145633333Y-63616666D02*
X145633333Y-64183333D01*
X145600000Y-64250000D01*
X145566666Y-64283333D01*
X145500000Y-64316666D01*
X145366666Y-64316666D01*
X145300000Y-64283333D01*
X145266666Y-64250000D01*
X145233333Y-64183333D01*
X145233333Y-63616666D01*
X144966666Y-63616666D02*
X144500000Y-63616666D01*
X144800000Y-64316666D01*
X160933333Y-64916666D02*
X160933333Y-65483333D01*
X160900000Y-65550000D01*
X160866666Y-65583333D01*
X160800000Y-65616666D01*
X160666666Y-65616666D01*
X160600000Y-65583333D01*
X160566666Y-65550000D01*
X160533333Y-65483333D01*
X160533333Y-64916666D01*
X159866666Y-64916666D02*
X160200000Y-64916666D01*
X160233333Y-65250000D01*
X160200000Y-65216666D01*
X160133333Y-65183333D01*
X159966666Y-65183333D01*
X159900000Y-65216666D01*
X159866666Y-65250000D01*
X159833333Y-65316666D01*
X159833333Y-65483333D01*
X159866666Y-65550000D01*
X159900000Y-65583333D01*
X159966666Y-65616666D01*
X160133333Y-65616666D01*
X160200000Y-65583333D01*
X160233333Y-65550000D01*
X152066666Y-65883333D02*
X152133333Y-65850000D01*
X152200000Y-65783333D01*
X152300000Y-65683333D01*
X152366666Y-65650000D01*
X152433333Y-65650000D01*
X152400000Y-65816666D02*
X152466666Y-65783333D01*
X152533333Y-65716666D01*
X152566666Y-65583333D01*
X152566666Y-65350000D01*
X152533333Y-65216666D01*
X152466666Y-65150000D01*
X152400000Y-65116666D01*
X152266666Y-65116666D01*
X152200000Y-65150000D01*
X152133333Y-65216666D01*
X152100000Y-65350000D01*
X152100000Y-65583333D01*
X152133333Y-65716666D01*
X152200000Y-65783333D01*
X152266666Y-65816666D01*
X152400000Y-65816666D01*
X151866666Y-65116666D02*
X151433333Y-65116666D01*
X151666666Y-65383333D01*
X151566666Y-65383333D01*
X151500000Y-65416666D01*
X151466666Y-65450000D01*
X151433333Y-65516666D01*
X151433333Y-65683333D01*
X151466666Y-65750000D01*
X151500000Y-65783333D01*
X151566666Y-65816666D01*
X151766666Y-65816666D01*
X151833333Y-65783333D01*
X151866666Y-65750000D01*
X199116666Y-75883333D02*
X199683333Y-75883333D01*
X199750000Y-75916666D01*
X199783333Y-75950000D01*
X199816666Y-76016666D01*
X199816666Y-76150000D01*
X199783333Y-76216666D01*
X199750000Y-76250000D01*
X199683333Y-76283333D01*
X199116666Y-76283333D01*
X199816666Y-76983333D02*
X199816666Y-76583333D01*
X199816666Y-76783333D02*
X199116666Y-76783333D01*
X199216666Y-76716666D01*
X199283333Y-76650000D01*
X199316666Y-76583333D01*
X199116666Y-77416666D02*
X199116666Y-77483333D01*
X199150000Y-77550000D01*
X199183333Y-77583333D01*
X199250000Y-77616666D01*
X199383333Y-77650000D01*
X199550000Y-77650000D01*
X199683333Y-77616666D01*
X199750000Y-77583333D01*
X199783333Y-77550000D01*
X199816666Y-77483333D01*
X199816666Y-77416666D01*
X199783333Y-77350000D01*
X199750000Y-77316666D01*
X199683333Y-77283333D01*
X199550000Y-77250000D01*
X199383333Y-77250000D01*
X199250000Y-77283333D01*
X199183333Y-77316666D01*
X199150000Y-77350000D01*
X199116666Y-77416666D01*
X200616666Y-56766666D02*
X201183333Y-56766666D01*
X201250000Y-56800000D01*
X201283333Y-56833333D01*
X201316666Y-56900000D01*
X201316666Y-57033333D01*
X201283333Y-57100000D01*
X201250000Y-57133333D01*
X201183333Y-57166666D01*
X200616666Y-57166666D01*
X201316666Y-57533333D02*
X201316666Y-57666666D01*
X201283333Y-57733333D01*
X201250000Y-57766666D01*
X201150000Y-57833333D01*
X201016666Y-57866666D01*
X200750000Y-57866666D01*
X200683333Y-57833333D01*
X200650000Y-57800000D01*
X200616666Y-57733333D01*
X200616666Y-57600000D01*
X200650000Y-57533333D01*
X200683333Y-57500000D01*
X200750000Y-57466666D01*
X200916666Y-57466666D01*
X200983333Y-57500000D01*
X201016666Y-57533333D01*
X201050000Y-57600000D01*
X201050000Y-57733333D01*
X201016666Y-57800000D01*
X200983333Y-57833333D01*
X200916666Y-57866666D01*
X213933333Y-93416666D02*
X213933333Y-93983333D01*
X213900000Y-94050000D01*
X213866666Y-94083333D01*
X213800000Y-94116666D01*
X213666666Y-94116666D01*
X213600000Y-94083333D01*
X213566666Y-94050000D01*
X213533333Y-93983333D01*
X213533333Y-93416666D01*
X212900000Y-93650000D02*
X212900000Y-94116666D01*
X213066666Y-93383333D02*
X213233333Y-93883333D01*
X212800000Y-93883333D01*
X221233333Y-74216666D02*
X221233333Y-74783333D01*
X221200000Y-74850000D01*
X221166666Y-74883333D01*
X221100000Y-74916666D01*
X220966666Y-74916666D01*
X220900000Y-74883333D01*
X220866666Y-74850000D01*
X220833333Y-74783333D01*
X220833333Y-74216666D01*
X220566666Y-74216666D02*
X220133333Y-74216666D01*
X220366666Y-74483333D01*
X220266666Y-74483333D01*
X220200000Y-74516666D01*
X220166666Y-74550000D01*
X220133333Y-74616666D01*
X220133333Y-74783333D01*
X220166666Y-74850000D01*
X220200000Y-74883333D01*
X220266666Y-74916666D01*
X220466666Y-74916666D01*
X220533333Y-74883333D01*
X220566666Y-74850000D01*
X213433333Y-83316666D02*
X213433333Y-83883333D01*
X213400000Y-83950000D01*
X213366666Y-83983333D01*
X213300000Y-84016666D01*
X213166666Y-84016666D01*
X213100000Y-83983333D01*
X213066666Y-83950000D01*
X213033333Y-83883333D01*
X213033333Y-83316666D01*
X212333333Y-84016666D02*
X212733333Y-84016666D01*
X212533333Y-84016666D02*
X212533333Y-83316666D01*
X212600000Y-83416666D01*
X212666666Y-83483333D01*
X212733333Y-83516666D01*
X145516666Y-65950000D02*
X145183333Y-65716666D01*
X145516666Y-65550000D02*
X144816666Y-65550000D01*
X144816666Y-65816666D01*
X144850000Y-65883333D01*
X144883333Y-65916666D01*
X144950000Y-65950000D01*
X145050000Y-65950000D01*
X145116666Y-65916666D01*
X145150000Y-65883333D01*
X145183333Y-65816666D01*
X145183333Y-65550000D01*
X145050000Y-66550000D02*
X145516666Y-66550000D01*
X144783333Y-66383333D02*
X145283333Y-66216666D01*
X145283333Y-66650000D01*
X145516666Y-66950000D02*
X145516666Y-67083333D01*
X145483333Y-67150000D01*
X145450000Y-67183333D01*
X145350000Y-67250000D01*
X145216666Y-67283333D01*
X144950000Y-67283333D01*
X144883333Y-67250000D01*
X144850000Y-67216666D01*
X144816666Y-67150000D01*
X144816666Y-67016666D01*
X144850000Y-66950000D01*
X144883333Y-66916666D01*
X144950000Y-66883333D01*
X145116666Y-66883333D01*
X145183333Y-66916666D01*
X145216666Y-66950000D01*
X145250000Y-67016666D01*
X145250000Y-67150000D01*
X145216666Y-67216666D01*
X145183333Y-67250000D01*
X145116666Y-67283333D01*
X146716666Y-56150000D02*
X146383333Y-55916666D01*
X146716666Y-55750000D02*
X146016666Y-55750000D01*
X146016666Y-56016666D01*
X146050000Y-56083333D01*
X146083333Y-56116666D01*
X146150000Y-56150000D01*
X146250000Y-56150000D01*
X146316666Y-56116666D01*
X146350000Y-56083333D01*
X146383333Y-56016666D01*
X146383333Y-55750000D01*
X146250000Y-56750000D02*
X146716666Y-56750000D01*
X145983333Y-56583333D02*
X146483333Y-56416666D01*
X146483333Y-56850000D01*
X146316666Y-57216666D02*
X146283333Y-57150000D01*
X146250000Y-57116666D01*
X146183333Y-57083333D01*
X146150000Y-57083333D01*
X146083333Y-57116666D01*
X146050000Y-57150000D01*
X146016666Y-57216666D01*
X146016666Y-57350000D01*
X146050000Y-57416666D01*
X146083333Y-57450000D01*
X146150000Y-57483333D01*
X146183333Y-57483333D01*
X146250000Y-57450000D01*
X146283333Y-57416666D01*
X146316666Y-57350000D01*
X146316666Y-57216666D01*
X146350000Y-57150000D01*
X146383333Y-57116666D01*
X146450000Y-57083333D01*
X146583333Y-57083333D01*
X146650000Y-57116666D01*
X146683333Y-57150000D01*
X146716666Y-57216666D01*
X146716666Y-57350000D01*
X146683333Y-57416666D01*
X146650000Y-57450000D01*
X146583333Y-57483333D01*
X146450000Y-57483333D01*
X146383333Y-57450000D01*
X146350000Y-57416666D01*
X146316666Y-57350000D01*
X144850000Y-90916666D02*
X145083333Y-90583333D01*
X145250000Y-90916666D02*
X145250000Y-90216666D01*
X144983333Y-90216666D01*
X144916666Y-90250000D01*
X144883333Y-90283333D01*
X144850000Y-90350000D01*
X144850000Y-90450000D01*
X144883333Y-90516666D01*
X144916666Y-90550000D01*
X144983333Y-90583333D01*
X145250000Y-90583333D01*
X144250000Y-90450000D02*
X144250000Y-90916666D01*
X144416666Y-90183333D02*
X144583333Y-90683333D01*
X144150000Y-90683333D01*
X143950000Y-90216666D02*
X143483333Y-90216666D01*
X143783333Y-90916666D01*
X141316666Y-71250000D02*
X140983333Y-71016666D01*
X141316666Y-70850000D02*
X140616666Y-70850000D01*
X140616666Y-71116666D01*
X140650000Y-71183333D01*
X140683333Y-71216666D01*
X140750000Y-71250000D01*
X140850000Y-71250000D01*
X140916666Y-71216666D01*
X140950000Y-71183333D01*
X140983333Y-71116666D01*
X140983333Y-70850000D01*
X140850000Y-71850000D02*
X141316666Y-71850000D01*
X140583333Y-71683333D02*
X141083333Y-71516666D01*
X141083333Y-71950000D01*
X140850000Y-72516666D02*
X141316666Y-72516666D01*
X140583333Y-72350000D02*
X141083333Y-72183333D01*
X141083333Y-72616666D01*
X168550000Y-70616666D02*
X168783333Y-70283333D01*
X168950000Y-70616666D02*
X168950000Y-69916666D01*
X168683333Y-69916666D01*
X168616666Y-69950000D01*
X168583333Y-69983333D01*
X168550000Y-70050000D01*
X168550000Y-70150000D01*
X168583333Y-70216666D01*
X168616666Y-70250000D01*
X168683333Y-70283333D01*
X168950000Y-70283333D01*
X168316666Y-69916666D02*
X167883333Y-69916666D01*
X168116666Y-70183333D01*
X168016666Y-70183333D01*
X167950000Y-70216666D01*
X167916666Y-70250000D01*
X167883333Y-70316666D01*
X167883333Y-70483333D01*
X167916666Y-70550000D01*
X167950000Y-70583333D01*
X168016666Y-70616666D01*
X168216666Y-70616666D01*
X168283333Y-70583333D01*
X168316666Y-70550000D01*
X167550000Y-70616666D02*
X167416666Y-70616666D01*
X167350000Y-70583333D01*
X167316666Y-70550000D01*
X167250000Y-70450000D01*
X167216666Y-70316666D01*
X167216666Y-70050000D01*
X167250000Y-69983333D01*
X167283333Y-69950000D01*
X167350000Y-69916666D01*
X167483333Y-69916666D01*
X167550000Y-69950000D01*
X167583333Y-69983333D01*
X167616666Y-70050000D01*
X167616666Y-70216666D01*
X167583333Y-70283333D01*
X167550000Y-70316666D01*
X167483333Y-70350000D01*
X167350000Y-70350000D01*
X167283333Y-70316666D01*
X167250000Y-70283333D01*
X167216666Y-70216666D01*
X158916666Y-68550000D02*
X158583333Y-68316666D01*
X158916666Y-68150000D02*
X158216666Y-68150000D01*
X158216666Y-68416666D01*
X158250000Y-68483333D01*
X158283333Y-68516666D01*
X158350000Y-68550000D01*
X158450000Y-68550000D01*
X158516666Y-68516666D01*
X158550000Y-68483333D01*
X158583333Y-68416666D01*
X158583333Y-68150000D01*
X158216666Y-68783333D02*
X158216666Y-69216666D01*
X158483333Y-68983333D01*
X158483333Y-69083333D01*
X158516666Y-69150000D01*
X158550000Y-69183333D01*
X158616666Y-69216666D01*
X158783333Y-69216666D01*
X158850000Y-69183333D01*
X158883333Y-69150000D01*
X158916666Y-69083333D01*
X158916666Y-68883333D01*
X158883333Y-68816666D01*
X158850000Y-68783333D01*
X158216666Y-69850000D02*
X158216666Y-69516666D01*
X158550000Y-69483333D01*
X158516666Y-69516666D01*
X158483333Y-69583333D01*
X158483333Y-69750000D01*
X158516666Y-69816666D01*
X158550000Y-69850000D01*
X158616666Y-69883333D01*
X158783333Y-69883333D01*
X158850000Y-69850000D01*
X158883333Y-69816666D01*
X158916666Y-69750000D01*
X158916666Y-69583333D01*
X158883333Y-69516666D01*
X158850000Y-69483333D01*
X168550000Y-69316666D02*
X168783333Y-68983333D01*
X168950000Y-69316666D02*
X168950000Y-68616666D01*
X168683333Y-68616666D01*
X168616666Y-68650000D01*
X168583333Y-68683333D01*
X168550000Y-68750000D01*
X168550000Y-68850000D01*
X168583333Y-68916666D01*
X168616666Y-68950000D01*
X168683333Y-68983333D01*
X168950000Y-68983333D01*
X168316666Y-68616666D02*
X167883333Y-68616666D01*
X168116666Y-68883333D01*
X168016666Y-68883333D01*
X167950000Y-68916666D01*
X167916666Y-68950000D01*
X167883333Y-69016666D01*
X167883333Y-69183333D01*
X167916666Y-69250000D01*
X167950000Y-69283333D01*
X168016666Y-69316666D01*
X168216666Y-69316666D01*
X168283333Y-69283333D01*
X168316666Y-69250000D01*
X167283333Y-68850000D02*
X167283333Y-69316666D01*
X167450000Y-68583333D02*
X167616666Y-69083333D01*
X167183333Y-69083333D01*
X161950000Y-56616666D02*
X162183333Y-56283333D01*
X162350000Y-56616666D02*
X162350000Y-55916666D01*
X162083333Y-55916666D01*
X162016666Y-55950000D01*
X161983333Y-55983333D01*
X161950000Y-56050000D01*
X161950000Y-56150000D01*
X161983333Y-56216666D01*
X162016666Y-56250000D01*
X162083333Y-56283333D01*
X162350000Y-56283333D01*
X161716666Y-55916666D02*
X161283333Y-55916666D01*
X161516666Y-56183333D01*
X161416666Y-56183333D01*
X161350000Y-56216666D01*
X161316666Y-56250000D01*
X161283333Y-56316666D01*
X161283333Y-56483333D01*
X161316666Y-56550000D01*
X161350000Y-56583333D01*
X161416666Y-56616666D01*
X161616666Y-56616666D01*
X161683333Y-56583333D01*
X161716666Y-56550000D01*
X161050000Y-55916666D02*
X160616666Y-55916666D01*
X160850000Y-56183333D01*
X160750000Y-56183333D01*
X160683333Y-56216666D01*
X160650000Y-56250000D01*
X160616666Y-56316666D01*
X160616666Y-56483333D01*
X160650000Y-56550000D01*
X160683333Y-56583333D01*
X160750000Y-56616666D01*
X160950000Y-56616666D01*
X161016666Y-56583333D01*
X161050000Y-56550000D01*
X190850000Y-66616666D02*
X191083333Y-66283333D01*
X191250000Y-66616666D02*
X191250000Y-65916666D01*
X190983333Y-65916666D01*
X190916666Y-65950000D01*
X190883333Y-65983333D01*
X190850000Y-66050000D01*
X190850000Y-66150000D01*
X190883333Y-66216666D01*
X190916666Y-66250000D01*
X190983333Y-66283333D01*
X191250000Y-66283333D01*
X190616666Y-65916666D02*
X190183333Y-65916666D01*
X190416666Y-66183333D01*
X190316666Y-66183333D01*
X190250000Y-66216666D01*
X190216666Y-66250000D01*
X190183333Y-66316666D01*
X190183333Y-66483333D01*
X190216666Y-66550000D01*
X190250000Y-66583333D01*
X190316666Y-66616666D01*
X190516666Y-66616666D01*
X190583333Y-66583333D01*
X190616666Y-66550000D01*
X189916666Y-65983333D02*
X189883333Y-65950000D01*
X189816666Y-65916666D01*
X189650000Y-65916666D01*
X189583333Y-65950000D01*
X189550000Y-65983333D01*
X189516666Y-66050000D01*
X189516666Y-66116666D01*
X189550000Y-66216666D01*
X189950000Y-66616666D01*
X189516666Y-66616666D01*
X230450000Y-68916666D02*
X230683333Y-68583333D01*
X230850000Y-68916666D02*
X230850000Y-68216666D01*
X230583333Y-68216666D01*
X230516666Y-68250000D01*
X230483333Y-68283333D01*
X230450000Y-68350000D01*
X230450000Y-68450000D01*
X230483333Y-68516666D01*
X230516666Y-68550000D01*
X230583333Y-68583333D01*
X230850000Y-68583333D01*
X230183333Y-68283333D02*
X230150000Y-68250000D01*
X230083333Y-68216666D01*
X229916666Y-68216666D01*
X229850000Y-68250000D01*
X229816666Y-68283333D01*
X229783333Y-68350000D01*
X229783333Y-68416666D01*
X229816666Y-68516666D01*
X230216666Y-68916666D01*
X229783333Y-68916666D01*
X229150000Y-68216666D02*
X229483333Y-68216666D01*
X229516666Y-68550000D01*
X229483333Y-68516666D01*
X229416666Y-68483333D01*
X229250000Y-68483333D01*
X229183333Y-68516666D01*
X229150000Y-68550000D01*
X229116666Y-68616666D01*
X229116666Y-68783333D01*
X229150000Y-68850000D01*
X229183333Y-68883333D01*
X229250000Y-68916666D01*
X229416666Y-68916666D01*
X229483333Y-68883333D01*
X229516666Y-68850000D01*
X225050000Y-69036666D02*
X225283333Y-68703333D01*
X225450000Y-69036666D02*
X225450000Y-68336666D01*
X225183333Y-68336666D01*
X225116666Y-68370000D01*
X225083333Y-68403333D01*
X225050000Y-68470000D01*
X225050000Y-68570000D01*
X225083333Y-68636666D01*
X225116666Y-68670000D01*
X225183333Y-68703333D01*
X225450000Y-68703333D01*
X224783333Y-68403333D02*
X224750000Y-68370000D01*
X224683333Y-68336666D01*
X224516666Y-68336666D01*
X224450000Y-68370000D01*
X224416666Y-68403333D01*
X224383333Y-68470000D01*
X224383333Y-68536666D01*
X224416666Y-68636666D01*
X224816666Y-69036666D01*
X224383333Y-69036666D01*
X224150000Y-68336666D02*
X223716666Y-68336666D01*
X223950000Y-68603333D01*
X223850000Y-68603333D01*
X223783333Y-68636666D01*
X223750000Y-68670000D01*
X223716666Y-68736666D01*
X223716666Y-68903333D01*
X223750000Y-68970000D01*
X223783333Y-69003333D01*
X223850000Y-69036666D01*
X224050000Y-69036666D01*
X224116666Y-69003333D01*
X224150000Y-68970000D01*
X227186666Y-67300000D02*
X226853333Y-67066666D01*
X227186666Y-66900000D02*
X226486666Y-66900000D01*
X226486666Y-67166666D01*
X226520000Y-67233333D01*
X226553333Y-67266666D01*
X226620000Y-67300000D01*
X226720000Y-67300000D01*
X226786666Y-67266666D01*
X226820000Y-67233333D01*
X226853333Y-67166666D01*
X226853333Y-66900000D01*
X226553333Y-67566666D02*
X226520000Y-67600000D01*
X226486666Y-67666666D01*
X226486666Y-67833333D01*
X226520000Y-67900000D01*
X226553333Y-67933333D01*
X226620000Y-67966666D01*
X226686666Y-67966666D01*
X226786666Y-67933333D01*
X227186666Y-67533333D01*
X227186666Y-67966666D01*
X226553333Y-68233333D02*
X226520000Y-68266666D01*
X226486666Y-68333333D01*
X226486666Y-68500000D01*
X226520000Y-68566666D01*
X226553333Y-68600000D01*
X226620000Y-68633333D01*
X226686666Y-68633333D01*
X226786666Y-68600000D01*
X227186666Y-68200000D01*
X227186666Y-68633333D01*
X230916666Y-70150000D02*
X230583333Y-69916666D01*
X230916666Y-69750000D02*
X230216666Y-69750000D01*
X230216666Y-70016666D01*
X230250000Y-70083333D01*
X230283333Y-70116666D01*
X230350000Y-70150000D01*
X230450000Y-70150000D01*
X230516666Y-70116666D01*
X230550000Y-70083333D01*
X230583333Y-70016666D01*
X230583333Y-69750000D01*
X230283333Y-70416666D02*
X230250000Y-70450000D01*
X230216666Y-70516666D01*
X230216666Y-70683333D01*
X230250000Y-70750000D01*
X230283333Y-70783333D01*
X230350000Y-70816666D01*
X230416666Y-70816666D01*
X230516666Y-70783333D01*
X230916666Y-70383333D01*
X230916666Y-70816666D01*
X230216666Y-71250000D02*
X230216666Y-71316666D01*
X230250000Y-71383333D01*
X230283333Y-71416666D01*
X230350000Y-71450000D01*
X230483333Y-71483333D01*
X230650000Y-71483333D01*
X230783333Y-71450000D01*
X230850000Y-71416666D01*
X230883333Y-71383333D01*
X230916666Y-71316666D01*
X230916666Y-71250000D01*
X230883333Y-71183333D01*
X230850000Y-71150000D01*
X230783333Y-71116666D01*
X230650000Y-71083333D01*
X230483333Y-71083333D01*
X230350000Y-71116666D01*
X230283333Y-71150000D01*
X230250000Y-71183333D01*
X230216666Y-71250000D01*
X230650000Y-91016666D02*
X230883333Y-90683333D01*
X231050000Y-91016666D02*
X231050000Y-90316666D01*
X230783333Y-90316666D01*
X230716666Y-90350000D01*
X230683333Y-90383333D01*
X230650000Y-90450000D01*
X230650000Y-90550000D01*
X230683333Y-90616666D01*
X230716666Y-90650000D01*
X230783333Y-90683333D01*
X231050000Y-90683333D01*
X229983333Y-91016666D02*
X230383333Y-91016666D01*
X230183333Y-91016666D02*
X230183333Y-90316666D01*
X230250000Y-90416666D01*
X230316666Y-90483333D01*
X230383333Y-90516666D01*
X229650000Y-91016666D02*
X229516666Y-91016666D01*
X229450000Y-90983333D01*
X229416666Y-90950000D01*
X229350000Y-90850000D01*
X229316666Y-90716666D01*
X229316666Y-90450000D01*
X229350000Y-90383333D01*
X229383333Y-90350000D01*
X229450000Y-90316666D01*
X229583333Y-90316666D01*
X229650000Y-90350000D01*
X229683333Y-90383333D01*
X229716666Y-90450000D01*
X229716666Y-90616666D01*
X229683333Y-90683333D01*
X229650000Y-90716666D01*
X229583333Y-90750000D01*
X229450000Y-90750000D01*
X229383333Y-90716666D01*
X229350000Y-90683333D01*
X229316666Y-90616666D01*
X216900000Y-99216666D02*
X217133333Y-98883333D01*
X217300000Y-99216666D02*
X217300000Y-98516666D01*
X217033333Y-98516666D01*
X216966666Y-98550000D01*
X216933333Y-98583333D01*
X216900000Y-98650000D01*
X216900000Y-98750000D01*
X216933333Y-98816666D01*
X216966666Y-98850000D01*
X217033333Y-98883333D01*
X217300000Y-98883333D01*
X216233333Y-99216666D02*
X216633333Y-99216666D01*
X216433333Y-99216666D02*
X216433333Y-98516666D01*
X216500000Y-98616666D01*
X216566666Y-98683333D01*
X216633333Y-98716666D01*
X215833333Y-98816666D02*
X215900000Y-98783333D01*
X215933333Y-98750000D01*
X215966666Y-98683333D01*
X215966666Y-98650000D01*
X215933333Y-98583333D01*
X215900000Y-98550000D01*
X215833333Y-98516666D01*
X215700000Y-98516666D01*
X215633333Y-98550000D01*
X215600000Y-98583333D01*
X215566666Y-98650000D01*
X215566666Y-98683333D01*
X215600000Y-98750000D01*
X215633333Y-98783333D01*
X215700000Y-98816666D01*
X215833333Y-98816666D01*
X215900000Y-98850000D01*
X215933333Y-98883333D01*
X215966666Y-98950000D01*
X215966666Y-99083333D01*
X215933333Y-99150000D01*
X215900000Y-99183333D01*
X215833333Y-99216666D01*
X215700000Y-99216666D01*
X215633333Y-99183333D01*
X215600000Y-99150000D01*
X215566666Y-99083333D01*
X215566666Y-98950000D01*
X215600000Y-98883333D01*
X215633333Y-98850000D01*
X215700000Y-98816666D01*
X233016666Y-98350000D02*
X232683333Y-98116666D01*
X233016666Y-97950000D02*
X232316666Y-97950000D01*
X232316666Y-98216666D01*
X232350000Y-98283333D01*
X232383333Y-98316666D01*
X232450000Y-98350000D01*
X232550000Y-98350000D01*
X232616666Y-98316666D01*
X232650000Y-98283333D01*
X232683333Y-98216666D01*
X232683333Y-97950000D01*
X233016666Y-99016666D02*
X233016666Y-98616666D01*
X233016666Y-98816666D02*
X232316666Y-98816666D01*
X232416666Y-98750000D01*
X232483333Y-98683333D01*
X232516666Y-98616666D01*
X232316666Y-99250000D02*
X232316666Y-99716666D01*
X233016666Y-99416666D01*
X231716666Y-98350000D02*
X231383333Y-98116666D01*
X231716666Y-97950000D02*
X231016666Y-97950000D01*
X231016666Y-98216666D01*
X231050000Y-98283333D01*
X231083333Y-98316666D01*
X231150000Y-98350000D01*
X231250000Y-98350000D01*
X231316666Y-98316666D01*
X231350000Y-98283333D01*
X231383333Y-98216666D01*
X231383333Y-97950000D01*
X231716666Y-99016666D02*
X231716666Y-98616666D01*
X231716666Y-98816666D02*
X231016666Y-98816666D01*
X231116666Y-98750000D01*
X231183333Y-98683333D01*
X231216666Y-98616666D01*
X231016666Y-99616666D02*
X231016666Y-99483333D01*
X231050000Y-99416666D01*
X231083333Y-99383333D01*
X231183333Y-99316666D01*
X231316666Y-99283333D01*
X231583333Y-99283333D01*
X231650000Y-99316666D01*
X231683333Y-99350000D01*
X231716666Y-99416666D01*
X231716666Y-99550000D01*
X231683333Y-99616666D01*
X231650000Y-99650000D01*
X231583333Y-99683333D01*
X231416666Y-99683333D01*
X231350000Y-99650000D01*
X231316666Y-99616666D01*
X231283333Y-99550000D01*
X231283333Y-99416666D01*
X231316666Y-99350000D01*
X231350000Y-99316666D01*
X231416666Y-99283333D01*
X214350000Y-95616666D02*
X214583333Y-95283333D01*
X214750000Y-95616666D02*
X214750000Y-94916666D01*
X214483333Y-94916666D01*
X214416666Y-94950000D01*
X214383333Y-94983333D01*
X214350000Y-95050000D01*
X214350000Y-95150000D01*
X214383333Y-95216666D01*
X214416666Y-95250000D01*
X214483333Y-95283333D01*
X214750000Y-95283333D01*
X213683333Y-95616666D02*
X214083333Y-95616666D01*
X213883333Y-95616666D02*
X213883333Y-94916666D01*
X213950000Y-95016666D01*
X214016666Y-95083333D01*
X214083333Y-95116666D01*
X213050000Y-94916666D02*
X213383333Y-94916666D01*
X213416666Y-95250000D01*
X213383333Y-95216666D01*
X213316666Y-95183333D01*
X213150000Y-95183333D01*
X213083333Y-95216666D01*
X213050000Y-95250000D01*
X213016666Y-95316666D01*
X213016666Y-95483333D01*
X213050000Y-95550000D01*
X213083333Y-95583333D01*
X213150000Y-95616666D01*
X213316666Y-95616666D01*
X213383333Y-95583333D01*
X213416666Y-95550000D01*
X213100000Y-70346666D02*
X213333333Y-70013333D01*
X213500000Y-70346666D02*
X213500000Y-69646666D01*
X213233333Y-69646666D01*
X213166666Y-69680000D01*
X213133333Y-69713333D01*
X213100000Y-69780000D01*
X213100000Y-69880000D01*
X213133333Y-69946666D01*
X213166666Y-69980000D01*
X213233333Y-70013333D01*
X213500000Y-70013333D01*
X212433333Y-70346666D02*
X212833333Y-70346666D01*
X212633333Y-70346666D02*
X212633333Y-69646666D01*
X212700000Y-69746666D01*
X212766666Y-69813333D01*
X212833333Y-69846666D01*
X211833333Y-69880000D02*
X211833333Y-70346666D01*
X212000000Y-69613333D02*
X212166666Y-70113333D01*
X211733333Y-70113333D01*
X215416666Y-62750000D02*
X215083333Y-62516666D01*
X215416666Y-62350000D02*
X214716666Y-62350000D01*
X214716666Y-62616666D01*
X214750000Y-62683333D01*
X214783333Y-62716666D01*
X214850000Y-62750000D01*
X214950000Y-62750000D01*
X215016666Y-62716666D01*
X215050000Y-62683333D01*
X215083333Y-62616666D01*
X215083333Y-62350000D01*
X215416666Y-63416666D02*
X215416666Y-63016666D01*
X215416666Y-63216666D02*
X214716666Y-63216666D01*
X214816666Y-63150000D01*
X214883333Y-63083333D01*
X214916666Y-63016666D01*
X215416666Y-64083333D02*
X215416666Y-63683333D01*
X215416666Y-63883333D02*
X214716666Y-63883333D01*
X214816666Y-63816666D01*
X214883333Y-63750000D01*
X214916666Y-63683333D01*
X220316666Y-61883333D02*
X219983333Y-61650000D01*
X220316666Y-61483333D02*
X219616666Y-61483333D01*
X219616666Y-61750000D01*
X219650000Y-61816666D01*
X219683333Y-61850000D01*
X219750000Y-61883333D01*
X219850000Y-61883333D01*
X219916666Y-61850000D01*
X219950000Y-61816666D01*
X219983333Y-61750000D01*
X219983333Y-61483333D01*
X220316666Y-62216666D02*
X220316666Y-62350000D01*
X220283333Y-62416666D01*
X220250000Y-62450000D01*
X220150000Y-62516666D01*
X220016666Y-62550000D01*
X219750000Y-62550000D01*
X219683333Y-62516666D01*
X219650000Y-62483333D01*
X219616666Y-62416666D01*
X219616666Y-62283333D01*
X219650000Y-62216666D01*
X219683333Y-62183333D01*
X219750000Y-62150000D01*
X219916666Y-62150000D01*
X219983333Y-62183333D01*
X220016666Y-62216666D01*
X220050000Y-62283333D01*
X220050000Y-62416666D01*
X220016666Y-62483333D01*
X219983333Y-62516666D01*
X219916666Y-62550000D01*
X240816666Y-79783333D02*
X240483333Y-79550000D01*
X240816666Y-79383333D02*
X240116666Y-79383333D01*
X240116666Y-79650000D01*
X240150000Y-79716666D01*
X240183333Y-79750000D01*
X240250000Y-79783333D01*
X240350000Y-79783333D01*
X240416666Y-79750000D01*
X240450000Y-79716666D01*
X240483333Y-79650000D01*
X240483333Y-79383333D01*
X240416666Y-80183333D02*
X240383333Y-80116666D01*
X240350000Y-80083333D01*
X240283333Y-80050000D01*
X240250000Y-80050000D01*
X240183333Y-80083333D01*
X240150000Y-80116666D01*
X240116666Y-80183333D01*
X240116666Y-80316666D01*
X240150000Y-80383333D01*
X240183333Y-80416666D01*
X240250000Y-80450000D01*
X240283333Y-80450000D01*
X240350000Y-80416666D01*
X240383333Y-80383333D01*
X240416666Y-80316666D01*
X240416666Y-80183333D01*
X240450000Y-80116666D01*
X240483333Y-80083333D01*
X240550000Y-80050000D01*
X240683333Y-80050000D01*
X240750000Y-80083333D01*
X240783333Y-80116666D01*
X240816666Y-80183333D01*
X240816666Y-80316666D01*
X240783333Y-80383333D01*
X240750000Y-80416666D01*
X240683333Y-80450000D01*
X240550000Y-80450000D01*
X240483333Y-80416666D01*
X240450000Y-80383333D01*
X240416666Y-80316666D01*
X215116666Y-87316666D02*
X215350000Y-86983333D01*
X215516666Y-87316666D02*
X215516666Y-86616666D01*
X215250000Y-86616666D01*
X215183333Y-86650000D01*
X215150000Y-86683333D01*
X215116666Y-86750000D01*
X215116666Y-86850000D01*
X215150000Y-86916666D01*
X215183333Y-86950000D01*
X215250000Y-86983333D01*
X215516666Y-86983333D01*
X214883333Y-86616666D02*
X214416666Y-86616666D01*
X214716666Y-87316666D01*
X235116666Y-81683333D02*
X234783333Y-81450000D01*
X235116666Y-81283333D02*
X234416666Y-81283333D01*
X234416666Y-81550000D01*
X234450000Y-81616666D01*
X234483333Y-81650000D01*
X234550000Y-81683333D01*
X234650000Y-81683333D01*
X234716666Y-81650000D01*
X234750000Y-81616666D01*
X234783333Y-81550000D01*
X234783333Y-81283333D01*
X234416666Y-82283333D02*
X234416666Y-82150000D01*
X234450000Y-82083333D01*
X234483333Y-82050000D01*
X234583333Y-81983333D01*
X234716666Y-81950000D01*
X234983333Y-81950000D01*
X235050000Y-81983333D01*
X235083333Y-82016666D01*
X235116666Y-82083333D01*
X235116666Y-82216666D01*
X235083333Y-82283333D01*
X235050000Y-82316666D01*
X234983333Y-82350000D01*
X234816666Y-82350000D01*
X234750000Y-82316666D01*
X234716666Y-82283333D01*
X234683333Y-82216666D01*
X234683333Y-82083333D01*
X234716666Y-82016666D01*
X234750000Y-81983333D01*
X234816666Y-81950000D01*
X234116666Y-81683333D02*
X233783333Y-81450000D01*
X234116666Y-81283333D02*
X233416666Y-81283333D01*
X233416666Y-81550000D01*
X233450000Y-81616666D01*
X233483333Y-81650000D01*
X233550000Y-81683333D01*
X233650000Y-81683333D01*
X233716666Y-81650000D01*
X233750000Y-81616666D01*
X233783333Y-81550000D01*
X233783333Y-81283333D01*
X233483333Y-81950000D02*
X233450000Y-81983333D01*
X233416666Y-82050000D01*
X233416666Y-82216666D01*
X233450000Y-82283333D01*
X233483333Y-82316666D01*
X233550000Y-82350000D01*
X233616666Y-82350000D01*
X233716666Y-82316666D01*
X234116666Y-81916666D01*
X234116666Y-82350000D01*
X214316666Y-85416666D02*
X214550000Y-85083333D01*
X214716666Y-85416666D02*
X214716666Y-84716666D01*
X214450000Y-84716666D01*
X214383333Y-84750000D01*
X214350000Y-84783333D01*
X214316666Y-84850000D01*
X214316666Y-84950000D01*
X214350000Y-85016666D01*
X214383333Y-85050000D01*
X214450000Y-85083333D01*
X214716666Y-85083333D01*
X213650000Y-85416666D02*
X214050000Y-85416666D01*
X213850000Y-85416666D02*
X213850000Y-84716666D01*
X213916666Y-84816666D01*
X213983333Y-84883333D01*
X214050000Y-84916666D01*
X230366666Y-92683333D02*
X230433333Y-92650000D01*
X230500000Y-92583333D01*
X230600000Y-92483333D01*
X230666666Y-92450000D01*
X230733333Y-92450000D01*
X230700000Y-92616666D02*
X230766666Y-92583333D01*
X230833333Y-92516666D01*
X230866666Y-92383333D01*
X230866666Y-92150000D01*
X230833333Y-92016666D01*
X230766666Y-91950000D01*
X230700000Y-91916666D01*
X230566666Y-91916666D01*
X230500000Y-91950000D01*
X230433333Y-92016666D01*
X230400000Y-92150000D01*
X230400000Y-92383333D01*
X230433333Y-92516666D01*
X230500000Y-92583333D01*
X230566666Y-92616666D01*
X230700000Y-92616666D01*
X230166666Y-91916666D02*
X229700000Y-91916666D01*
X230000000Y-92616666D01*
X237766666Y-84383333D02*
X237833333Y-84350000D01*
X237900000Y-84283333D01*
X238000000Y-84183333D01*
X238066666Y-84150000D01*
X238133333Y-84150000D01*
X238100000Y-84316666D02*
X238166666Y-84283333D01*
X238233333Y-84216666D01*
X238266666Y-84083333D01*
X238266666Y-83850000D01*
X238233333Y-83716666D01*
X238166666Y-83650000D01*
X238100000Y-83616666D01*
X237966666Y-83616666D01*
X237900000Y-83650000D01*
X237833333Y-83716666D01*
X237800000Y-83850000D01*
X237800000Y-84083333D01*
X237833333Y-84216666D01*
X237900000Y-84283333D01*
X237966666Y-84316666D01*
X238100000Y-84316666D01*
X237166666Y-83616666D02*
X237500000Y-83616666D01*
X237533333Y-83950000D01*
X237500000Y-83916666D01*
X237433333Y-83883333D01*
X237266666Y-83883333D01*
X237200000Y-83916666D01*
X237166666Y-83950000D01*
X237133333Y-84016666D01*
X237133333Y-84183333D01*
X237166666Y-84250000D01*
X237200000Y-84283333D01*
X237266666Y-84316666D01*
X237433333Y-84316666D01*
X237500000Y-84283333D01*
X237533333Y-84250000D01*
X226350000Y-75316666D02*
X226350000Y-74616666D01*
X226183333Y-74616666D01*
X226083333Y-74650000D01*
X226016666Y-74716666D01*
X225983333Y-74783333D01*
X225950000Y-74916666D01*
X225950000Y-75016666D01*
X225983333Y-75150000D01*
X226016666Y-75216666D01*
X226083333Y-75283333D01*
X226183333Y-75316666D01*
X226350000Y-75316666D01*
X225683333Y-74683333D02*
X225650000Y-74650000D01*
X225583333Y-74616666D01*
X225416666Y-74616666D01*
X225350000Y-74650000D01*
X225316666Y-74683333D01*
X225283333Y-74750000D01*
X225283333Y-74816666D01*
X225316666Y-74916666D01*
X225716666Y-75316666D01*
X225283333Y-75316666D01*
X224616666Y-75316666D02*
X225016666Y-75316666D01*
X224816666Y-75316666D02*
X224816666Y-74616666D01*
X224883333Y-74716666D01*
X224950000Y-74783333D01*
X225016666Y-74816666D01*
X226350000Y-63616666D02*
X226350000Y-62916666D01*
X226183333Y-62916666D01*
X226083333Y-62950000D01*
X226016666Y-63016666D01*
X225983333Y-63083333D01*
X225950000Y-63216666D01*
X225950000Y-63316666D01*
X225983333Y-63450000D01*
X226016666Y-63516666D01*
X226083333Y-63583333D01*
X226183333Y-63616666D01*
X226350000Y-63616666D01*
X225683333Y-62983333D02*
X225650000Y-62950000D01*
X225583333Y-62916666D01*
X225416666Y-62916666D01*
X225350000Y-62950000D01*
X225316666Y-62983333D01*
X225283333Y-63050000D01*
X225283333Y-63116666D01*
X225316666Y-63216666D01*
X225716666Y-63616666D01*
X225283333Y-63616666D01*
X224850000Y-62916666D02*
X224783333Y-62916666D01*
X224716666Y-62950000D01*
X224683333Y-62983333D01*
X224650000Y-63050000D01*
X224616666Y-63183333D01*
X224616666Y-63350000D01*
X224650000Y-63483333D01*
X224683333Y-63550000D01*
X224716666Y-63583333D01*
X224783333Y-63616666D01*
X224850000Y-63616666D01*
X224916666Y-63583333D01*
X224950000Y-63550000D01*
X224983333Y-63483333D01*
X225016666Y-63350000D01*
X225016666Y-63183333D01*
X224983333Y-63050000D01*
X224950000Y-62983333D01*
X224916666Y-62950000D01*
X224850000Y-62916666D01*
X202550000Y-67916666D02*
X202550000Y-67216666D01*
X202383333Y-67216666D01*
X202283333Y-67250000D01*
X202216666Y-67316666D01*
X202183333Y-67383333D01*
X202150000Y-67516666D01*
X202150000Y-67616666D01*
X202183333Y-67750000D01*
X202216666Y-67816666D01*
X202283333Y-67883333D01*
X202383333Y-67916666D01*
X202550000Y-67916666D01*
X201483333Y-67916666D02*
X201883333Y-67916666D01*
X201683333Y-67916666D02*
X201683333Y-67216666D01*
X201750000Y-67316666D01*
X201816666Y-67383333D01*
X201883333Y-67416666D01*
X201150000Y-67916666D02*
X201016666Y-67916666D01*
X200950000Y-67883333D01*
X200916666Y-67850000D01*
X200850000Y-67750000D01*
X200816666Y-67616666D01*
X200816666Y-67350000D01*
X200850000Y-67283333D01*
X200883333Y-67250000D01*
X200950000Y-67216666D01*
X201083333Y-67216666D01*
X201150000Y-67250000D01*
X201183333Y-67283333D01*
X201216666Y-67350000D01*
X201216666Y-67516666D01*
X201183333Y-67583333D01*
X201150000Y-67616666D01*
X201083333Y-67650000D01*
X200950000Y-67650000D01*
X200883333Y-67616666D01*
X200850000Y-67583333D01*
X200816666Y-67516666D01*
X228316666Y-94700000D02*
X227616666Y-94700000D01*
X227616666Y-94866666D01*
X227650000Y-94966666D01*
X227716666Y-95033333D01*
X227783333Y-95066666D01*
X227916666Y-95100000D01*
X228016666Y-95100000D01*
X228150000Y-95066666D01*
X228216666Y-95033333D01*
X228283333Y-94966666D01*
X228316666Y-94866666D01*
X228316666Y-94700000D01*
X228316666Y-95766666D02*
X228316666Y-95366666D01*
X228316666Y-95566666D02*
X227616666Y-95566666D01*
X227716666Y-95500000D01*
X227783333Y-95433333D01*
X227816666Y-95366666D01*
X227916666Y-96166666D02*
X227883333Y-96100000D01*
X227850000Y-96066666D01*
X227783333Y-96033333D01*
X227750000Y-96033333D01*
X227683333Y-96066666D01*
X227650000Y-96100000D01*
X227616666Y-96166666D01*
X227616666Y-96300000D01*
X227650000Y-96366666D01*
X227683333Y-96400000D01*
X227750000Y-96433333D01*
X227783333Y-96433333D01*
X227850000Y-96400000D01*
X227883333Y-96366666D01*
X227916666Y-96300000D01*
X227916666Y-96166666D01*
X227950000Y-96100000D01*
X227983333Y-96066666D01*
X228050000Y-96033333D01*
X228183333Y-96033333D01*
X228250000Y-96066666D01*
X228283333Y-96100000D01*
X228316666Y-96166666D01*
X228316666Y-96300000D01*
X228283333Y-96366666D01*
X228250000Y-96400000D01*
X228183333Y-96433333D01*
X228050000Y-96433333D01*
X227983333Y-96400000D01*
X227950000Y-96366666D01*
X227916666Y-96300000D01*
X189250000Y-90816666D02*
X189250000Y-90116666D01*
X189083333Y-90116666D01*
X188983333Y-90150000D01*
X188916666Y-90216666D01*
X188883333Y-90283333D01*
X188850000Y-90416666D01*
X188850000Y-90516666D01*
X188883333Y-90650000D01*
X188916666Y-90716666D01*
X188983333Y-90783333D01*
X189083333Y-90816666D01*
X189250000Y-90816666D01*
X188183333Y-90816666D02*
X188583333Y-90816666D01*
X188383333Y-90816666D02*
X188383333Y-90116666D01*
X188450000Y-90216666D01*
X188516666Y-90283333D01*
X188583333Y-90316666D01*
X187950000Y-90116666D02*
X187483333Y-90116666D01*
X187783333Y-90816666D01*
X213950000Y-73616666D02*
X213950000Y-72916666D01*
X213783333Y-72916666D01*
X213683333Y-72950000D01*
X213616666Y-73016666D01*
X213583333Y-73083333D01*
X213550000Y-73216666D01*
X213550000Y-73316666D01*
X213583333Y-73450000D01*
X213616666Y-73516666D01*
X213683333Y-73583333D01*
X213783333Y-73616666D01*
X213950000Y-73616666D01*
X212883333Y-73616666D02*
X213283333Y-73616666D01*
X213083333Y-73616666D02*
X213083333Y-72916666D01*
X213150000Y-73016666D01*
X213216666Y-73083333D01*
X213283333Y-73116666D01*
X212283333Y-72916666D02*
X212416666Y-72916666D01*
X212483333Y-72950000D01*
X212516666Y-72983333D01*
X212583333Y-73083333D01*
X212616666Y-73216666D01*
X212616666Y-73483333D01*
X212583333Y-73550000D01*
X212550000Y-73583333D01*
X212483333Y-73616666D01*
X212350000Y-73616666D01*
X212283333Y-73583333D01*
X212250000Y-73550000D01*
X212216666Y-73483333D01*
X212216666Y-73316666D01*
X212250000Y-73250000D01*
X212283333Y-73216666D01*
X212350000Y-73183333D01*
X212483333Y-73183333D01*
X212550000Y-73216666D01*
X212583333Y-73250000D01*
X212616666Y-73316666D01*
X213850000Y-65716666D02*
X213850000Y-65016666D01*
X213683333Y-65016666D01*
X213583333Y-65050000D01*
X213516666Y-65116666D01*
X213483333Y-65183333D01*
X213450000Y-65316666D01*
X213450000Y-65416666D01*
X213483333Y-65550000D01*
X213516666Y-65616666D01*
X213583333Y-65683333D01*
X213683333Y-65716666D01*
X213850000Y-65716666D01*
X212783333Y-65716666D02*
X213183333Y-65716666D01*
X212983333Y-65716666D02*
X212983333Y-65016666D01*
X213050000Y-65116666D01*
X213116666Y-65183333D01*
X213183333Y-65216666D01*
X212150000Y-65016666D02*
X212483333Y-65016666D01*
X212516666Y-65350000D01*
X212483333Y-65316666D01*
X212416666Y-65283333D01*
X212250000Y-65283333D01*
X212183333Y-65316666D01*
X212150000Y-65350000D01*
X212116666Y-65416666D01*
X212116666Y-65583333D01*
X212150000Y-65650000D01*
X212183333Y-65683333D01*
X212250000Y-65716666D01*
X212416666Y-65716666D01*
X212483333Y-65683333D01*
X212516666Y-65650000D01*
X232850000Y-86016666D02*
X232850000Y-85316666D01*
X232683333Y-85316666D01*
X232583333Y-85350000D01*
X232516666Y-85416666D01*
X232483333Y-85483333D01*
X232450000Y-85616666D01*
X232450000Y-85716666D01*
X232483333Y-85850000D01*
X232516666Y-85916666D01*
X232583333Y-85983333D01*
X232683333Y-86016666D01*
X232850000Y-86016666D01*
X231783333Y-86016666D02*
X232183333Y-86016666D01*
X231983333Y-86016666D02*
X231983333Y-85316666D01*
X232050000Y-85416666D01*
X232116666Y-85483333D01*
X232183333Y-85516666D01*
X231183333Y-85550000D02*
X231183333Y-86016666D01*
X231350000Y-85283333D02*
X231516666Y-85783333D01*
X231083333Y-85783333D01*
X157350000Y-70216666D02*
X157350000Y-69516666D01*
X157183333Y-69516666D01*
X157083333Y-69550000D01*
X157016666Y-69616666D01*
X156983333Y-69683333D01*
X156950000Y-69816666D01*
X156950000Y-69916666D01*
X156983333Y-70050000D01*
X157016666Y-70116666D01*
X157083333Y-70183333D01*
X157183333Y-70216666D01*
X157350000Y-70216666D01*
X156283333Y-70216666D02*
X156683333Y-70216666D01*
X156483333Y-70216666D02*
X156483333Y-69516666D01*
X156550000Y-69616666D01*
X156616666Y-69683333D01*
X156683333Y-69716666D01*
X155616666Y-70216666D02*
X156016666Y-70216666D01*
X155816666Y-70216666D02*
X155816666Y-69516666D01*
X155883333Y-69616666D01*
X155950000Y-69683333D01*
X156016666Y-69716666D01*
X192516666Y-64783333D02*
X191816666Y-64783333D01*
X191816666Y-64950000D01*
X191850000Y-65050000D01*
X191916666Y-65116666D01*
X191983333Y-65150000D01*
X192116666Y-65183333D01*
X192216666Y-65183333D01*
X192350000Y-65150000D01*
X192416666Y-65116666D01*
X192483333Y-65050000D01*
X192516666Y-64950000D01*
X192516666Y-64783333D01*
X192516666Y-65850000D02*
X192516666Y-65450000D01*
X192516666Y-65650000D02*
X191816666Y-65650000D01*
X191916666Y-65583333D01*
X191983333Y-65516666D01*
X192016666Y-65450000D01*
X208450000Y-70950000D02*
X208483333Y-70983333D01*
X208583333Y-71016666D01*
X208650000Y-71016666D01*
X208750000Y-70983333D01*
X208816666Y-70916666D01*
X208850000Y-70850000D01*
X208883333Y-70716666D01*
X208883333Y-70616666D01*
X208850000Y-70483333D01*
X208816666Y-70416666D01*
X208750000Y-70350000D01*
X208650000Y-70316666D01*
X208583333Y-70316666D01*
X208483333Y-70350000D01*
X208450000Y-70383333D01*
X207850000Y-70550000D02*
X207850000Y-71016666D01*
X208016666Y-70283333D02*
X208183333Y-70783333D01*
X207750000Y-70783333D01*
X207116666Y-71016666D02*
X207516666Y-71016666D01*
X207316666Y-71016666D02*
X207316666Y-70316666D01*
X207383333Y-70416666D01*
X207450000Y-70483333D01*
X207516666Y-70516666D01*
X249050000Y-64000000D02*
X249083333Y-63966666D01*
X249116666Y-63866666D01*
X249116666Y-63800000D01*
X249083333Y-63700000D01*
X249016666Y-63633333D01*
X248950000Y-63600000D01*
X248816666Y-63566666D01*
X248716666Y-63566666D01*
X248583333Y-63600000D01*
X248516666Y-63633333D01*
X248450000Y-63700000D01*
X248416666Y-63800000D01*
X248416666Y-63866666D01*
X248450000Y-63966666D01*
X248483333Y-64000000D01*
X248650000Y-64600000D02*
X249116666Y-64600000D01*
X248383333Y-64433333D02*
X248883333Y-64266666D01*
X248883333Y-64700000D01*
X248416666Y-65100000D02*
X248416666Y-65166666D01*
X248450000Y-65233333D01*
X248483333Y-65266666D01*
X248550000Y-65300000D01*
X248683333Y-65333333D01*
X248850000Y-65333333D01*
X248983333Y-65300000D01*
X249050000Y-65266666D01*
X249083333Y-65233333D01*
X249116666Y-65166666D01*
X249116666Y-65100000D01*
X249083333Y-65033333D01*
X249050000Y-65000000D01*
X248983333Y-64966666D01*
X248850000Y-64933333D01*
X248683333Y-64933333D01*
X248550000Y-64966666D01*
X248483333Y-65000000D01*
X248450000Y-65033333D01*
X248416666Y-65100000D01*
X246450000Y-84050000D02*
X246483333Y-84083333D01*
X246583333Y-84116666D01*
X246650000Y-84116666D01*
X246750000Y-84083333D01*
X246816666Y-84016666D01*
X246850000Y-83950000D01*
X246883333Y-83816666D01*
X246883333Y-83716666D01*
X246850000Y-83583333D01*
X246816666Y-83516666D01*
X246750000Y-83450000D01*
X246650000Y-83416666D01*
X246583333Y-83416666D01*
X246483333Y-83450000D01*
X246450000Y-83483333D01*
X246216666Y-83416666D02*
X245783333Y-83416666D01*
X246016666Y-83683333D01*
X245916666Y-83683333D01*
X245850000Y-83716666D01*
X245816666Y-83750000D01*
X245783333Y-83816666D01*
X245783333Y-83983333D01*
X245816666Y-84050000D01*
X245850000Y-84083333D01*
X245916666Y-84116666D01*
X246116666Y-84116666D01*
X246183333Y-84083333D01*
X246216666Y-84050000D01*
X245450000Y-84116666D02*
X245316666Y-84116666D01*
X245250000Y-84083333D01*
X245216666Y-84050000D01*
X245150000Y-83950000D01*
X245116666Y-83816666D01*
X245116666Y-83550000D01*
X245150000Y-83483333D01*
X245183333Y-83450000D01*
X245250000Y-83416666D01*
X245383333Y-83416666D01*
X245450000Y-83450000D01*
X245483333Y-83483333D01*
X245516666Y-83550000D01*
X245516666Y-83716666D01*
X245483333Y-83783333D01*
X245450000Y-83816666D01*
X245383333Y-83850000D01*
X245250000Y-83850000D01*
X245183333Y-83816666D01*
X245150000Y-83783333D01*
X245116666Y-83716666D01*
X217950000Y-76150000D02*
X217983333Y-76183333D01*
X218083333Y-76216666D01*
X218150000Y-76216666D01*
X218250000Y-76183333D01*
X218316666Y-76116666D01*
X218350000Y-76050000D01*
X218383333Y-75916666D01*
X218383333Y-75816666D01*
X218350000Y-75683333D01*
X218316666Y-75616666D01*
X218250000Y-75550000D01*
X218150000Y-75516666D01*
X218083333Y-75516666D01*
X217983333Y-75550000D01*
X217950000Y-75583333D01*
X217716666Y-75516666D02*
X217283333Y-75516666D01*
X217516666Y-75783333D01*
X217416666Y-75783333D01*
X217350000Y-75816666D01*
X217316666Y-75850000D01*
X217283333Y-75916666D01*
X217283333Y-76083333D01*
X217316666Y-76150000D01*
X217350000Y-76183333D01*
X217416666Y-76216666D01*
X217616666Y-76216666D01*
X217683333Y-76183333D01*
X217716666Y-76150000D01*
X216883333Y-75816666D02*
X216950000Y-75783333D01*
X216983333Y-75750000D01*
X217016666Y-75683333D01*
X217016666Y-75650000D01*
X216983333Y-75583333D01*
X216950000Y-75550000D01*
X216883333Y-75516666D01*
X216750000Y-75516666D01*
X216683333Y-75550000D01*
X216650000Y-75583333D01*
X216616666Y-75650000D01*
X216616666Y-75683333D01*
X216650000Y-75750000D01*
X216683333Y-75783333D01*
X216750000Y-75816666D01*
X216883333Y-75816666D01*
X216950000Y-75850000D01*
X216983333Y-75883333D01*
X217016666Y-75950000D01*
X217016666Y-76083333D01*
X216983333Y-76150000D01*
X216950000Y-76183333D01*
X216883333Y-76216666D01*
X216750000Y-76216666D01*
X216683333Y-76183333D01*
X216650000Y-76150000D01*
X216616666Y-76083333D01*
X216616666Y-75950000D01*
X216650000Y-75883333D01*
X216683333Y-75850000D01*
X216750000Y-75816666D01*
X211150000Y-63050000D02*
X211183333Y-63016666D01*
X211216666Y-62916666D01*
X211216666Y-62850000D01*
X211183333Y-62750000D01*
X211116666Y-62683333D01*
X211050000Y-62650000D01*
X210916666Y-62616666D01*
X210816666Y-62616666D01*
X210683333Y-62650000D01*
X210616666Y-62683333D01*
X210550000Y-62750000D01*
X210516666Y-62850000D01*
X210516666Y-62916666D01*
X210550000Y-63016666D01*
X210583333Y-63050000D01*
X210516666Y-63283333D02*
X210516666Y-63716666D01*
X210783333Y-63483333D01*
X210783333Y-63583333D01*
X210816666Y-63650000D01*
X210850000Y-63683333D01*
X210916666Y-63716666D01*
X211083333Y-63716666D01*
X211150000Y-63683333D01*
X211183333Y-63650000D01*
X211216666Y-63583333D01*
X211216666Y-63383333D01*
X211183333Y-63316666D01*
X211150000Y-63283333D01*
X210750000Y-64316666D02*
X211216666Y-64316666D01*
X210483333Y-64150000D02*
X210983333Y-63983333D01*
X210983333Y-64416666D01*
X230450000Y-67350000D02*
X230483333Y-67383333D01*
X230583333Y-67416666D01*
X230650000Y-67416666D01*
X230750000Y-67383333D01*
X230816666Y-67316666D01*
X230850000Y-67250000D01*
X230883333Y-67116666D01*
X230883333Y-67016666D01*
X230850000Y-66883333D01*
X230816666Y-66816666D01*
X230750000Y-66750000D01*
X230650000Y-66716666D01*
X230583333Y-66716666D01*
X230483333Y-66750000D01*
X230450000Y-66783333D01*
X230216666Y-66716666D02*
X229783333Y-66716666D01*
X230016666Y-66983333D01*
X229916666Y-66983333D01*
X229850000Y-67016666D01*
X229816666Y-67050000D01*
X229783333Y-67116666D01*
X229783333Y-67283333D01*
X229816666Y-67350000D01*
X229850000Y-67383333D01*
X229916666Y-67416666D01*
X230116666Y-67416666D01*
X230183333Y-67383333D01*
X230216666Y-67350000D01*
X229550000Y-66716666D02*
X229116666Y-66716666D01*
X229350000Y-66983333D01*
X229250000Y-66983333D01*
X229183333Y-67016666D01*
X229150000Y-67050000D01*
X229116666Y-67116666D01*
X229116666Y-67283333D01*
X229150000Y-67350000D01*
X229183333Y-67383333D01*
X229250000Y-67416666D01*
X229450000Y-67416666D01*
X229516666Y-67383333D01*
X229550000Y-67350000D01*
X224050000Y-62250000D02*
X224083333Y-62216666D01*
X224116666Y-62116666D01*
X224116666Y-62050000D01*
X224083333Y-61950000D01*
X224016666Y-61883333D01*
X223950000Y-61850000D01*
X223816666Y-61816666D01*
X223716666Y-61816666D01*
X223583333Y-61850000D01*
X223516666Y-61883333D01*
X223450000Y-61950000D01*
X223416666Y-62050000D01*
X223416666Y-62116666D01*
X223450000Y-62216666D01*
X223483333Y-62250000D01*
X223416666Y-62483333D02*
X223416666Y-62916666D01*
X223683333Y-62683333D01*
X223683333Y-62783333D01*
X223716666Y-62850000D01*
X223750000Y-62883333D01*
X223816666Y-62916666D01*
X223983333Y-62916666D01*
X224050000Y-62883333D01*
X224083333Y-62850000D01*
X224116666Y-62783333D01*
X224116666Y-62583333D01*
X224083333Y-62516666D01*
X224050000Y-62483333D01*
X223483333Y-63183333D02*
X223450000Y-63216666D01*
X223416666Y-63283333D01*
X223416666Y-63450000D01*
X223450000Y-63516666D01*
X223483333Y-63550000D01*
X223550000Y-63583333D01*
X223616666Y-63583333D01*
X223716666Y-63550000D01*
X224116666Y-63150000D01*
X224116666Y-63583333D01*
X149050000Y-67850000D02*
X149083333Y-67883333D01*
X149183333Y-67916666D01*
X149250000Y-67916666D01*
X149350000Y-67883333D01*
X149416666Y-67816666D01*
X149450000Y-67750000D01*
X149483333Y-67616666D01*
X149483333Y-67516666D01*
X149450000Y-67383333D01*
X149416666Y-67316666D01*
X149350000Y-67250000D01*
X149250000Y-67216666D01*
X149183333Y-67216666D01*
X149083333Y-67250000D01*
X149050000Y-67283333D01*
X148816666Y-67216666D02*
X148383333Y-67216666D01*
X148616666Y-67483333D01*
X148516666Y-67483333D01*
X148450000Y-67516666D01*
X148416666Y-67550000D01*
X148383333Y-67616666D01*
X148383333Y-67783333D01*
X148416666Y-67850000D01*
X148450000Y-67883333D01*
X148516666Y-67916666D01*
X148716666Y-67916666D01*
X148783333Y-67883333D01*
X148816666Y-67850000D01*
X147716666Y-67916666D02*
X148116666Y-67916666D01*
X147916666Y-67916666D02*
X147916666Y-67216666D01*
X147983333Y-67316666D01*
X148050000Y-67383333D01*
X148116666Y-67416666D01*
X155250000Y-61250000D02*
X155283333Y-61283333D01*
X155383333Y-61316666D01*
X155450000Y-61316666D01*
X155550000Y-61283333D01*
X155616666Y-61216666D01*
X155650000Y-61150000D01*
X155683333Y-61016666D01*
X155683333Y-60916666D01*
X155650000Y-60783333D01*
X155616666Y-60716666D01*
X155550000Y-60650000D01*
X155450000Y-60616666D01*
X155383333Y-60616666D01*
X155283333Y-60650000D01*
X155250000Y-60683333D01*
X155016666Y-60616666D02*
X154583333Y-60616666D01*
X154816666Y-60883333D01*
X154716666Y-60883333D01*
X154650000Y-60916666D01*
X154616666Y-60950000D01*
X154583333Y-61016666D01*
X154583333Y-61183333D01*
X154616666Y-61250000D01*
X154650000Y-61283333D01*
X154716666Y-61316666D01*
X154916666Y-61316666D01*
X154983333Y-61283333D01*
X155016666Y-61250000D01*
X154150000Y-60616666D02*
X154083333Y-60616666D01*
X154016666Y-60650000D01*
X153983333Y-60683333D01*
X153950000Y-60750000D01*
X153916666Y-60883333D01*
X153916666Y-61050000D01*
X153950000Y-61183333D01*
X153983333Y-61250000D01*
X154016666Y-61283333D01*
X154083333Y-61316666D01*
X154150000Y-61316666D01*
X154216666Y-61283333D01*
X154250000Y-61250000D01*
X154283333Y-61183333D01*
X154316666Y-61050000D01*
X154316666Y-60883333D01*
X154283333Y-60750000D01*
X154250000Y-60683333D01*
X154216666Y-60650000D01*
X154150000Y-60616666D01*
X208450000Y-69950000D02*
X208483333Y-69983333D01*
X208583333Y-70016666D01*
X208650000Y-70016666D01*
X208750000Y-69983333D01*
X208816666Y-69916666D01*
X208850000Y-69850000D01*
X208883333Y-69716666D01*
X208883333Y-69616666D01*
X208850000Y-69483333D01*
X208816666Y-69416666D01*
X208750000Y-69350000D01*
X208650000Y-69316666D01*
X208583333Y-69316666D01*
X208483333Y-69350000D01*
X208450000Y-69383333D01*
X208183333Y-69383333D02*
X208150000Y-69350000D01*
X208083333Y-69316666D01*
X207916666Y-69316666D01*
X207850000Y-69350000D01*
X207816666Y-69383333D01*
X207783333Y-69450000D01*
X207783333Y-69516666D01*
X207816666Y-69616666D01*
X208216666Y-70016666D01*
X207783333Y-70016666D01*
X207183333Y-69316666D02*
X207316666Y-69316666D01*
X207383333Y-69350000D01*
X207416666Y-69383333D01*
X207483333Y-69483333D01*
X207516666Y-69616666D01*
X207516666Y-69883333D01*
X207483333Y-69950000D01*
X207450000Y-69983333D01*
X207383333Y-70016666D01*
X207250000Y-70016666D01*
X207183333Y-69983333D01*
X207150000Y-69950000D01*
X207116666Y-69883333D01*
X207116666Y-69716666D01*
X207150000Y-69650000D01*
X207183333Y-69616666D01*
X207250000Y-69583333D01*
X207383333Y-69583333D01*
X207450000Y-69616666D01*
X207483333Y-69650000D01*
X207516666Y-69716666D01*
X151850000Y-69920000D02*
X151883333Y-69953333D01*
X151983333Y-69986666D01*
X152050000Y-69986666D01*
X152150000Y-69953333D01*
X152216666Y-69886666D01*
X152250000Y-69820000D01*
X152283333Y-69686666D01*
X152283333Y-69586666D01*
X152250000Y-69453333D01*
X152216666Y-69386666D01*
X152150000Y-69320000D01*
X152050000Y-69286666D01*
X151983333Y-69286666D01*
X151883333Y-69320000D01*
X151850000Y-69353333D01*
X151583333Y-69353333D02*
X151550000Y-69320000D01*
X151483333Y-69286666D01*
X151316666Y-69286666D01*
X151250000Y-69320000D01*
X151216666Y-69353333D01*
X151183333Y-69420000D01*
X151183333Y-69486666D01*
X151216666Y-69586666D01*
X151616666Y-69986666D01*
X151183333Y-69986666D01*
X150916666Y-69353333D02*
X150883333Y-69320000D01*
X150816666Y-69286666D01*
X150650000Y-69286666D01*
X150583333Y-69320000D01*
X150550000Y-69353333D01*
X150516666Y-69420000D01*
X150516666Y-69486666D01*
X150550000Y-69586666D01*
X150950000Y-69986666D01*
X150516666Y-69986666D01*
X163250000Y-60650000D02*
X163283333Y-60683333D01*
X163383333Y-60716666D01*
X163450000Y-60716666D01*
X163550000Y-60683333D01*
X163616666Y-60616666D01*
X163650000Y-60550000D01*
X163683333Y-60416666D01*
X163683333Y-60316666D01*
X163650000Y-60183333D01*
X163616666Y-60116666D01*
X163550000Y-60050000D01*
X163450000Y-60016666D01*
X163383333Y-60016666D01*
X163283333Y-60050000D01*
X163250000Y-60083333D01*
X162983333Y-60083333D02*
X162950000Y-60050000D01*
X162883333Y-60016666D01*
X162716666Y-60016666D01*
X162650000Y-60050000D01*
X162616666Y-60083333D01*
X162583333Y-60150000D01*
X162583333Y-60216666D01*
X162616666Y-60316666D01*
X163016666Y-60716666D01*
X162583333Y-60716666D01*
X161916666Y-60716666D02*
X162316666Y-60716666D01*
X162116666Y-60716666D02*
X162116666Y-60016666D01*
X162183333Y-60116666D01*
X162250000Y-60183333D01*
X162316666Y-60216666D01*
X225050000Y-73180000D02*
X225083333Y-73213333D01*
X225183333Y-73246666D01*
X225250000Y-73246666D01*
X225350000Y-73213333D01*
X225416666Y-73146666D01*
X225450000Y-73080000D01*
X225483333Y-72946666D01*
X225483333Y-72846666D01*
X225450000Y-72713333D01*
X225416666Y-72646666D01*
X225350000Y-72580000D01*
X225250000Y-72546666D01*
X225183333Y-72546666D01*
X225083333Y-72580000D01*
X225050000Y-72613333D01*
X224383333Y-73246666D02*
X224783333Y-73246666D01*
X224583333Y-73246666D02*
X224583333Y-72546666D01*
X224650000Y-72646666D01*
X224716666Y-72713333D01*
X224783333Y-72746666D01*
X223950000Y-72546666D02*
X223883333Y-72546666D01*
X223816666Y-72580000D01*
X223783333Y-72613333D01*
X223750000Y-72680000D01*
X223716666Y-72813333D01*
X223716666Y-72980000D01*
X223750000Y-73113333D01*
X223783333Y-73180000D01*
X223816666Y-73213333D01*
X223883333Y-73246666D01*
X223950000Y-73246666D01*
X224016666Y-73213333D01*
X224050000Y-73180000D01*
X224083333Y-73113333D01*
X224116666Y-72980000D01*
X224116666Y-72813333D01*
X224083333Y-72680000D01*
X224050000Y-72613333D01*
X224016666Y-72580000D01*
X223950000Y-72546666D01*
X228550000Y-72583333D02*
X228583333Y-72550000D01*
X228616666Y-72450000D01*
X228616666Y-72383333D01*
X228583333Y-72283333D01*
X228516666Y-72216666D01*
X228450000Y-72183333D01*
X228316666Y-72150000D01*
X228216666Y-72150000D01*
X228083333Y-72183333D01*
X228016666Y-72216666D01*
X227950000Y-72283333D01*
X227916666Y-72383333D01*
X227916666Y-72450000D01*
X227950000Y-72550000D01*
X227983333Y-72583333D01*
X228616666Y-72916666D02*
X228616666Y-73050000D01*
X228583333Y-73116666D01*
X228550000Y-73150000D01*
X228450000Y-73216666D01*
X228316666Y-73250000D01*
X228050000Y-73250000D01*
X227983333Y-73216666D01*
X227950000Y-73183333D01*
X227916666Y-73116666D01*
X227916666Y-72983333D01*
X227950000Y-72916666D01*
X227983333Y-72883333D01*
X228050000Y-72850000D01*
X228216666Y-72850000D01*
X228283333Y-72883333D01*
X228316666Y-72916666D01*
X228350000Y-72983333D01*
X228350000Y-73116666D01*
X228316666Y-73183333D01*
X228283333Y-73216666D01*
X228216666Y-73250000D01*
X209816666Y-91150000D02*
X209850000Y-91183333D01*
X209950000Y-91216666D01*
X210016666Y-91216666D01*
X210116666Y-91183333D01*
X210183333Y-91116666D01*
X210216666Y-91050000D01*
X210250000Y-90916666D01*
X210250000Y-90816666D01*
X210216666Y-90683333D01*
X210183333Y-90616666D01*
X210116666Y-90550000D01*
X210016666Y-90516666D01*
X209950000Y-90516666D01*
X209850000Y-90550000D01*
X209816666Y-90583333D01*
X209416666Y-90816666D02*
X209483333Y-90783333D01*
X209516666Y-90750000D01*
X209550000Y-90683333D01*
X209550000Y-90650000D01*
X209516666Y-90583333D01*
X209483333Y-90550000D01*
X209416666Y-90516666D01*
X209283333Y-90516666D01*
X209216666Y-90550000D01*
X209183333Y-90583333D01*
X209150000Y-90650000D01*
X209150000Y-90683333D01*
X209183333Y-90750000D01*
X209216666Y-90783333D01*
X209283333Y-90816666D01*
X209416666Y-90816666D01*
X209483333Y-90850000D01*
X209516666Y-90883333D01*
X209550000Y-90950000D01*
X209550000Y-91083333D01*
X209516666Y-91150000D01*
X209483333Y-91183333D01*
X209416666Y-91216666D01*
X209283333Y-91216666D01*
X209216666Y-91183333D01*
X209183333Y-91150000D01*
X209150000Y-91083333D01*
X209150000Y-90950000D01*
X209183333Y-90883333D01*
X209216666Y-90850000D01*
X209283333Y-90816666D01*
X210716666Y-67450000D02*
X210750000Y-67483333D01*
X210850000Y-67516666D01*
X210916666Y-67516666D01*
X211016666Y-67483333D01*
X211083333Y-67416666D01*
X211116666Y-67350000D01*
X211150000Y-67216666D01*
X211150000Y-67116666D01*
X211116666Y-66983333D01*
X211083333Y-66916666D01*
X211016666Y-66850000D01*
X210916666Y-66816666D01*
X210850000Y-66816666D01*
X210750000Y-66850000D01*
X210716666Y-66883333D01*
X210116666Y-66816666D02*
X210250000Y-66816666D01*
X210316666Y-66850000D01*
X210350000Y-66883333D01*
X210416666Y-66983333D01*
X210450000Y-67116666D01*
X210450000Y-67383333D01*
X210416666Y-67450000D01*
X210383333Y-67483333D01*
X210316666Y-67516666D01*
X210183333Y-67516666D01*
X210116666Y-67483333D01*
X210083333Y-67450000D01*
X210050000Y-67383333D01*
X210050000Y-67216666D01*
X210083333Y-67150000D01*
X210116666Y-67116666D01*
X210183333Y-67083333D01*
X210316666Y-67083333D01*
X210383333Y-67116666D01*
X210416666Y-67150000D01*
X210450000Y-67216666D01*
X213620000Y-67733333D02*
X213653333Y-67700000D01*
X213686666Y-67600000D01*
X213686666Y-67533333D01*
X213653333Y-67433333D01*
X213586666Y-67366666D01*
X213520000Y-67333333D01*
X213386666Y-67300000D01*
X213286666Y-67300000D01*
X213153333Y-67333333D01*
X213086666Y-67366666D01*
X213020000Y-67433333D01*
X212986666Y-67533333D01*
X212986666Y-67600000D01*
X213020000Y-67700000D01*
X213053333Y-67733333D01*
X212986666Y-68366666D02*
X212986666Y-68033333D01*
X213320000Y-68000000D01*
X213286666Y-68033333D01*
X213253333Y-68100000D01*
X213253333Y-68266666D01*
X213286666Y-68333333D01*
X213320000Y-68366666D01*
X213386666Y-68400000D01*
X213553333Y-68400000D01*
X213620000Y-68366666D01*
X213653333Y-68333333D01*
X213686666Y-68266666D01*
X213686666Y-68100000D01*
X213653333Y-68033333D01*
X213620000Y-68000000D01*
X218816666Y-71750000D02*
X218850000Y-71783333D01*
X218950000Y-71816666D01*
X219016666Y-71816666D01*
X219116666Y-71783333D01*
X219183333Y-71716666D01*
X219216666Y-71650000D01*
X219250000Y-71516666D01*
X219250000Y-71416666D01*
X219216666Y-71283333D01*
X219183333Y-71216666D01*
X219116666Y-71150000D01*
X219016666Y-71116666D01*
X218950000Y-71116666D01*
X218850000Y-71150000D01*
X218816666Y-71183333D01*
X218216666Y-71350000D02*
X218216666Y-71816666D01*
X218383333Y-71083333D02*
X218550000Y-71583333D01*
X218116666Y-71583333D01*
X215450000Y-61283333D02*
X215483333Y-61250000D01*
X215516666Y-61150000D01*
X215516666Y-61083333D01*
X215483333Y-60983333D01*
X215416666Y-60916666D01*
X215350000Y-60883333D01*
X215216666Y-60850000D01*
X215116666Y-60850000D01*
X214983333Y-60883333D01*
X214916666Y-60916666D01*
X214850000Y-60983333D01*
X214816666Y-61083333D01*
X214816666Y-61150000D01*
X214850000Y-61250000D01*
X214883333Y-61283333D01*
X214816666Y-61516666D02*
X214816666Y-61950000D01*
X215083333Y-61716666D01*
X215083333Y-61816666D01*
X215116666Y-61883333D01*
X215150000Y-61916666D01*
X215216666Y-61950000D01*
X215383333Y-61950000D01*
X215450000Y-61916666D01*
X215483333Y-61883333D01*
X215516666Y-61816666D01*
X215516666Y-61616666D01*
X215483333Y-61550000D01*
X215450000Y-61516666D01*
X214216666Y-75750000D02*
X214250000Y-75783333D01*
X214350000Y-75816666D01*
X214416666Y-75816666D01*
X214516666Y-75783333D01*
X214583333Y-75716666D01*
X214616666Y-75650000D01*
X214650000Y-75516666D01*
X214650000Y-75416666D01*
X214616666Y-75283333D01*
X214583333Y-75216666D01*
X214516666Y-75150000D01*
X214416666Y-75116666D01*
X214350000Y-75116666D01*
X214250000Y-75150000D01*
X214216666Y-75183333D01*
X213950000Y-75183333D02*
X213916666Y-75150000D01*
X213850000Y-75116666D01*
X213683333Y-75116666D01*
X213616666Y-75150000D01*
X213583333Y-75183333D01*
X213550000Y-75250000D01*
X213550000Y-75316666D01*
X213583333Y-75416666D01*
X213983333Y-75816666D01*
X213550000Y-75816666D01*
X144250000Y-58816666D02*
X144250000Y-58116666D01*
X144083333Y-58116666D01*
X143983333Y-58150000D01*
X143916666Y-58216666D01*
X143883333Y-58283333D01*
X143850000Y-58416666D01*
X143850000Y-58516666D01*
X143883333Y-58650000D01*
X143916666Y-58716666D01*
X143983333Y-58783333D01*
X144083333Y-58816666D01*
X144250000Y-58816666D01*
X143183333Y-58816666D02*
X143583333Y-58816666D01*
X143383333Y-58816666D02*
X143383333Y-58116666D01*
X143450000Y-58216666D01*
X143516666Y-58283333D01*
X143583333Y-58316666D01*
X142950000Y-58116666D02*
X142516666Y-58116666D01*
X142750000Y-58383333D01*
X142650000Y-58383333D01*
X142583333Y-58416666D01*
X142550000Y-58450000D01*
X142516666Y-58516666D01*
X142516666Y-58683333D01*
X142550000Y-58750000D01*
X142583333Y-58783333D01*
X142650000Y-58816666D01*
X142850000Y-58816666D01*
X142916666Y-58783333D01*
X142950000Y-58750000D01*
X151116666Y-72516666D02*
X151116666Y-71816666D01*
X150950000Y-71816666D01*
X150850000Y-71850000D01*
X150783333Y-71916666D01*
X150750000Y-71983333D01*
X150716666Y-72116666D01*
X150716666Y-72216666D01*
X150750000Y-72350000D01*
X150783333Y-72416666D01*
X150850000Y-72483333D01*
X150950000Y-72516666D01*
X151116666Y-72516666D01*
X150383333Y-72516666D02*
X150250000Y-72516666D01*
X150183333Y-72483333D01*
X150150000Y-72450000D01*
X150083333Y-72350000D01*
X150050000Y-72216666D01*
X150050000Y-71950000D01*
X150083333Y-71883333D01*
X150116666Y-71850000D01*
X150183333Y-71816666D01*
X150316666Y-71816666D01*
X150383333Y-71850000D01*
X150416666Y-71883333D01*
X150450000Y-71950000D01*
X150450000Y-72116666D01*
X150416666Y-72183333D01*
X150383333Y-72216666D01*
X150316666Y-72250000D01*
X150183333Y-72250000D01*
X150116666Y-72216666D01*
X150083333Y-72183333D01*
X150050000Y-72116666D01*
X160616666Y-93616666D02*
X160616666Y-92916666D01*
X160450000Y-92916666D01*
X160350000Y-92950000D01*
X160283333Y-93016666D01*
X160250000Y-93083333D01*
X160216666Y-93216666D01*
X160216666Y-93316666D01*
X160250000Y-93450000D01*
X160283333Y-93516666D01*
X160350000Y-93583333D01*
X160450000Y-93616666D01*
X160616666Y-93616666D01*
X159816666Y-93216666D02*
X159883333Y-93183333D01*
X159916666Y-93150000D01*
X159950000Y-93083333D01*
X159950000Y-93050000D01*
X159916666Y-92983333D01*
X159883333Y-92950000D01*
X159816666Y-92916666D01*
X159683333Y-92916666D01*
X159616666Y-92950000D01*
X159583333Y-92983333D01*
X159550000Y-93050000D01*
X159550000Y-93083333D01*
X159583333Y-93150000D01*
X159616666Y-93183333D01*
X159683333Y-93216666D01*
X159816666Y-93216666D01*
X159883333Y-93250000D01*
X159916666Y-93283333D01*
X159950000Y-93350000D01*
X159950000Y-93483333D01*
X159916666Y-93550000D01*
X159883333Y-93583333D01*
X159816666Y-93616666D01*
X159683333Y-93616666D01*
X159616666Y-93583333D01*
X159583333Y-93550000D01*
X159550000Y-93483333D01*
X159550000Y-93350000D01*
X159583333Y-93283333D01*
X159616666Y-93250000D01*
X159683333Y-93216666D01*
X169316666Y-75416666D02*
X169316666Y-74716666D01*
X169150000Y-74716666D01*
X169050000Y-74750000D01*
X168983333Y-74816666D01*
X168950000Y-74883333D01*
X168916666Y-75016666D01*
X168916666Y-75116666D01*
X168950000Y-75250000D01*
X168983333Y-75316666D01*
X169050000Y-75383333D01*
X169150000Y-75416666D01*
X169316666Y-75416666D01*
X168683333Y-74716666D02*
X168216666Y-74716666D01*
X168516666Y-75416666D01*
X156816666Y-57416666D02*
X156816666Y-56716666D01*
X156650000Y-56716666D01*
X156550000Y-56750000D01*
X156483333Y-56816666D01*
X156450000Y-56883333D01*
X156416666Y-57016666D01*
X156416666Y-57116666D01*
X156450000Y-57250000D01*
X156483333Y-57316666D01*
X156550000Y-57383333D01*
X156650000Y-57416666D01*
X156816666Y-57416666D01*
X155816666Y-56716666D02*
X155950000Y-56716666D01*
X156016666Y-56750000D01*
X156050000Y-56783333D01*
X156116666Y-56883333D01*
X156150000Y-57016666D01*
X156150000Y-57283333D01*
X156116666Y-57350000D01*
X156083333Y-57383333D01*
X156016666Y-57416666D01*
X155883333Y-57416666D01*
X155816666Y-57383333D01*
X155783333Y-57350000D01*
X155750000Y-57283333D01*
X155750000Y-57116666D01*
X155783333Y-57050000D01*
X155816666Y-57016666D01*
X155883333Y-56983333D01*
X156016666Y-56983333D01*
X156083333Y-57016666D01*
X156116666Y-57050000D01*
X156150000Y-57116666D01*
X193316666Y-58983333D02*
X192616666Y-58983333D01*
X192616666Y-59150000D01*
X192650000Y-59250000D01*
X192716666Y-59316666D01*
X192783333Y-59350000D01*
X192916666Y-59383333D01*
X193016666Y-59383333D01*
X193150000Y-59350000D01*
X193216666Y-59316666D01*
X193283333Y-59250000D01*
X193316666Y-59150000D01*
X193316666Y-58983333D01*
X192850000Y-59983333D02*
X193316666Y-59983333D01*
X192583333Y-59816666D02*
X193083333Y-59650000D01*
X193083333Y-60083333D01*
X150350000Y-56816666D02*
X150583333Y-56483333D01*
X150750000Y-56816666D02*
X150750000Y-56116666D01*
X150483333Y-56116666D01*
X150416666Y-56150000D01*
X150383333Y-56183333D01*
X150350000Y-56250000D01*
X150350000Y-56350000D01*
X150383333Y-56416666D01*
X150416666Y-56450000D01*
X150483333Y-56483333D01*
X150750000Y-56483333D01*
X149716666Y-56116666D02*
X150050000Y-56116666D01*
X150083333Y-56450000D01*
X150050000Y-56416666D01*
X149983333Y-56383333D01*
X149816666Y-56383333D01*
X149750000Y-56416666D01*
X149716666Y-56450000D01*
X149683333Y-56516666D01*
X149683333Y-56683333D01*
X149716666Y-56750000D01*
X149750000Y-56783333D01*
X149816666Y-56816666D01*
X149983333Y-56816666D01*
X150050000Y-56783333D01*
X150083333Y-56750000D01*
X149416666Y-56183333D02*
X149383333Y-56150000D01*
X149316666Y-56116666D01*
X149150000Y-56116666D01*
X149083333Y-56150000D01*
X149050000Y-56183333D01*
X149016666Y-56250000D01*
X149016666Y-56316666D01*
X149050000Y-56416666D01*
X149450000Y-56816666D01*
X149016666Y-56816666D01*
X154650000Y-55416666D02*
X154883333Y-55083333D01*
X155050000Y-55416666D02*
X155050000Y-54716666D01*
X154783333Y-54716666D01*
X154716666Y-54750000D01*
X154683333Y-54783333D01*
X154650000Y-54850000D01*
X154650000Y-54950000D01*
X154683333Y-55016666D01*
X154716666Y-55050000D01*
X154783333Y-55083333D01*
X155050000Y-55083333D01*
X154016666Y-54716666D02*
X154350000Y-54716666D01*
X154383333Y-55050000D01*
X154350000Y-55016666D01*
X154283333Y-54983333D01*
X154116666Y-54983333D01*
X154050000Y-55016666D01*
X154016666Y-55050000D01*
X153983333Y-55116666D01*
X153983333Y-55283333D01*
X154016666Y-55350000D01*
X154050000Y-55383333D01*
X154116666Y-55416666D01*
X154283333Y-55416666D01*
X154350000Y-55383333D01*
X154383333Y-55350000D01*
X153316666Y-55416666D02*
X153716666Y-55416666D01*
X153516666Y-55416666D02*
X153516666Y-54716666D01*
X153583333Y-54816666D01*
X153650000Y-54883333D01*
X153716666Y-54916666D01*
X158116666Y-75150000D02*
X157783333Y-74916666D01*
X158116666Y-74750000D02*
X157416666Y-74750000D01*
X157416666Y-75016666D01*
X157450000Y-75083333D01*
X157483333Y-75116666D01*
X157550000Y-75150000D01*
X157650000Y-75150000D01*
X157716666Y-75116666D01*
X157750000Y-75083333D01*
X157783333Y-75016666D01*
X157783333Y-74750000D01*
X157650000Y-75750000D02*
X158116666Y-75750000D01*
X157383333Y-75583333D02*
X157883333Y-75416666D01*
X157883333Y-75850000D01*
X157416666Y-76050000D02*
X157416666Y-76483333D01*
X157683333Y-76250000D01*
X157683333Y-76350000D01*
X157716666Y-76416666D01*
X157750000Y-76450000D01*
X157816666Y-76483333D01*
X157983333Y-76483333D01*
X158050000Y-76450000D01*
X158083333Y-76416666D01*
X158116666Y-76350000D01*
X158116666Y-76150000D01*
X158083333Y-76083333D01*
X158050000Y-76050000D01*
X156016666Y-75150000D02*
X155683333Y-74916666D01*
X156016666Y-74750000D02*
X155316666Y-74750000D01*
X155316666Y-75016666D01*
X155350000Y-75083333D01*
X155383333Y-75116666D01*
X155450000Y-75150000D01*
X155550000Y-75150000D01*
X155616666Y-75116666D01*
X155650000Y-75083333D01*
X155683333Y-75016666D01*
X155683333Y-74750000D01*
X155550000Y-75750000D02*
X156016666Y-75750000D01*
X155283333Y-75583333D02*
X155783333Y-75416666D01*
X155783333Y-75850000D01*
X155383333Y-76083333D02*
X155350000Y-76116666D01*
X155316666Y-76183333D01*
X155316666Y-76350000D01*
X155350000Y-76416666D01*
X155383333Y-76450000D01*
X155450000Y-76483333D01*
X155516666Y-76483333D01*
X155616666Y-76450000D01*
X156016666Y-76050000D01*
X156016666Y-76483333D01*
X153916666Y-75150000D02*
X153583333Y-74916666D01*
X153916666Y-74750000D02*
X153216666Y-74750000D01*
X153216666Y-75016666D01*
X153250000Y-75083333D01*
X153283333Y-75116666D01*
X153350000Y-75150000D01*
X153450000Y-75150000D01*
X153516666Y-75116666D01*
X153550000Y-75083333D01*
X153583333Y-75016666D01*
X153583333Y-74750000D01*
X153450000Y-75750000D02*
X153916666Y-75750000D01*
X153183333Y-75583333D02*
X153683333Y-75416666D01*
X153683333Y-75850000D01*
X153916666Y-76483333D02*
X153916666Y-76083333D01*
X153916666Y-76283333D02*
X153216666Y-76283333D01*
X153316666Y-76216666D01*
X153383333Y-76150000D01*
X153416666Y-76083333D01*
X151816666Y-75150000D02*
X151483333Y-74916666D01*
X151816666Y-74750000D02*
X151116666Y-74750000D01*
X151116666Y-75016666D01*
X151150000Y-75083333D01*
X151183333Y-75116666D01*
X151250000Y-75150000D01*
X151350000Y-75150000D01*
X151416666Y-75116666D01*
X151450000Y-75083333D01*
X151483333Y-75016666D01*
X151483333Y-74750000D01*
X151350000Y-75750000D02*
X151816666Y-75750000D01*
X151083333Y-75583333D02*
X151583333Y-75416666D01*
X151583333Y-75850000D01*
X151116666Y-76250000D02*
X151116666Y-76316666D01*
X151150000Y-76383333D01*
X151183333Y-76416666D01*
X151250000Y-76450000D01*
X151383333Y-76483333D01*
X151550000Y-76483333D01*
X151683333Y-76450000D01*
X151750000Y-76416666D01*
X151783333Y-76383333D01*
X151816666Y-76316666D01*
X151816666Y-76250000D01*
X151783333Y-76183333D01*
X151750000Y-76150000D01*
X151683333Y-76116666D01*
X151550000Y-76083333D01*
X151383333Y-76083333D01*
X151250000Y-76116666D01*
X151183333Y-76150000D01*
X151150000Y-76183333D01*
X151116666Y-76250000D01*
X165350000Y-56216666D02*
X165583333Y-55883333D01*
X165750000Y-56216666D02*
X165750000Y-55516666D01*
X165483333Y-55516666D01*
X165416666Y-55550000D01*
X165383333Y-55583333D01*
X165350000Y-55650000D01*
X165350000Y-55750000D01*
X165383333Y-55816666D01*
X165416666Y-55850000D01*
X165483333Y-55883333D01*
X165750000Y-55883333D01*
X165116666Y-55516666D02*
X164683333Y-55516666D01*
X164916666Y-55783333D01*
X164816666Y-55783333D01*
X164750000Y-55816666D01*
X164716666Y-55850000D01*
X164683333Y-55916666D01*
X164683333Y-56083333D01*
X164716666Y-56150000D01*
X164750000Y-56183333D01*
X164816666Y-56216666D01*
X165016666Y-56216666D01*
X165083333Y-56183333D01*
X165116666Y-56150000D01*
X164450000Y-55516666D02*
X163983333Y-55516666D01*
X164283333Y-56216666D01*
X167650000Y-56216666D02*
X167883333Y-55883333D01*
X168050000Y-56216666D02*
X168050000Y-55516666D01*
X167783333Y-55516666D01*
X167716666Y-55550000D01*
X167683333Y-55583333D01*
X167650000Y-55650000D01*
X167650000Y-55750000D01*
X167683333Y-55816666D01*
X167716666Y-55850000D01*
X167783333Y-55883333D01*
X168050000Y-55883333D01*
X167416666Y-55516666D02*
X166983333Y-55516666D01*
X167216666Y-55783333D01*
X167116666Y-55783333D01*
X167050000Y-55816666D01*
X167016666Y-55850000D01*
X166983333Y-55916666D01*
X166983333Y-56083333D01*
X167016666Y-56150000D01*
X167050000Y-56183333D01*
X167116666Y-56216666D01*
X167316666Y-56216666D01*
X167383333Y-56183333D01*
X167416666Y-56150000D01*
X166383333Y-55516666D02*
X166516666Y-55516666D01*
X166583333Y-55550000D01*
X166616666Y-55583333D01*
X166683333Y-55683333D01*
X166716666Y-55816666D01*
X166716666Y-56083333D01*
X166683333Y-56150000D01*
X166650000Y-56183333D01*
X166583333Y-56216666D01*
X166450000Y-56216666D01*
X166383333Y-56183333D01*
X166350000Y-56150000D01*
X166316666Y-56083333D01*
X166316666Y-55916666D01*
X166350000Y-55850000D01*
X166383333Y-55816666D01*
X166450000Y-55783333D01*
X166583333Y-55783333D01*
X166650000Y-55816666D01*
X166683333Y-55850000D01*
X166716666Y-55916666D01*
X165550000Y-78016666D02*
X165550000Y-77316666D01*
X165383333Y-77316666D01*
X165283333Y-77350000D01*
X165216666Y-77416666D01*
X165183333Y-77483333D01*
X165150000Y-77616666D01*
X165150000Y-77716666D01*
X165183333Y-77850000D01*
X165216666Y-77916666D01*
X165283333Y-77983333D01*
X165383333Y-78016666D01*
X165550000Y-78016666D01*
X164483333Y-78016666D02*
X164883333Y-78016666D01*
X164683333Y-78016666D02*
X164683333Y-77316666D01*
X164750000Y-77416666D01*
X164816666Y-77483333D01*
X164883333Y-77516666D01*
X164050000Y-77316666D02*
X163983333Y-77316666D01*
X163916666Y-77350000D01*
X163883333Y-77383333D01*
X163850000Y-77450000D01*
X163816666Y-77583333D01*
X163816666Y-77750000D01*
X163850000Y-77883333D01*
X163883333Y-77950000D01*
X163916666Y-77983333D01*
X163983333Y-78016666D01*
X164050000Y-78016666D01*
X164116666Y-77983333D01*
X164150000Y-77950000D01*
X164183333Y-77883333D01*
X164216666Y-77750000D01*
X164216666Y-77583333D01*
X164183333Y-77450000D01*
X164150000Y-77383333D01*
X164116666Y-77350000D01*
X164050000Y-77316666D01*
X160150000Y-75150000D02*
X160183333Y-75116666D01*
X160216666Y-75016666D01*
X160216666Y-74950000D01*
X160183333Y-74850000D01*
X160116666Y-74783333D01*
X160050000Y-74750000D01*
X159916666Y-74716666D01*
X159816666Y-74716666D01*
X159683333Y-74750000D01*
X159616666Y-74783333D01*
X159550000Y-74850000D01*
X159516666Y-74950000D01*
X159516666Y-75016666D01*
X159550000Y-75116666D01*
X159583333Y-75150000D01*
X159583333Y-75416666D02*
X159550000Y-75450000D01*
X159516666Y-75516666D01*
X159516666Y-75683333D01*
X159550000Y-75750000D01*
X159583333Y-75783333D01*
X159650000Y-75816666D01*
X159716666Y-75816666D01*
X159816666Y-75783333D01*
X160216666Y-75383333D01*
X160216666Y-75816666D01*
X159516666Y-76450000D02*
X159516666Y-76116666D01*
X159850000Y-76083333D01*
X159816666Y-76116666D01*
X159783333Y-76183333D01*
X159783333Y-76350000D01*
X159816666Y-76416666D01*
X159850000Y-76450000D01*
X159916666Y-76483333D01*
X160083333Y-76483333D01*
X160150000Y-76450000D01*
X160183333Y-76416666D01*
X160216666Y-76350000D01*
X160216666Y-76183333D01*
X160183333Y-76116666D01*
X160150000Y-76083333D01*
X163450000Y-61716666D02*
X163683333Y-61383333D01*
X163850000Y-61716666D02*
X163850000Y-61016666D01*
X163583333Y-61016666D01*
X163516666Y-61050000D01*
X163483333Y-61083333D01*
X163450000Y-61150000D01*
X163450000Y-61250000D01*
X163483333Y-61316666D01*
X163516666Y-61350000D01*
X163583333Y-61383333D01*
X163850000Y-61383333D01*
X163216666Y-61016666D02*
X162783333Y-61016666D01*
X163016666Y-61283333D01*
X162916666Y-61283333D01*
X162850000Y-61316666D01*
X162816666Y-61350000D01*
X162783333Y-61416666D01*
X162783333Y-61583333D01*
X162816666Y-61650000D01*
X162850000Y-61683333D01*
X162916666Y-61716666D01*
X163116666Y-61716666D01*
X163183333Y-61683333D01*
X163216666Y-61650000D01*
X162350000Y-61016666D02*
X162283333Y-61016666D01*
X162216666Y-61050000D01*
X162183333Y-61083333D01*
X162150000Y-61150000D01*
X162116666Y-61283333D01*
X162116666Y-61450000D01*
X162150000Y-61583333D01*
X162183333Y-61650000D01*
X162216666Y-61683333D01*
X162283333Y-61716666D01*
X162350000Y-61716666D01*
X162416666Y-61683333D01*
X162450000Y-61650000D01*
X162483333Y-61583333D01*
X162516666Y-61450000D01*
X162516666Y-61283333D01*
X162483333Y-61150000D01*
X162450000Y-61083333D01*
X162416666Y-61050000D01*
X162350000Y-61016666D01*
X165550000Y-61716666D02*
X165783333Y-61383333D01*
X165950000Y-61716666D02*
X165950000Y-61016666D01*
X165683333Y-61016666D01*
X165616666Y-61050000D01*
X165583333Y-61083333D01*
X165550000Y-61150000D01*
X165550000Y-61250000D01*
X165583333Y-61316666D01*
X165616666Y-61350000D01*
X165683333Y-61383333D01*
X165950000Y-61383333D01*
X165283333Y-61083333D02*
X165250000Y-61050000D01*
X165183333Y-61016666D01*
X165016666Y-61016666D01*
X164950000Y-61050000D01*
X164916666Y-61083333D01*
X164883333Y-61150000D01*
X164883333Y-61216666D01*
X164916666Y-61316666D01*
X165316666Y-61716666D01*
X164883333Y-61716666D01*
X164550000Y-61716666D02*
X164416666Y-61716666D01*
X164350000Y-61683333D01*
X164316666Y-61650000D01*
X164250000Y-61550000D01*
X164216666Y-61416666D01*
X164216666Y-61150000D01*
X164250000Y-61083333D01*
X164283333Y-61050000D01*
X164350000Y-61016666D01*
X164483333Y-61016666D01*
X164550000Y-61050000D01*
X164583333Y-61083333D01*
X164616666Y-61150000D01*
X164616666Y-61316666D01*
X164583333Y-61383333D01*
X164550000Y-61416666D01*
X164483333Y-61450000D01*
X164350000Y-61450000D01*
X164283333Y-61416666D01*
X164250000Y-61383333D01*
X164216666Y-61316666D01*
X167650000Y-61716666D02*
X167883333Y-61383333D01*
X168050000Y-61716666D02*
X168050000Y-61016666D01*
X167783333Y-61016666D01*
X167716666Y-61050000D01*
X167683333Y-61083333D01*
X167650000Y-61150000D01*
X167650000Y-61250000D01*
X167683333Y-61316666D01*
X167716666Y-61350000D01*
X167783333Y-61383333D01*
X168050000Y-61383333D01*
X167383333Y-61083333D02*
X167350000Y-61050000D01*
X167283333Y-61016666D01*
X167116666Y-61016666D01*
X167050000Y-61050000D01*
X167016666Y-61083333D01*
X166983333Y-61150000D01*
X166983333Y-61216666D01*
X167016666Y-61316666D01*
X167416666Y-61716666D01*
X166983333Y-61716666D01*
X166583333Y-61316666D02*
X166650000Y-61283333D01*
X166683333Y-61250000D01*
X166716666Y-61183333D01*
X166716666Y-61150000D01*
X166683333Y-61083333D01*
X166650000Y-61050000D01*
X166583333Y-61016666D01*
X166450000Y-61016666D01*
X166383333Y-61050000D01*
X166350000Y-61083333D01*
X166316666Y-61150000D01*
X166316666Y-61183333D01*
X166350000Y-61250000D01*
X166383333Y-61283333D01*
X166450000Y-61316666D01*
X166583333Y-61316666D01*
X166650000Y-61350000D01*
X166683333Y-61383333D01*
X166716666Y-61450000D01*
X166716666Y-61583333D01*
X166683333Y-61650000D01*
X166650000Y-61683333D01*
X166583333Y-61716666D01*
X166450000Y-61716666D01*
X166383333Y-61683333D01*
X166350000Y-61650000D01*
X166316666Y-61583333D01*
X166316666Y-61450000D01*
X166350000Y-61383333D01*
X166383333Y-61350000D01*
X166450000Y-61316666D01*
X169750000Y-61716666D02*
X169983333Y-61383333D01*
X170150000Y-61716666D02*
X170150000Y-61016666D01*
X169883333Y-61016666D01*
X169816666Y-61050000D01*
X169783333Y-61083333D01*
X169750000Y-61150000D01*
X169750000Y-61250000D01*
X169783333Y-61316666D01*
X169816666Y-61350000D01*
X169883333Y-61383333D01*
X170150000Y-61383333D01*
X169483333Y-61083333D02*
X169450000Y-61050000D01*
X169383333Y-61016666D01*
X169216666Y-61016666D01*
X169150000Y-61050000D01*
X169116666Y-61083333D01*
X169083333Y-61150000D01*
X169083333Y-61216666D01*
X169116666Y-61316666D01*
X169516666Y-61716666D01*
X169083333Y-61716666D01*
X168850000Y-61016666D02*
X168383333Y-61016666D01*
X168683333Y-61716666D01*
X170116666Y-60416666D02*
X170116666Y-59716666D01*
X169950000Y-59716666D01*
X169850000Y-59750000D01*
X169783333Y-59816666D01*
X169750000Y-59883333D01*
X169716666Y-60016666D01*
X169716666Y-60116666D01*
X169750000Y-60250000D01*
X169783333Y-60316666D01*
X169850000Y-60383333D01*
X169950000Y-60416666D01*
X170116666Y-60416666D01*
X169483333Y-59716666D02*
X169050000Y-59716666D01*
X169283333Y-59983333D01*
X169183333Y-59983333D01*
X169116666Y-60016666D01*
X169083333Y-60050000D01*
X169050000Y-60116666D01*
X169050000Y-60283333D01*
X169083333Y-60350000D01*
X169116666Y-60383333D01*
X169183333Y-60416666D01*
X169383333Y-60416666D01*
X169450000Y-60383333D01*
X169483333Y-60350000D01*
X171850000Y-61650000D02*
X171883333Y-61683333D01*
X171983333Y-61716666D01*
X172050000Y-61716666D01*
X172150000Y-61683333D01*
X172216666Y-61616666D01*
X172250000Y-61550000D01*
X172283333Y-61416666D01*
X172283333Y-61316666D01*
X172250000Y-61183333D01*
X172216666Y-61116666D01*
X172150000Y-61050000D01*
X172050000Y-61016666D01*
X171983333Y-61016666D01*
X171883333Y-61050000D01*
X171850000Y-61083333D01*
X171183333Y-61716666D02*
X171583333Y-61716666D01*
X171383333Y-61716666D02*
X171383333Y-61016666D01*
X171450000Y-61116666D01*
X171516666Y-61183333D01*
X171583333Y-61216666D01*
X170550000Y-61016666D02*
X170883333Y-61016666D01*
X170916666Y-61350000D01*
X170883333Y-61316666D01*
X170816666Y-61283333D01*
X170650000Y-61283333D01*
X170583333Y-61316666D01*
X170550000Y-61350000D01*
X170516666Y-61416666D01*
X170516666Y-61583333D01*
X170550000Y-61650000D01*
X170583333Y-61683333D01*
X170650000Y-61716666D01*
X170816666Y-61716666D01*
X170883333Y-61683333D01*
X170916666Y-61650000D01*
M02*
